%TF.GenerationSoftware,KiCad,Pcbnew,8.0.7-8.0.7-0~ubuntu22.04.1*%
%TF.CreationDate,2025-01-12T20:07:59+01:00*%
%TF.ProjectId,debug_can_usb,64656275-675f-4636-916e-5f7573622e6b,rev?*%
%TF.SameCoordinates,Original*%
%TF.FileFunction,Soldermask,Top*%
%TF.FilePolarity,Negative*%
%FSLAX46Y46*%
G04 Gerber Fmt 4.6, Leading zero omitted, Abs format (unit mm)*
G04 Created by KiCad (PCBNEW 8.0.7-8.0.7-0~ubuntu22.04.1) date 2025-01-12 20:07:59*
%MOMM*%
%LPD*%
G01*
G04 APERTURE LIST*
G04 Aperture macros list*
%AMRoundRect*
0 Rectangle with rounded corners*
0 $1 Rounding radius*
0 $2 $3 $4 $5 $6 $7 $8 $9 X,Y pos of 4 corners*
0 Add a 4 corners polygon primitive as box body*
4,1,4,$2,$3,$4,$5,$6,$7,$8,$9,$2,$3,0*
0 Add four circle primitives for the rounded corners*
1,1,$1+$1,$2,$3*
1,1,$1+$1,$4,$5*
1,1,$1+$1,$6,$7*
1,1,$1+$1,$8,$9*
0 Add four rect primitives between the rounded corners*
20,1,$1+$1,$2,$3,$4,$5,0*
20,1,$1+$1,$4,$5,$6,$7,0*
20,1,$1+$1,$6,$7,$8,$9,0*
20,1,$1+$1,$8,$9,$2,$3,0*%
G04 Aperture macros list end*
%ADD10RoundRect,0.200000X-0.275000X0.200000X-0.275000X-0.200000X0.275000X-0.200000X0.275000X0.200000X0*%
%ADD11RoundRect,0.218750X0.218750X0.256250X-0.218750X0.256250X-0.218750X-0.256250X0.218750X-0.256250X0*%
%ADD12RoundRect,0.135000X-0.135000X-0.185000X0.135000X-0.185000X0.135000X0.185000X-0.135000X0.185000X0*%
%ADD13RoundRect,0.250000X-0.650000X1.000000X-0.650000X-1.000000X0.650000X-1.000000X0.650000X1.000000X0*%
%ADD14C,1.020000*%
%ADD15RoundRect,0.250001X0.499999X0.499999X-0.499999X0.499999X-0.499999X-0.499999X0.499999X-0.499999X0*%
%ADD16C,1.500000*%
%ADD17RoundRect,0.135000X-0.185000X0.135000X-0.185000X-0.135000X0.185000X-0.135000X0.185000X0.135000X0*%
%ADD18C,0.650000*%
%ADD19R,0.600000X1.240000*%
%ADD20R,0.300000X1.240000*%
%ADD21O,1.000000X2.100000*%
%ADD22O,1.000000X1.800000*%
%ADD23RoundRect,0.135000X0.135000X0.185000X-0.135000X0.185000X-0.135000X-0.185000X0.135000X-0.185000X0*%
%ADD24RoundRect,0.250000X-0.600000X-0.725000X0.600000X-0.725000X0.600000X0.725000X-0.600000X0.725000X0*%
%ADD25O,1.700000X1.950000*%
%ADD26R,1.700000X1.700000*%
%ADD27R,1.600000X1.600000*%
%ADD28O,1.600000X1.600000*%
%ADD29C,1.400000*%
%ADD30RoundRect,0.770000X0.980000X0.980000X-0.980000X0.980000X-0.980000X-0.980000X0.980000X-0.980000X0*%
%ADD31C,3.500000*%
%ADD32C,3.250000*%
%ADD33R,1.500000X1.500000*%
%ADD34C,2.300000*%
G04 APERTURE END LIST*
D10*
%TO.C,R2*%
X135820000Y-65965001D03*
X135820000Y-67615001D03*
%TD*%
D11*
%TO.C,D1*%
X161697502Y-85490001D03*
X160122500Y-85490001D03*
%TD*%
D12*
%TO.C,R1*%
X157700001Y-85590001D03*
X158720001Y-85590001D03*
%TD*%
D13*
%TO.C,D3*%
X153020000Y-80690000D03*
X153020000Y-84690002D03*
%TD*%
D14*
%TO.C,U2*%
X144920000Y-95550001D03*
X135920000Y-95550001D03*
D15*
X141920000Y-99490001D03*
D16*
X138920000Y-99490001D03*
X141920000Y-96490001D03*
X138920000Y-96490001D03*
%TD*%
D17*
%TO.C,R5*%
X164620000Y-91880002D03*
X164620000Y-92900000D03*
%TD*%
D10*
%TO.C,R3*%
X133320000Y-65865001D03*
X133320000Y-67515001D03*
%TD*%
D18*
%TO.C,J5*%
X163130000Y-95600001D03*
X168910000Y-95600001D03*
D19*
X162820000Y-94480001D03*
X163620000Y-94480001D03*
D20*
X164770000Y-94480001D03*
X165770000Y-94480001D03*
X166270000Y-94480001D03*
X167270000Y-94480001D03*
D19*
X168420000Y-94480001D03*
X169220000Y-94480001D03*
X169220000Y-94480001D03*
X168420000Y-94480001D03*
D20*
X167770000Y-94480001D03*
X166770000Y-94480001D03*
X165270000Y-94480001D03*
X164270000Y-94480001D03*
D19*
X163620000Y-94480001D03*
X162820000Y-94480001D03*
D21*
X161700000Y-95080001D03*
D22*
X161700000Y-99280001D03*
D21*
X170340000Y-95080001D03*
D22*
X170340000Y-99280001D03*
%TD*%
D11*
%TO.C,D2*%
X161685003Y-83690001D03*
X160110001Y-83690001D03*
%TD*%
D23*
%TO.C,R4*%
X168929999Y-92790001D03*
X167910001Y-92790001D03*
%TD*%
D24*
%TO.C,J3*%
X140020000Y-82490001D03*
D25*
X142520000Y-82490001D03*
X145020000Y-82490001D03*
X147520000Y-82490001D03*
%TD*%
D26*
%TO.C,J4*%
X165820000Y-80790001D03*
%TD*%
D14*
%TO.C,U3*%
X133720000Y-95550001D03*
X124720000Y-95550001D03*
D15*
X130720000Y-99490001D03*
D16*
X127720000Y-99490001D03*
X130720000Y-96490001D03*
X127720000Y-96490001D03*
%TD*%
D23*
%TO.C,R6*%
X158720000Y-83690001D03*
X157700002Y-83690001D03*
%TD*%
D27*
%TO.C,SW1*%
X135720000Y-70090001D03*
D28*
X133180000Y-70090001D03*
X133180000Y-77710001D03*
X135720000Y-77710001D03*
%TD*%
D24*
%TO.C,J1*%
X126570000Y-82465001D03*
D25*
X129070000Y-82465001D03*
X131570000Y-82465001D03*
X134070000Y-82465001D03*
%TD*%
D29*
%TO.C,J7*%
X159000000Y-98805001D03*
X148000000Y-98805001D03*
D30*
X151000000Y-88805001D03*
D31*
X156000000Y-88805001D03*
%TD*%
D32*
%TO.C,J2*%
X141734000Y-68150001D03*
X154434000Y-68150001D03*
D33*
X144524000Y-70690001D03*
D16*
X145540000Y-72470002D03*
X146556000Y-70690001D03*
X147572000Y-72470002D03*
X148588000Y-70690001D03*
X149604000Y-72470002D03*
X150620000Y-70690001D03*
X151635999Y-72470001D03*
X141224000Y-77290001D03*
X143514000Y-77290001D03*
X152654000Y-77290001D03*
X154944000Y-77290001D03*
D34*
X139954000Y-71580001D03*
X156214000Y-71580001D03*
%TD*%
D26*
%TO.C,J6*%
X159920000Y-80790001D03*
%TD*%
M02*
