%TF.GenerationSoftware,KiCad,Pcbnew,8.0.7-8.0.7-0~ubuntu22.04.1*%
%TF.CreationDate,2025-01-12T20:07:59+01:00*%
%TF.ProjectId,debug_can_usb,64656275-675f-4636-916e-5f7573622e6b,rev?*%
%TF.SameCoordinates,Original*%
%TF.FileFunction,Legend,Bot*%
%TF.FilePolarity,Positive*%
%FSLAX46Y46*%
G04 Gerber Fmt 4.6, Leading zero omitted, Abs format (unit mm)*
G04 Created by KiCad (PCBNEW 8.0.7-8.0.7-0~ubuntu22.04.1) date 2025-01-12 20:07:59*
%MOMM*%
%LPD*%
G01*
G04 APERTURE LIST*
G04 Aperture macros list*
%AMRoundRect*
0 Rectangle with rounded corners*
0 $1 Rounding radius*
0 $2 $3 $4 $5 $6 $7 $8 $9 X,Y pos of 4 corners*
0 Add a 4 corners polygon primitive as box body*
4,1,4,$2,$3,$4,$5,$6,$7,$8,$9,$2,$3,0*
0 Add four circle primitives for the rounded corners*
1,1,$1+$1,$2,$3*
1,1,$1+$1,$4,$5*
1,1,$1+$1,$6,$7*
1,1,$1+$1,$8,$9*
0 Add four rect primitives between the rounded corners*
20,1,$1+$1,$2,$3,$4,$5,0*
20,1,$1+$1,$4,$5,$6,$7,0*
20,1,$1+$1,$6,$7,$8,$9,0*
20,1,$1+$1,$8,$9,$2,$3,0*%
G04 Aperture macros list end*
%ADD10C,0.100000*%
%ADD11C,1.020000*%
%ADD12RoundRect,0.250001X0.499999X0.499999X-0.499999X0.499999X-0.499999X-0.499999X0.499999X-0.499999X0*%
%ADD13C,1.500000*%
%ADD14C,0.650000*%
%ADD15O,1.000000X2.100000*%
%ADD16O,1.000000X1.800000*%
%ADD17RoundRect,0.250000X-0.600000X-0.725000X0.600000X-0.725000X0.600000X0.725000X-0.600000X0.725000X0*%
%ADD18O,1.700000X1.950000*%
%ADD19R,1.700000X1.700000*%
%ADD20R,1.600000X1.600000*%
%ADD21O,1.600000X1.600000*%
%ADD22C,1.400000*%
%ADD23RoundRect,0.770000X0.980000X0.980000X-0.980000X0.980000X-0.980000X-0.980000X0.980000X-0.980000X0*%
%ADD24C,3.500000*%
%ADD25C,3.250000*%
%ADD26R,1.500000X1.500000*%
%ADD27C,2.300000*%
G04 APERTURE END LIST*
D10*
G36*
X128453530Y-94765476D02*
G01*
X127131308Y-94765476D01*
X127131308Y-93846266D01*
X127861466Y-93846266D01*
X127861466Y-94608171D01*
X127865272Y-94627305D01*
X127892332Y-94654365D01*
X127930600Y-94654365D01*
X127957660Y-94627305D01*
X127961466Y-94608171D01*
X127961466Y-93846266D01*
X127957660Y-93827132D01*
X127930600Y-93800072D01*
X127892332Y-93800072D01*
X127865272Y-93827132D01*
X127861466Y-93846266D01*
X127131308Y-93846266D01*
X127131308Y-93141683D01*
X127243370Y-93141683D01*
X127246225Y-93145965D01*
X127246225Y-93151114D01*
X127256521Y-93161410D01*
X127264597Y-93173524D01*
X127269644Y-93174533D01*
X127273285Y-93178174D01*
X127292419Y-93181980D01*
X128242419Y-93181980D01*
X128242419Y-93417694D01*
X128246225Y-93436828D01*
X128273285Y-93463888D01*
X128311553Y-93463888D01*
X128338613Y-93436828D01*
X128342419Y-93417694D01*
X128342419Y-92846266D01*
X128338613Y-92827132D01*
X128311553Y-92800072D01*
X128273285Y-92800072D01*
X128246225Y-92827132D01*
X128242419Y-92846266D01*
X128242419Y-93081980D01*
X127457557Y-93081980D01*
X127463011Y-93078344D01*
X127466515Y-93074847D01*
X127470631Y-93072097D01*
X127565869Y-92976859D01*
X127570319Y-92970199D01*
X127575235Y-92963865D01*
X127622854Y-92868627D01*
X127628007Y-92849811D01*
X127615905Y-92813506D01*
X127581677Y-92796392D01*
X127545373Y-92808494D01*
X127533411Y-92823906D01*
X127489420Y-92911887D01*
X127403425Y-92997883D01*
X127264684Y-93090377D01*
X127250875Y-93104158D01*
X127249865Y-93109205D01*
X127246225Y-93112846D01*
X127246225Y-93127408D01*
X127243370Y-93141683D01*
X127131308Y-93141683D01*
X127131308Y-92179599D01*
X127242419Y-92179599D01*
X127242419Y-92274837D01*
X127243982Y-92282699D01*
X127244985Y-92290648D01*
X127292604Y-92433505D01*
X127293844Y-92435680D01*
X127293844Y-92436828D01*
X127298297Y-92443492D01*
X127302265Y-92450453D01*
X127303291Y-92450966D01*
X127304683Y-92453049D01*
X127352301Y-92500668D01*
X127368522Y-92511507D01*
X127406791Y-92511507D01*
X127433851Y-92484447D01*
X127433851Y-92446178D01*
X127423012Y-92429957D01*
X127383739Y-92390685D01*
X127342419Y-92266723D01*
X127342419Y-92187712D01*
X127383739Y-92063750D01*
X127464892Y-91982597D01*
X127547966Y-91941060D01*
X127727145Y-91896266D01*
X127857692Y-91896266D01*
X128036872Y-91941061D01*
X128119942Y-91982596D01*
X128201099Y-92063752D01*
X128242419Y-92187712D01*
X128242419Y-92266724D01*
X128201099Y-92390683D01*
X128161825Y-92429957D01*
X128150986Y-92446178D01*
X128150986Y-92484447D01*
X128178045Y-92511507D01*
X128216314Y-92511507D01*
X128232535Y-92500669D01*
X128280155Y-92453050D01*
X128281546Y-92450967D01*
X128282573Y-92450454D01*
X128286539Y-92443495D01*
X128290994Y-92436829D01*
X128290994Y-92435680D01*
X128292234Y-92433505D01*
X128339853Y-92290649D01*
X128340855Y-92282698D01*
X128342419Y-92274837D01*
X128342419Y-92179599D01*
X128340855Y-92171737D01*
X128339853Y-92163787D01*
X128292234Y-92020931D01*
X128290994Y-92018755D01*
X128290994Y-92017608D01*
X128286543Y-92010947D01*
X128282573Y-92003982D01*
X128281545Y-92003468D01*
X128280155Y-92001387D01*
X128184916Y-91906148D01*
X128178249Y-91901693D01*
X128171921Y-91896782D01*
X128076684Y-91849164D01*
X128071402Y-91847717D01*
X128066450Y-91845378D01*
X127875974Y-91797759D01*
X127869856Y-91797461D01*
X127863847Y-91796266D01*
X127720990Y-91796266D01*
X127714980Y-91797461D01*
X127708863Y-91797759D01*
X127518387Y-91845378D01*
X127513434Y-91847717D01*
X127508153Y-91849164D01*
X127412915Y-91896783D01*
X127406580Y-91901698D01*
X127399921Y-91906149D01*
X127304683Y-92001387D01*
X127303291Y-92003469D01*
X127302265Y-92003983D01*
X127298297Y-92010943D01*
X127293844Y-92017608D01*
X127293844Y-92018755D01*
X127292604Y-92020931D01*
X127244985Y-92163788D01*
X127243982Y-92171736D01*
X127242419Y-92179599D01*
X127131308Y-92179599D01*
X127131308Y-91685155D01*
X128453530Y-91685155D01*
X128453530Y-94765476D01*
G37*
G36*
X144142419Y-100571486D02*
G01*
X144101099Y-100695445D01*
X144019942Y-100776601D01*
X143936872Y-100818137D01*
X143757692Y-100862932D01*
X143627145Y-100862932D01*
X143447966Y-100818137D01*
X143364892Y-100776600D01*
X143283739Y-100695447D01*
X143242419Y-100571485D01*
X143242419Y-100391504D01*
X144142419Y-100391504D01*
X144142419Y-100571486D01*
G37*
G36*
X144353530Y-101074043D02*
G01*
X143031308Y-101074043D01*
X143031308Y-100341504D01*
X143142419Y-100341504D01*
X143142419Y-100579599D01*
X143143982Y-100587461D01*
X143144985Y-100595410D01*
X143192604Y-100738267D01*
X143193844Y-100740442D01*
X143193844Y-100741590D01*
X143198297Y-100748254D01*
X143202265Y-100755215D01*
X143203291Y-100755728D01*
X143204683Y-100757811D01*
X143299921Y-100853049D01*
X143306580Y-100857499D01*
X143312915Y-100862415D01*
X143408153Y-100910034D01*
X143413434Y-100911480D01*
X143418387Y-100913820D01*
X143608863Y-100961439D01*
X143614980Y-100961736D01*
X143620990Y-100962932D01*
X143763847Y-100962932D01*
X143769856Y-100961736D01*
X143775974Y-100961439D01*
X143966450Y-100913820D01*
X143971402Y-100911480D01*
X143976684Y-100910034D01*
X144071921Y-100862416D01*
X144078249Y-100857504D01*
X144084916Y-100853050D01*
X144180155Y-100757811D01*
X144181545Y-100755729D01*
X144182573Y-100755216D01*
X144186543Y-100748250D01*
X144190994Y-100741590D01*
X144190994Y-100740442D01*
X144192234Y-100738267D01*
X144239853Y-100595411D01*
X144240855Y-100587460D01*
X144242419Y-100579599D01*
X144242419Y-100341504D01*
X144238613Y-100322370D01*
X144211553Y-100295310D01*
X144192419Y-100291504D01*
X143192419Y-100291504D01*
X143173285Y-100295310D01*
X143146225Y-100322370D01*
X143142419Y-100341504D01*
X143031308Y-100341504D01*
X143031308Y-99287579D01*
X143142818Y-99287579D01*
X143146225Y-99300071D01*
X143146225Y-99313019D01*
X143151079Y-99317873D01*
X143152887Y-99324500D01*
X143167612Y-99337297D01*
X144004141Y-99815313D01*
X143192419Y-99815313D01*
X143173285Y-99819119D01*
X143146225Y-99846179D01*
X143146225Y-99884447D01*
X143173285Y-99911507D01*
X143192419Y-99915313D01*
X144192419Y-99915313D01*
X144211553Y-99911507D01*
X144216407Y-99906652D01*
X144223034Y-99904845D01*
X144229459Y-99893600D01*
X144238613Y-99884447D01*
X144238613Y-99877581D01*
X144242020Y-99871619D01*
X144238613Y-99859126D01*
X144238613Y-99846179D01*
X144233757Y-99841323D01*
X144231951Y-99834699D01*
X144217226Y-99821901D01*
X143380697Y-99343885D01*
X144192419Y-99343885D01*
X144211553Y-99340079D01*
X144238613Y-99313019D01*
X144238613Y-99274751D01*
X144211553Y-99247691D01*
X144192419Y-99243885D01*
X143192419Y-99243885D01*
X143173285Y-99247691D01*
X143168430Y-99252545D01*
X143161804Y-99254353D01*
X143155378Y-99265597D01*
X143146225Y-99274751D01*
X143146225Y-99281616D01*
X143142818Y-99287579D01*
X143031308Y-99287579D01*
X143031308Y-98579599D01*
X143142419Y-98579599D01*
X143142419Y-98722456D01*
X143142907Y-98724912D01*
X143142545Y-98726001D01*
X143144661Y-98733728D01*
X143146225Y-98741590D01*
X143147036Y-98742401D01*
X143147698Y-98744817D01*
X143195316Y-98840054D01*
X143207278Y-98855466D01*
X143243582Y-98867568D01*
X143277810Y-98850454D01*
X143289912Y-98814149D01*
X143284759Y-98795333D01*
X143242419Y-98710653D01*
X143242419Y-98587712D01*
X143283739Y-98463750D01*
X143364892Y-98382597D01*
X143447966Y-98341060D01*
X143627145Y-98296266D01*
X143757692Y-98296266D01*
X143936872Y-98341061D01*
X144019942Y-98382596D01*
X144101099Y-98463752D01*
X144142419Y-98587712D01*
X144142419Y-98666724D01*
X144101099Y-98790683D01*
X144076469Y-98815313D01*
X143813847Y-98815313D01*
X143813847Y-98674837D01*
X143810041Y-98655703D01*
X143782981Y-98628643D01*
X143744713Y-98628643D01*
X143717653Y-98655703D01*
X143713847Y-98674837D01*
X143713847Y-98865313D01*
X143717653Y-98884447D01*
X143744713Y-98911507D01*
X143763847Y-98915313D01*
X144097180Y-98915313D01*
X144116314Y-98911507D01*
X144132535Y-98900669D01*
X144180155Y-98853050D01*
X144181546Y-98850967D01*
X144182573Y-98850454D01*
X144186539Y-98843495D01*
X144190994Y-98836829D01*
X144190994Y-98835680D01*
X144192234Y-98833505D01*
X144239853Y-98690649D01*
X144240855Y-98682698D01*
X144242419Y-98674837D01*
X144242419Y-98579599D01*
X144240855Y-98571737D01*
X144239853Y-98563787D01*
X144192234Y-98420931D01*
X144190994Y-98418755D01*
X144190994Y-98417608D01*
X144186543Y-98410947D01*
X144182573Y-98403982D01*
X144181545Y-98403468D01*
X144180155Y-98401387D01*
X144084916Y-98306148D01*
X144078249Y-98301693D01*
X144071921Y-98296782D01*
X143976684Y-98249164D01*
X143971402Y-98247717D01*
X143966450Y-98245378D01*
X143775974Y-98197759D01*
X143769856Y-98197461D01*
X143763847Y-98196266D01*
X143620990Y-98196266D01*
X143614980Y-98197461D01*
X143608863Y-98197759D01*
X143418387Y-98245378D01*
X143413434Y-98247717D01*
X143408153Y-98249164D01*
X143312915Y-98296783D01*
X143306580Y-98301698D01*
X143299921Y-98306149D01*
X143204683Y-98401387D01*
X143203291Y-98403469D01*
X143202265Y-98403983D01*
X143198297Y-98410943D01*
X143193844Y-98417608D01*
X143193844Y-98418755D01*
X143192604Y-98420931D01*
X143144985Y-98563788D01*
X143143982Y-98571736D01*
X143142419Y-98579599D01*
X143031308Y-98579599D01*
X143031308Y-98085155D01*
X144353530Y-98085155D01*
X144353530Y-101074043D01*
G37*
G36*
X142708691Y-94794846D02*
G01*
X141386469Y-94794846D01*
X141386469Y-94205164D01*
X141497580Y-94205164D01*
X141497580Y-94300402D01*
X141499143Y-94308263D01*
X141500146Y-94316214D01*
X141547766Y-94459071D01*
X141549006Y-94461246D01*
X141549006Y-94462393D01*
X141553455Y-94469051D01*
X141557427Y-94476019D01*
X141558454Y-94476532D01*
X141559845Y-94478614D01*
X141655083Y-94573852D01*
X141661742Y-94578302D01*
X141668077Y-94583218D01*
X141763315Y-94630837D01*
X141768596Y-94632283D01*
X141773549Y-94634623D01*
X141964025Y-94682242D01*
X141970142Y-94682539D01*
X141976152Y-94683735D01*
X142119009Y-94683735D01*
X142125018Y-94682539D01*
X142131136Y-94682242D01*
X142321612Y-94634623D01*
X142326564Y-94632283D01*
X142331846Y-94630837D01*
X142427083Y-94583219D01*
X142433416Y-94578303D01*
X142440078Y-94573852D01*
X142535316Y-94478614D01*
X142536706Y-94476532D01*
X142537734Y-94476019D01*
X142541704Y-94469053D01*
X142546155Y-94462393D01*
X142546155Y-94461245D01*
X142547395Y-94459070D01*
X142595014Y-94316214D01*
X142596016Y-94308263D01*
X142597580Y-94300402D01*
X142597580Y-94205164D01*
X142596016Y-94197302D01*
X142595014Y-94189352D01*
X142547395Y-94046496D01*
X142546155Y-94044320D01*
X142546155Y-94043172D01*
X142541700Y-94036505D01*
X142537734Y-94029547D01*
X142536707Y-94029033D01*
X142535316Y-94026951D01*
X142487697Y-93979333D01*
X142471476Y-93968494D01*
X142433208Y-93968494D01*
X142406148Y-93995554D01*
X142406148Y-94033822D01*
X142416987Y-94050043D01*
X142456259Y-94089316D01*
X142497580Y-94213277D01*
X142497580Y-94292289D01*
X142456259Y-94416250D01*
X142375106Y-94497404D01*
X142292034Y-94538940D01*
X142112854Y-94583735D01*
X141982307Y-94583735D01*
X141803128Y-94538940D01*
X141720054Y-94497403D01*
X141638901Y-94416250D01*
X141597580Y-94292287D01*
X141597580Y-94213278D01*
X141638901Y-94089315D01*
X141678174Y-94050044D01*
X141689013Y-94033823D01*
X141689013Y-93995554D01*
X141661953Y-93968494D01*
X141623684Y-93968494D01*
X141607463Y-93979333D01*
X141559845Y-94026952D01*
X141558454Y-94029033D01*
X141557427Y-94029547D01*
X141553455Y-94036514D01*
X141549006Y-94043173D01*
X141549006Y-94044319D01*
X141547766Y-94046495D01*
X141500146Y-94189352D01*
X141499143Y-94197302D01*
X141497580Y-94205164D01*
X141386469Y-94205164D01*
X141386469Y-93062307D01*
X141497580Y-93062307D01*
X141497580Y-93681354D01*
X141501386Y-93700488D01*
X141528446Y-93727548D01*
X141566714Y-93727548D01*
X141582935Y-93716709D01*
X142146017Y-93153627D01*
X142269979Y-93112307D01*
X142345301Y-93112307D01*
X142422724Y-93151018D01*
X142458868Y-93187163D01*
X142497580Y-93264586D01*
X142497580Y-93479074D01*
X142458868Y-93556497D01*
X142416987Y-93598380D01*
X142406148Y-93614601D01*
X142406148Y-93652869D01*
X142433208Y-93679929D01*
X142471476Y-93679929D01*
X142487697Y-93669090D01*
X142535316Y-93621472D01*
X142539770Y-93614805D01*
X142544682Y-93608477D01*
X142592301Y-93513239D01*
X142592962Y-93510823D01*
X142593774Y-93510012D01*
X142595337Y-93502150D01*
X142597454Y-93494423D01*
X142597091Y-93493334D01*
X142597580Y-93490878D01*
X142597580Y-93252783D01*
X142597091Y-93250326D01*
X142597454Y-93249238D01*
X142595337Y-93241510D01*
X142593774Y-93233649D01*
X142592962Y-93232837D01*
X142592301Y-93230422D01*
X142544682Y-93135184D01*
X142539770Y-93128855D01*
X142535316Y-93122189D01*
X142487697Y-93074571D01*
X142481035Y-93070119D01*
X142474702Y-93065204D01*
X142379465Y-93017586D01*
X142377049Y-93016924D01*
X142376238Y-93016113D01*
X142368376Y-93014549D01*
X142360649Y-93012433D01*
X142359560Y-93012795D01*
X142357104Y-93012307D01*
X142261866Y-93012307D01*
X142254004Y-93013870D01*
X142246054Y-93014873D01*
X142103198Y-93062492D01*
X142101023Y-93063732D01*
X142099875Y-93063732D01*
X142093214Y-93068182D01*
X142086249Y-93072153D01*
X142085735Y-93073180D01*
X142083654Y-93074571D01*
X141597580Y-93560644D01*
X141597580Y-93062307D01*
X141593774Y-93043173D01*
X141566714Y-93016113D01*
X141528446Y-93016113D01*
X141501386Y-93043173D01*
X141497580Y-93062307D01*
X141386469Y-93062307D01*
X141386469Y-92233649D01*
X141501386Y-92233649D01*
X141501386Y-92271917D01*
X141528446Y-92298977D01*
X141547580Y-92302783D01*
X141878533Y-92302783D01*
X141878533Y-92633735D01*
X141882339Y-92652869D01*
X141909399Y-92679929D01*
X141947667Y-92679929D01*
X141974727Y-92652869D01*
X141978533Y-92633735D01*
X141978533Y-92302783D01*
X142309485Y-92302783D01*
X142328619Y-92298977D01*
X142355679Y-92271917D01*
X142355679Y-92233649D01*
X142328619Y-92206589D01*
X142309485Y-92202783D01*
X141978533Y-92202783D01*
X141978533Y-91871831D01*
X141974727Y-91852697D01*
X141947667Y-91825637D01*
X141909399Y-91825637D01*
X141882339Y-91852697D01*
X141878533Y-91871831D01*
X141878533Y-92202783D01*
X141547580Y-92202783D01*
X141528446Y-92206589D01*
X141501386Y-92233649D01*
X141386469Y-92233649D01*
X141386469Y-91714526D01*
X142708691Y-91714526D01*
X142708691Y-94794846D01*
G37*
G36*
X132842419Y-100471486D02*
G01*
X132801099Y-100595445D01*
X132719942Y-100676601D01*
X132636872Y-100718137D01*
X132457692Y-100762932D01*
X132327145Y-100762932D01*
X132147966Y-100718137D01*
X132064892Y-100676600D01*
X131983739Y-100595447D01*
X131942419Y-100471485D01*
X131942419Y-100291504D01*
X132842419Y-100291504D01*
X132842419Y-100471486D01*
G37*
G36*
X133053530Y-100974043D02*
G01*
X131731308Y-100974043D01*
X131731308Y-100241504D01*
X131842419Y-100241504D01*
X131842419Y-100479599D01*
X131843982Y-100487461D01*
X131844985Y-100495410D01*
X131892604Y-100638267D01*
X131893844Y-100640442D01*
X131893844Y-100641590D01*
X131898297Y-100648254D01*
X131902265Y-100655215D01*
X131903291Y-100655728D01*
X131904683Y-100657811D01*
X131999921Y-100753049D01*
X132006580Y-100757499D01*
X132012915Y-100762415D01*
X132108153Y-100810034D01*
X132113434Y-100811480D01*
X132118387Y-100813820D01*
X132308863Y-100861439D01*
X132314980Y-100861736D01*
X132320990Y-100862932D01*
X132463847Y-100862932D01*
X132469856Y-100861736D01*
X132475974Y-100861439D01*
X132666450Y-100813820D01*
X132671402Y-100811480D01*
X132676684Y-100810034D01*
X132771921Y-100762416D01*
X132778249Y-100757504D01*
X132784916Y-100753050D01*
X132880155Y-100657811D01*
X132881545Y-100655729D01*
X132882573Y-100655216D01*
X132886543Y-100648250D01*
X132890994Y-100641590D01*
X132890994Y-100640442D01*
X132892234Y-100638267D01*
X132939853Y-100495411D01*
X132940855Y-100487460D01*
X132942419Y-100479599D01*
X132942419Y-100241504D01*
X132938613Y-100222370D01*
X132911553Y-100195310D01*
X132892419Y-100191504D01*
X131892419Y-100191504D01*
X131873285Y-100195310D01*
X131846225Y-100222370D01*
X131842419Y-100241504D01*
X131731308Y-100241504D01*
X131731308Y-99187579D01*
X131842818Y-99187579D01*
X131846225Y-99200071D01*
X131846225Y-99213019D01*
X131851079Y-99217873D01*
X131852887Y-99224500D01*
X131867612Y-99237297D01*
X132704141Y-99715313D01*
X131892419Y-99715313D01*
X131873285Y-99719119D01*
X131846225Y-99746179D01*
X131846225Y-99784447D01*
X131873285Y-99811507D01*
X131892419Y-99815313D01*
X132892419Y-99815313D01*
X132911553Y-99811507D01*
X132916407Y-99806652D01*
X132923034Y-99804845D01*
X132929459Y-99793600D01*
X132938613Y-99784447D01*
X132938613Y-99777581D01*
X132942020Y-99771619D01*
X132938613Y-99759126D01*
X132938613Y-99746179D01*
X132933757Y-99741323D01*
X132931951Y-99734699D01*
X132917226Y-99721901D01*
X132080697Y-99243885D01*
X132892419Y-99243885D01*
X132911553Y-99240079D01*
X132938613Y-99213019D01*
X132938613Y-99174751D01*
X132911553Y-99147691D01*
X132892419Y-99143885D01*
X131892419Y-99143885D01*
X131873285Y-99147691D01*
X131868430Y-99152545D01*
X131861804Y-99154353D01*
X131855378Y-99165597D01*
X131846225Y-99174751D01*
X131846225Y-99181616D01*
X131842818Y-99187579D01*
X131731308Y-99187579D01*
X131731308Y-98479599D01*
X131842419Y-98479599D01*
X131842419Y-98622456D01*
X131842907Y-98624912D01*
X131842545Y-98626001D01*
X131844661Y-98633728D01*
X131846225Y-98641590D01*
X131847036Y-98642401D01*
X131847698Y-98644817D01*
X131895316Y-98740054D01*
X131907278Y-98755466D01*
X131943582Y-98767568D01*
X131977810Y-98750454D01*
X131989912Y-98714149D01*
X131984759Y-98695333D01*
X131942419Y-98610653D01*
X131942419Y-98487712D01*
X131983739Y-98363750D01*
X132064892Y-98282597D01*
X132147966Y-98241060D01*
X132327145Y-98196266D01*
X132457692Y-98196266D01*
X132636872Y-98241061D01*
X132719942Y-98282596D01*
X132801099Y-98363752D01*
X132842419Y-98487712D01*
X132842419Y-98566724D01*
X132801099Y-98690683D01*
X132776469Y-98715313D01*
X132513847Y-98715313D01*
X132513847Y-98574837D01*
X132510041Y-98555703D01*
X132482981Y-98528643D01*
X132444713Y-98528643D01*
X132417653Y-98555703D01*
X132413847Y-98574837D01*
X132413847Y-98765313D01*
X132417653Y-98784447D01*
X132444713Y-98811507D01*
X132463847Y-98815313D01*
X132797180Y-98815313D01*
X132816314Y-98811507D01*
X132832535Y-98800669D01*
X132880155Y-98753050D01*
X132881546Y-98750967D01*
X132882573Y-98750454D01*
X132886539Y-98743495D01*
X132890994Y-98736829D01*
X132890994Y-98735680D01*
X132892234Y-98733505D01*
X132939853Y-98590649D01*
X132940855Y-98582698D01*
X132942419Y-98574837D01*
X132942419Y-98479599D01*
X132940855Y-98471737D01*
X132939853Y-98463787D01*
X132892234Y-98320931D01*
X132890994Y-98318755D01*
X132890994Y-98317608D01*
X132886543Y-98310947D01*
X132882573Y-98303982D01*
X132881545Y-98303468D01*
X132880155Y-98301387D01*
X132784916Y-98206148D01*
X132778249Y-98201693D01*
X132771921Y-98196782D01*
X132676684Y-98149164D01*
X132671402Y-98147717D01*
X132666450Y-98145378D01*
X132475974Y-98097759D01*
X132469856Y-98097461D01*
X132463847Y-98096266D01*
X132320990Y-98096266D01*
X132314980Y-98097461D01*
X132308863Y-98097759D01*
X132118387Y-98145378D01*
X132113434Y-98147717D01*
X132108153Y-98149164D01*
X132012915Y-98196783D01*
X132006580Y-98201698D01*
X131999921Y-98206149D01*
X131904683Y-98301387D01*
X131903291Y-98303469D01*
X131902265Y-98303983D01*
X131898297Y-98310943D01*
X131893844Y-98317608D01*
X131893844Y-98318755D01*
X131892604Y-98320931D01*
X131844985Y-98463788D01*
X131843982Y-98471736D01*
X131842419Y-98479599D01*
X131731308Y-98479599D01*
X131731308Y-97985155D01*
X133053530Y-97985155D01*
X133053530Y-100974043D01*
G37*
G36*
X137953530Y-100370237D02*
G01*
X136631308Y-100370237D01*
X136631308Y-99927218D01*
X136742419Y-99927218D01*
X136742419Y-100022456D01*
X136743982Y-100030318D01*
X136744985Y-100038267D01*
X136792604Y-100181124D01*
X136793844Y-100183299D01*
X136793844Y-100184447D01*
X136798297Y-100191111D01*
X136802265Y-100198072D01*
X136803291Y-100198585D01*
X136804683Y-100200668D01*
X136852301Y-100248287D01*
X136868522Y-100259126D01*
X136906791Y-100259126D01*
X136933851Y-100232066D01*
X136933851Y-100193797D01*
X136923012Y-100177576D01*
X136883739Y-100138304D01*
X136842419Y-100014342D01*
X136842419Y-99935331D01*
X136883739Y-99811369D01*
X136964892Y-99730216D01*
X137047966Y-99688679D01*
X137227145Y-99643885D01*
X137357692Y-99643885D01*
X137536872Y-99688680D01*
X137619942Y-99730215D01*
X137701099Y-99811371D01*
X137742419Y-99935331D01*
X137742419Y-100014343D01*
X137701099Y-100138302D01*
X137661825Y-100177576D01*
X137650986Y-100193797D01*
X137650986Y-100232066D01*
X137678045Y-100259126D01*
X137716314Y-100259126D01*
X137732535Y-100248288D01*
X137780155Y-100200669D01*
X137781546Y-100198586D01*
X137782573Y-100198073D01*
X137786539Y-100191114D01*
X137790994Y-100184448D01*
X137790994Y-100183299D01*
X137792234Y-100181124D01*
X137839853Y-100038268D01*
X137840855Y-100030317D01*
X137842419Y-100022456D01*
X137842419Y-99927218D01*
X137840855Y-99919356D01*
X137839853Y-99911406D01*
X137792234Y-99768550D01*
X137790994Y-99766374D01*
X137790994Y-99765227D01*
X137786543Y-99758566D01*
X137782573Y-99751601D01*
X137781545Y-99751087D01*
X137780155Y-99749006D01*
X137684916Y-99653767D01*
X137678249Y-99649312D01*
X137671921Y-99644401D01*
X137576684Y-99596783D01*
X137571402Y-99595336D01*
X137566450Y-99592997D01*
X137375974Y-99545378D01*
X137369856Y-99545080D01*
X137363847Y-99543885D01*
X137220990Y-99543885D01*
X137214980Y-99545080D01*
X137208863Y-99545378D01*
X137018387Y-99592997D01*
X137013434Y-99595336D01*
X137008153Y-99596783D01*
X136912915Y-99644402D01*
X136906580Y-99649317D01*
X136899921Y-99653768D01*
X136804683Y-99749006D01*
X136803291Y-99751088D01*
X136802265Y-99751602D01*
X136798297Y-99758562D01*
X136793844Y-99765227D01*
X136793844Y-99766374D01*
X136792604Y-99768550D01*
X136744985Y-99911407D01*
X136743982Y-99919355D01*
X136742419Y-99927218D01*
X136631308Y-99927218D01*
X136631308Y-98587579D01*
X136742818Y-98587579D01*
X136746225Y-98600071D01*
X136746225Y-98613019D01*
X136751079Y-98617873D01*
X136752887Y-98624500D01*
X136767612Y-98637297D01*
X137604141Y-99115313D01*
X136792419Y-99115313D01*
X136773285Y-99119119D01*
X136746225Y-99146179D01*
X136746225Y-99184447D01*
X136773285Y-99211507D01*
X136792419Y-99215313D01*
X137792419Y-99215313D01*
X137811553Y-99211507D01*
X137816407Y-99206652D01*
X137823034Y-99204845D01*
X137829459Y-99193600D01*
X137838613Y-99184447D01*
X137838613Y-99177581D01*
X137842020Y-99171619D01*
X137838613Y-99159126D01*
X137838613Y-99146179D01*
X137833757Y-99141323D01*
X137831951Y-99134699D01*
X137817226Y-99121901D01*
X136980697Y-98643885D01*
X137792419Y-98643885D01*
X137811553Y-98640079D01*
X137838613Y-98613019D01*
X137838613Y-98574751D01*
X137811553Y-98547691D01*
X137792419Y-98543885D01*
X136792419Y-98543885D01*
X136773285Y-98547691D01*
X136768430Y-98552545D01*
X136761804Y-98554353D01*
X136755378Y-98565597D01*
X136746225Y-98574751D01*
X136746225Y-98581616D01*
X136742818Y-98587579D01*
X136631308Y-98587579D01*
X136631308Y-98432774D01*
X137953530Y-98432774D01*
X137953530Y-100370237D01*
G37*
G36*
X148096426Y-74160994D02*
G01*
X145918309Y-76339110D01*
X145404648Y-75825448D01*
X145600050Y-75825448D01*
X145600050Y-75863716D01*
X145627110Y-75890776D01*
X145665378Y-75890776D01*
X145681599Y-75879937D01*
X146220348Y-75341189D01*
X146231186Y-75324968D01*
X146231186Y-75286699D01*
X146204127Y-75259640D01*
X146165858Y-75259640D01*
X146149637Y-75270478D01*
X145610889Y-75809227D01*
X145600050Y-75825448D01*
X145404648Y-75825448D01*
X144983357Y-75404157D01*
X145856131Y-74531383D01*
X146101320Y-74531383D01*
X146101320Y-74598727D01*
X146102883Y-74606588D01*
X146103886Y-74614539D01*
X146137558Y-74715553D01*
X146138798Y-74717728D01*
X146138798Y-74718876D01*
X146143251Y-74725541D01*
X146147219Y-74732502D01*
X146148244Y-74733014D01*
X146149636Y-74735097D01*
X146216979Y-74802441D01*
X146223648Y-74806897D01*
X146229974Y-74811807D01*
X146364661Y-74879150D01*
X146367076Y-74879811D01*
X146367888Y-74880623D01*
X146375749Y-74882186D01*
X146383477Y-74884303D01*
X146384565Y-74883940D01*
X146387022Y-74884429D01*
X147074434Y-74884429D01*
X146722056Y-75236807D01*
X146711217Y-75253028D01*
X146711217Y-75291296D01*
X146738277Y-75318356D01*
X146776545Y-75318356D01*
X146792766Y-75307517D01*
X147230499Y-74869784D01*
X147241338Y-74853563D01*
X147241338Y-74815295D01*
X147214278Y-74788235D01*
X147195144Y-74784429D01*
X146398826Y-74784429D01*
X146281954Y-74725993D01*
X146228693Y-74672732D01*
X146201320Y-74590612D01*
X146201320Y-74539497D01*
X146228693Y-74457376D01*
X146380359Y-74305710D01*
X146462479Y-74278338D01*
X146521709Y-74278338D01*
X146540843Y-74274532D01*
X146567903Y-74247472D01*
X146567903Y-74209204D01*
X146540843Y-74182144D01*
X146521709Y-74178338D01*
X146454366Y-74178338D01*
X146446502Y-74179902D01*
X146438555Y-74180904D01*
X146337539Y-74214575D01*
X146335364Y-74215815D01*
X146334216Y-74215815D01*
X146327555Y-74220265D01*
X146320590Y-74224236D01*
X146320076Y-74225263D01*
X146317995Y-74226654D01*
X146149637Y-74395013D01*
X146148246Y-74397094D01*
X146147219Y-74397608D01*
X146143248Y-74404573D01*
X146138798Y-74411234D01*
X146138798Y-74412381D01*
X146137558Y-74414557D01*
X146103886Y-74515571D01*
X146102883Y-74523521D01*
X146101320Y-74531383D01*
X145856131Y-74531383D01*
X146495894Y-73891620D01*
X146741083Y-73891620D01*
X146741083Y-73958963D01*
X146744889Y-73978097D01*
X146771949Y-74005157D01*
X146810217Y-74005157D01*
X146837277Y-73978097D01*
X146841083Y-73958963D01*
X146841083Y-73903423D01*
X146899519Y-73786551D01*
X146955389Y-73730681D01*
X147072261Y-73672246D01*
X147187031Y-73672246D01*
X147275139Y-73701615D01*
X147433514Y-73796640D01*
X147525825Y-73888950D01*
X147620850Y-74047324D01*
X147650221Y-74135435D01*
X147650221Y-74250205D01*
X147591784Y-74367077D01*
X147535914Y-74422948D01*
X147419044Y-74481383D01*
X147363503Y-74481383D01*
X147344369Y-74485189D01*
X147317309Y-74512249D01*
X147317309Y-74550517D01*
X147344369Y-74577577D01*
X147363503Y-74581383D01*
X147430847Y-74581383D01*
X147433303Y-74580894D01*
X147434391Y-74581257D01*
X147442116Y-74579141D01*
X147449981Y-74577577D01*
X147450792Y-74576765D01*
X147453208Y-74576104D01*
X147587894Y-74508762D01*
X147594221Y-74503851D01*
X147600890Y-74499395D01*
X147668233Y-74432051D01*
X147672686Y-74425385D01*
X147677598Y-74419057D01*
X147744942Y-74284370D01*
X147745603Y-74281954D01*
X147746415Y-74281143D01*
X147747978Y-74273281D01*
X147750095Y-74265554D01*
X147749732Y-74264465D01*
X147750221Y-74262009D01*
X147750221Y-74127322D01*
X147748657Y-74119460D01*
X147747655Y-74111510D01*
X147713983Y-74010495D01*
X147711269Y-74005734D01*
X147709423Y-74000582D01*
X147608409Y-73832223D01*
X147604291Y-73827683D01*
X147600889Y-73822592D01*
X147499873Y-73721577D01*
X147494776Y-73718171D01*
X147490243Y-73714059D01*
X147321885Y-73613043D01*
X147316727Y-73611195D01*
X147311971Y-73608484D01*
X147210955Y-73574812D01*
X147203006Y-73573809D01*
X147195144Y-73572246D01*
X147060457Y-73572246D01*
X147058000Y-73572734D01*
X147056912Y-73572372D01*
X147049184Y-73574488D01*
X147041323Y-73576052D01*
X147040511Y-73576863D01*
X147038096Y-73577525D01*
X146903409Y-73644868D01*
X146897083Y-73649777D01*
X146890414Y-73654234D01*
X146823071Y-73721578D01*
X146818617Y-73728243D01*
X146813706Y-73734572D01*
X146746362Y-73869259D01*
X146745700Y-73871674D01*
X146744889Y-73872486D01*
X146743325Y-73880347D01*
X146741209Y-73888075D01*
X146741571Y-73889163D01*
X146741083Y-73891620D01*
X146495894Y-73891620D01*
X147161473Y-73226041D01*
X148096426Y-74160994D01*
G37*
G36*
X129653530Y-86865476D02*
G01*
X128331308Y-86865476D01*
X128331308Y-85946266D01*
X129061466Y-85946266D01*
X129061466Y-86708171D01*
X129065272Y-86727305D01*
X129092332Y-86754365D01*
X129130600Y-86754365D01*
X129157660Y-86727305D01*
X129161466Y-86708171D01*
X129161466Y-85946266D01*
X129157660Y-85927132D01*
X129130600Y-85900072D01*
X129092332Y-85900072D01*
X129065272Y-85927132D01*
X129061466Y-85946266D01*
X128331308Y-85946266D01*
X128331308Y-85241683D01*
X128443370Y-85241683D01*
X128446225Y-85245965D01*
X128446225Y-85251114D01*
X128456521Y-85261410D01*
X128464597Y-85273524D01*
X128469644Y-85274533D01*
X128473285Y-85278174D01*
X128492419Y-85281980D01*
X129442419Y-85281980D01*
X129442419Y-85517694D01*
X129446225Y-85536828D01*
X129473285Y-85563888D01*
X129511553Y-85563888D01*
X129538613Y-85536828D01*
X129542419Y-85517694D01*
X129542419Y-84946266D01*
X129538613Y-84927132D01*
X129511553Y-84900072D01*
X129473285Y-84900072D01*
X129446225Y-84927132D01*
X129442419Y-84946266D01*
X129442419Y-85181980D01*
X128657557Y-85181980D01*
X128663011Y-85178344D01*
X128666515Y-85174847D01*
X128670631Y-85172097D01*
X128765869Y-85076859D01*
X128770319Y-85070199D01*
X128775235Y-85063865D01*
X128822854Y-84968627D01*
X128828007Y-84949811D01*
X128815905Y-84913506D01*
X128781677Y-84896392D01*
X128745373Y-84908494D01*
X128733411Y-84923906D01*
X128689420Y-85011887D01*
X128603425Y-85097883D01*
X128464684Y-85190377D01*
X128450875Y-85204158D01*
X128449865Y-85209205D01*
X128446225Y-85212846D01*
X128446225Y-85227408D01*
X128443370Y-85241683D01*
X128331308Y-85241683D01*
X128331308Y-84279599D01*
X128442419Y-84279599D01*
X128442419Y-84374837D01*
X128443982Y-84382699D01*
X128444985Y-84390648D01*
X128492604Y-84533505D01*
X128493844Y-84535680D01*
X128493844Y-84536828D01*
X128498297Y-84543492D01*
X128502265Y-84550453D01*
X128503291Y-84550966D01*
X128504683Y-84553049D01*
X128552301Y-84600668D01*
X128568522Y-84611507D01*
X128606791Y-84611507D01*
X128633851Y-84584447D01*
X128633851Y-84546178D01*
X128623012Y-84529957D01*
X128583739Y-84490685D01*
X128542419Y-84366723D01*
X128542419Y-84287712D01*
X128583739Y-84163750D01*
X128664892Y-84082597D01*
X128747966Y-84041060D01*
X128927145Y-83996266D01*
X129057692Y-83996266D01*
X129236872Y-84041061D01*
X129319942Y-84082596D01*
X129401099Y-84163752D01*
X129442419Y-84287712D01*
X129442419Y-84366724D01*
X129401099Y-84490683D01*
X129361825Y-84529957D01*
X129350986Y-84546178D01*
X129350986Y-84584447D01*
X129378045Y-84611507D01*
X129416314Y-84611507D01*
X129432535Y-84600669D01*
X129480155Y-84553050D01*
X129481546Y-84550967D01*
X129482573Y-84550454D01*
X129486539Y-84543495D01*
X129490994Y-84536829D01*
X129490994Y-84535680D01*
X129492234Y-84533505D01*
X129539853Y-84390649D01*
X129540855Y-84382698D01*
X129542419Y-84374837D01*
X129542419Y-84279599D01*
X129540855Y-84271737D01*
X129539853Y-84263787D01*
X129492234Y-84120931D01*
X129490994Y-84118755D01*
X129490994Y-84117608D01*
X129486543Y-84110947D01*
X129482573Y-84103982D01*
X129481545Y-84103468D01*
X129480155Y-84101387D01*
X129384916Y-84006148D01*
X129378249Y-84001693D01*
X129371921Y-83996782D01*
X129276684Y-83949164D01*
X129271402Y-83947717D01*
X129266450Y-83945378D01*
X129075974Y-83897759D01*
X129069856Y-83897461D01*
X129063847Y-83896266D01*
X128920990Y-83896266D01*
X128914980Y-83897461D01*
X128908863Y-83897759D01*
X128718387Y-83945378D01*
X128713434Y-83947717D01*
X128708153Y-83949164D01*
X128612915Y-83996783D01*
X128606580Y-84001698D01*
X128599921Y-84006149D01*
X128504683Y-84101387D01*
X128503291Y-84103469D01*
X128502265Y-84103983D01*
X128498297Y-84110943D01*
X128493844Y-84117608D01*
X128493844Y-84118755D01*
X128492604Y-84120931D01*
X128444985Y-84263788D01*
X128443982Y-84271736D01*
X128442419Y-84279599D01*
X128331308Y-84279599D01*
X128331308Y-83785155D01*
X129653530Y-83785155D01*
X129653530Y-86865476D01*
G37*
G36*
X134703530Y-86020237D02*
G01*
X133381308Y-86020237D01*
X133381308Y-85577218D01*
X133492419Y-85577218D01*
X133492419Y-85672456D01*
X133493982Y-85680318D01*
X133494985Y-85688267D01*
X133542604Y-85831124D01*
X133543844Y-85833299D01*
X133543844Y-85834447D01*
X133548297Y-85841111D01*
X133552265Y-85848072D01*
X133553291Y-85848585D01*
X133554683Y-85850668D01*
X133602301Y-85898287D01*
X133618522Y-85909126D01*
X133656791Y-85909126D01*
X133683851Y-85882066D01*
X133683851Y-85843797D01*
X133673012Y-85827576D01*
X133633739Y-85788304D01*
X133592419Y-85664342D01*
X133592419Y-85585331D01*
X133633739Y-85461369D01*
X133714892Y-85380216D01*
X133797966Y-85338679D01*
X133977145Y-85293885D01*
X134107692Y-85293885D01*
X134286872Y-85338680D01*
X134369942Y-85380215D01*
X134451099Y-85461371D01*
X134492419Y-85585331D01*
X134492419Y-85664343D01*
X134451099Y-85788302D01*
X134411825Y-85827576D01*
X134400986Y-85843797D01*
X134400986Y-85882066D01*
X134428045Y-85909126D01*
X134466314Y-85909126D01*
X134482535Y-85898288D01*
X134530155Y-85850669D01*
X134531546Y-85848586D01*
X134532573Y-85848073D01*
X134536539Y-85841114D01*
X134540994Y-85834448D01*
X134540994Y-85833299D01*
X134542234Y-85831124D01*
X134589853Y-85688268D01*
X134590855Y-85680317D01*
X134592419Y-85672456D01*
X134592419Y-85577218D01*
X134590855Y-85569356D01*
X134589853Y-85561406D01*
X134542234Y-85418550D01*
X134540994Y-85416374D01*
X134540994Y-85415227D01*
X134536543Y-85408566D01*
X134532573Y-85401601D01*
X134531545Y-85401087D01*
X134530155Y-85399006D01*
X134434916Y-85303767D01*
X134428249Y-85299312D01*
X134421921Y-85294401D01*
X134326684Y-85246783D01*
X134321402Y-85245336D01*
X134316450Y-85242997D01*
X134125974Y-85195378D01*
X134119856Y-85195080D01*
X134113847Y-85193885D01*
X133970990Y-85193885D01*
X133964980Y-85195080D01*
X133958863Y-85195378D01*
X133768387Y-85242997D01*
X133763434Y-85245336D01*
X133758153Y-85246783D01*
X133662915Y-85294402D01*
X133656580Y-85299317D01*
X133649921Y-85303768D01*
X133554683Y-85399006D01*
X133553291Y-85401088D01*
X133552265Y-85401602D01*
X133548297Y-85408562D01*
X133543844Y-85415227D01*
X133543844Y-85416374D01*
X133542604Y-85418550D01*
X133494985Y-85561407D01*
X133493982Y-85569355D01*
X133492419Y-85577218D01*
X133381308Y-85577218D01*
X133381308Y-84237579D01*
X133492818Y-84237579D01*
X133496225Y-84250071D01*
X133496225Y-84263019D01*
X133501079Y-84267873D01*
X133502887Y-84274500D01*
X133517612Y-84287297D01*
X134354141Y-84765313D01*
X133542419Y-84765313D01*
X133523285Y-84769119D01*
X133496225Y-84796179D01*
X133496225Y-84834447D01*
X133523285Y-84861507D01*
X133542419Y-84865313D01*
X134542419Y-84865313D01*
X134561553Y-84861507D01*
X134566407Y-84856652D01*
X134573034Y-84854845D01*
X134579459Y-84843600D01*
X134588613Y-84834447D01*
X134588613Y-84827581D01*
X134592020Y-84821619D01*
X134588613Y-84809126D01*
X134588613Y-84796179D01*
X134583757Y-84791323D01*
X134581951Y-84784699D01*
X134567226Y-84771901D01*
X133730697Y-84293885D01*
X134542419Y-84293885D01*
X134561553Y-84290079D01*
X134588613Y-84263019D01*
X134588613Y-84224751D01*
X134561553Y-84197691D01*
X134542419Y-84193885D01*
X133542419Y-84193885D01*
X133523285Y-84197691D01*
X133518430Y-84202545D01*
X133511804Y-84204353D01*
X133505378Y-84215597D01*
X133496225Y-84224751D01*
X133496225Y-84231616D01*
X133492818Y-84237579D01*
X133381308Y-84237579D01*
X133381308Y-84082774D01*
X134703530Y-84082774D01*
X134703530Y-86020237D01*
G37*
G36*
X146666426Y-67530993D02*
G01*
X144488309Y-69709109D01*
X143974648Y-69195447D01*
X144170050Y-69195447D01*
X144170050Y-69233715D01*
X144197110Y-69260775D01*
X144235378Y-69260775D01*
X144251599Y-69249936D01*
X144790348Y-68711188D01*
X144801186Y-68694967D01*
X144801186Y-68656698D01*
X144774127Y-68629639D01*
X144735858Y-68629639D01*
X144719637Y-68640477D01*
X144180889Y-69179226D01*
X144170050Y-69195447D01*
X143974648Y-69195447D01*
X143553357Y-68774156D01*
X144584786Y-67742727D01*
X144773286Y-67742727D01*
X144776141Y-67747009D01*
X144776141Y-67752158D01*
X144786980Y-67768379D01*
X145458731Y-68440130D01*
X145292056Y-68606806D01*
X145281217Y-68623027D01*
X145281217Y-68661295D01*
X145308277Y-68688355D01*
X145346545Y-68688355D01*
X145362766Y-68677516D01*
X145766828Y-68273456D01*
X145777667Y-68257235D01*
X145777667Y-68218966D01*
X145750607Y-68191906D01*
X145712339Y-68191906D01*
X145696118Y-68202745D01*
X145529442Y-68369419D01*
X144974459Y-67814438D01*
X144980888Y-67815724D01*
X144985837Y-67815729D01*
X144990694Y-67816695D01*
X145125381Y-67816695D01*
X145133244Y-67815130D01*
X145141192Y-67814129D01*
X145242207Y-67780458D01*
X145259156Y-67770797D01*
X145276270Y-67736569D01*
X145264169Y-67700264D01*
X145229941Y-67683150D01*
X145210585Y-67685590D01*
X145117268Y-67716695D01*
X144995645Y-67716695D01*
X144832141Y-67683995D01*
X144812632Y-67683975D01*
X144808349Y-67686830D01*
X144803201Y-67686830D01*
X144792905Y-67697125D01*
X144780790Y-67705202D01*
X144779780Y-67710250D01*
X144776141Y-67713890D01*
X144776141Y-67728450D01*
X144773286Y-67742727D01*
X144584786Y-67742727D01*
X145065894Y-67261619D01*
X145311083Y-67261619D01*
X145311083Y-67328962D01*
X145314889Y-67348096D01*
X145341949Y-67375156D01*
X145380217Y-67375156D01*
X145407277Y-67348096D01*
X145411083Y-67328962D01*
X145411083Y-67273422D01*
X145469519Y-67156550D01*
X145525389Y-67100680D01*
X145642261Y-67042245D01*
X145757031Y-67042245D01*
X145845139Y-67071614D01*
X146003514Y-67166639D01*
X146095825Y-67258949D01*
X146190850Y-67417323D01*
X146220221Y-67505434D01*
X146220221Y-67620204D01*
X146161784Y-67737076D01*
X146105914Y-67792947D01*
X145989044Y-67851382D01*
X145933503Y-67851382D01*
X145914369Y-67855188D01*
X145887309Y-67882248D01*
X145887309Y-67920516D01*
X145914369Y-67947576D01*
X145933503Y-67951382D01*
X146000847Y-67951382D01*
X146003303Y-67950893D01*
X146004391Y-67951256D01*
X146012116Y-67949140D01*
X146019981Y-67947576D01*
X146020792Y-67946764D01*
X146023208Y-67946103D01*
X146157894Y-67878761D01*
X146164221Y-67873850D01*
X146170890Y-67869394D01*
X146238233Y-67802050D01*
X146242686Y-67795384D01*
X146247598Y-67789056D01*
X146314942Y-67654369D01*
X146315603Y-67651953D01*
X146316415Y-67651142D01*
X146317978Y-67643280D01*
X146320095Y-67635553D01*
X146319732Y-67634464D01*
X146320221Y-67632008D01*
X146320221Y-67497321D01*
X146318657Y-67489459D01*
X146317655Y-67481509D01*
X146283983Y-67380494D01*
X146281269Y-67375733D01*
X146279423Y-67370581D01*
X146178409Y-67202222D01*
X146174291Y-67197682D01*
X146170889Y-67192591D01*
X146069873Y-67091576D01*
X146064776Y-67088170D01*
X146060243Y-67084058D01*
X145891885Y-66983042D01*
X145886727Y-66981194D01*
X145881971Y-66978483D01*
X145780955Y-66944811D01*
X145773006Y-66943808D01*
X145765144Y-66942245D01*
X145630457Y-66942245D01*
X145628000Y-66942733D01*
X145626912Y-66942371D01*
X145619184Y-66944487D01*
X145611323Y-66946051D01*
X145610511Y-66946862D01*
X145608096Y-66947524D01*
X145473409Y-67014867D01*
X145467083Y-67019776D01*
X145460414Y-67024233D01*
X145393071Y-67091577D01*
X145388617Y-67098242D01*
X145383706Y-67104571D01*
X145316362Y-67239258D01*
X145315700Y-67241673D01*
X145314889Y-67242485D01*
X145313325Y-67250346D01*
X145311209Y-67258074D01*
X145311571Y-67259162D01*
X145311083Y-67261619D01*
X145065894Y-67261619D01*
X145731473Y-66596040D01*
X146666426Y-67530993D01*
G37*
G36*
X150576335Y-74181083D02*
G01*
X148597737Y-76159681D01*
X147662785Y-75224729D01*
X147666241Y-75221273D01*
X147840667Y-75221273D01*
X147852768Y-75257578D01*
X147868180Y-75269539D01*
X148810990Y-75740944D01*
X148829806Y-75746097D01*
X148833350Y-75744915D01*
X148836894Y-75746097D01*
X148851068Y-75739009D01*
X148866110Y-75733996D01*
X148867781Y-75730653D01*
X148871122Y-75728983D01*
X148876133Y-75713949D01*
X148883224Y-75699768D01*
X148882042Y-75696222D01*
X148883224Y-75692678D01*
X148878071Y-75673862D01*
X148406667Y-74731053D01*
X148394706Y-74715641D01*
X148358401Y-74703540D01*
X148324173Y-74720654D01*
X148312072Y-74756959D01*
X148317225Y-74775775D01*
X148721547Y-75584420D01*
X147912902Y-75180097D01*
X147894086Y-75174944D01*
X147857781Y-75187045D01*
X147840667Y-75221273D01*
X147666241Y-75221273D01*
X148369802Y-74517712D01*
X148614992Y-74517712D01*
X148614992Y-74585055D01*
X148616556Y-74592918D01*
X148617558Y-74600866D01*
X148651229Y-74701881D01*
X148652469Y-74704056D01*
X148652469Y-74705204D01*
X148656919Y-74711864D01*
X148660890Y-74718830D01*
X148661917Y-74719343D01*
X148663308Y-74721425D01*
X148730652Y-74788769D01*
X148737314Y-74793221D01*
X148743646Y-74798135D01*
X148878333Y-74865478D01*
X148880748Y-74866139D01*
X148881560Y-74866951D01*
X148889421Y-74868514D01*
X148897149Y-74870631D01*
X148898237Y-74870268D01*
X148900694Y-74870757D01*
X149588106Y-74870757D01*
X149235728Y-75223135D01*
X149224889Y-75239356D01*
X149224889Y-75277624D01*
X149251949Y-75304684D01*
X149290217Y-75304684D01*
X149306438Y-75293845D01*
X149744171Y-74856112D01*
X149755010Y-74839891D01*
X149755010Y-74801623D01*
X149727950Y-74774563D01*
X149708816Y-74770757D01*
X148912498Y-74770757D01*
X148795623Y-74712320D01*
X148742364Y-74659061D01*
X148714992Y-74576942D01*
X148714992Y-74525824D01*
X148742364Y-74443704D01*
X148894030Y-74292039D01*
X148976150Y-74264666D01*
X149035381Y-74264666D01*
X149054515Y-74260860D01*
X149081575Y-74233800D01*
X149081575Y-74195532D01*
X149054515Y-74168472D01*
X149035381Y-74164666D01*
X148968037Y-74164666D01*
X148960175Y-74166229D01*
X148952225Y-74167232D01*
X148851210Y-74200904D01*
X148849035Y-74202144D01*
X148847888Y-74202144D01*
X148841225Y-74206595D01*
X148834262Y-74210565D01*
X148833749Y-74211590D01*
X148831667Y-74212982D01*
X148663308Y-74381341D01*
X148661917Y-74383422D01*
X148660890Y-74383936D01*
X148656919Y-74390901D01*
X148652469Y-74397562D01*
X148652469Y-74398709D01*
X148651229Y-74400885D01*
X148617558Y-74501901D01*
X148616556Y-74509848D01*
X148614992Y-74517712D01*
X148369802Y-74517712D01*
X149201893Y-73685621D01*
X149390393Y-73685621D01*
X149393248Y-73689903D01*
X149393248Y-73695052D01*
X149404087Y-73711273D01*
X150075837Y-74383024D01*
X149909163Y-74549700D01*
X149898324Y-74565921D01*
X149898324Y-74604189D01*
X149925384Y-74631249D01*
X149963652Y-74631249D01*
X149979873Y-74620410D01*
X150383935Y-74216349D01*
X150394773Y-74200128D01*
X150394773Y-74161859D01*
X150367714Y-74134800D01*
X150329445Y-74134800D01*
X150313224Y-74145638D01*
X150146548Y-74312313D01*
X149591566Y-73757332D01*
X149597995Y-73758618D01*
X149602944Y-73758623D01*
X149607801Y-73759589D01*
X149742488Y-73759589D01*
X149750351Y-73758024D01*
X149758299Y-73757023D01*
X149859314Y-73723352D01*
X149876263Y-73713691D01*
X149893377Y-73679463D01*
X149881276Y-73643158D01*
X149847048Y-73626044D01*
X149827692Y-73628484D01*
X149734375Y-73659589D01*
X149612752Y-73659589D01*
X149449248Y-73626889D01*
X149429739Y-73626869D01*
X149425456Y-73629724D01*
X149420308Y-73629724D01*
X149410012Y-73640019D01*
X149397897Y-73648096D01*
X149396887Y-73653144D01*
X149393248Y-73656784D01*
X149393248Y-73671344D01*
X149390393Y-73685621D01*
X149201893Y-73685621D01*
X149641383Y-73246131D01*
X150576335Y-74181083D01*
G37*
G36*
X126753530Y-100470237D02*
G01*
X125431308Y-100470237D01*
X125431308Y-100027218D01*
X125542419Y-100027218D01*
X125542419Y-100122456D01*
X125543982Y-100130318D01*
X125544985Y-100138267D01*
X125592604Y-100281124D01*
X125593844Y-100283299D01*
X125593844Y-100284447D01*
X125598297Y-100291111D01*
X125602265Y-100298072D01*
X125603291Y-100298585D01*
X125604683Y-100300668D01*
X125652301Y-100348287D01*
X125668522Y-100359126D01*
X125706791Y-100359126D01*
X125733851Y-100332066D01*
X125733851Y-100293797D01*
X125723012Y-100277576D01*
X125683739Y-100238304D01*
X125642419Y-100114342D01*
X125642419Y-100035331D01*
X125683739Y-99911369D01*
X125764892Y-99830216D01*
X125847966Y-99788679D01*
X126027145Y-99743885D01*
X126157692Y-99743885D01*
X126336872Y-99788680D01*
X126419942Y-99830215D01*
X126501099Y-99911371D01*
X126542419Y-100035331D01*
X126542419Y-100114343D01*
X126501099Y-100238302D01*
X126461825Y-100277576D01*
X126450986Y-100293797D01*
X126450986Y-100332066D01*
X126478045Y-100359126D01*
X126516314Y-100359126D01*
X126532535Y-100348288D01*
X126580155Y-100300669D01*
X126581546Y-100298586D01*
X126582573Y-100298073D01*
X126586539Y-100291114D01*
X126590994Y-100284448D01*
X126590994Y-100283299D01*
X126592234Y-100281124D01*
X126639853Y-100138268D01*
X126640855Y-100130317D01*
X126642419Y-100122456D01*
X126642419Y-100027218D01*
X126640855Y-100019356D01*
X126639853Y-100011406D01*
X126592234Y-99868550D01*
X126590994Y-99866374D01*
X126590994Y-99865227D01*
X126586543Y-99858566D01*
X126582573Y-99851601D01*
X126581545Y-99851087D01*
X126580155Y-99849006D01*
X126484916Y-99753767D01*
X126478249Y-99749312D01*
X126471921Y-99744401D01*
X126376684Y-99696783D01*
X126371402Y-99695336D01*
X126366450Y-99692997D01*
X126175974Y-99645378D01*
X126169856Y-99645080D01*
X126163847Y-99643885D01*
X126020990Y-99643885D01*
X126014980Y-99645080D01*
X126008863Y-99645378D01*
X125818387Y-99692997D01*
X125813434Y-99695336D01*
X125808153Y-99696783D01*
X125712915Y-99744402D01*
X125706580Y-99749317D01*
X125699921Y-99753768D01*
X125604683Y-99849006D01*
X125603291Y-99851088D01*
X125602265Y-99851602D01*
X125598297Y-99858562D01*
X125593844Y-99865227D01*
X125593844Y-99866374D01*
X125592604Y-99868550D01*
X125544985Y-100011407D01*
X125543982Y-100019355D01*
X125542419Y-100027218D01*
X125431308Y-100027218D01*
X125431308Y-98687579D01*
X125542818Y-98687579D01*
X125546225Y-98700071D01*
X125546225Y-98713019D01*
X125551079Y-98717873D01*
X125552887Y-98724500D01*
X125567612Y-98737297D01*
X126404141Y-99215313D01*
X125592419Y-99215313D01*
X125573285Y-99219119D01*
X125546225Y-99246179D01*
X125546225Y-99284447D01*
X125573285Y-99311507D01*
X125592419Y-99315313D01*
X126592419Y-99315313D01*
X126611553Y-99311507D01*
X126616407Y-99306652D01*
X126623034Y-99304845D01*
X126629459Y-99293600D01*
X126638613Y-99284447D01*
X126638613Y-99277581D01*
X126642020Y-99271619D01*
X126638613Y-99259126D01*
X126638613Y-99246179D01*
X126633757Y-99241323D01*
X126631951Y-99234699D01*
X126617226Y-99221901D01*
X125780697Y-98743885D01*
X126592419Y-98743885D01*
X126611553Y-98740079D01*
X126638613Y-98713019D01*
X126638613Y-98674751D01*
X126611553Y-98647691D01*
X126592419Y-98643885D01*
X125592419Y-98643885D01*
X125573285Y-98647691D01*
X125568430Y-98652545D01*
X125561804Y-98654353D01*
X125555378Y-98665597D01*
X125546225Y-98674751D01*
X125546225Y-98681616D01*
X125542818Y-98687579D01*
X125431308Y-98687579D01*
X125431308Y-98532774D01*
X126753530Y-98532774D01*
X126753530Y-100470237D01*
G37*
G36*
X140442419Y-86271486D02*
G01*
X140401099Y-86395445D01*
X140319942Y-86476601D01*
X140236872Y-86518137D01*
X140057692Y-86562932D01*
X139927145Y-86562932D01*
X139747966Y-86518137D01*
X139664892Y-86476600D01*
X139583739Y-86395447D01*
X139542419Y-86271485D01*
X139542419Y-86091504D01*
X140442419Y-86091504D01*
X140442419Y-86271486D01*
G37*
G36*
X140653530Y-86774043D02*
G01*
X139331308Y-86774043D01*
X139331308Y-86041504D01*
X139442419Y-86041504D01*
X139442419Y-86279599D01*
X139443982Y-86287461D01*
X139444985Y-86295410D01*
X139492604Y-86438267D01*
X139493844Y-86440442D01*
X139493844Y-86441590D01*
X139498297Y-86448254D01*
X139502265Y-86455215D01*
X139503291Y-86455728D01*
X139504683Y-86457811D01*
X139599921Y-86553049D01*
X139606580Y-86557499D01*
X139612915Y-86562415D01*
X139708153Y-86610034D01*
X139713434Y-86611480D01*
X139718387Y-86613820D01*
X139908863Y-86661439D01*
X139914980Y-86661736D01*
X139920990Y-86662932D01*
X140063847Y-86662932D01*
X140069856Y-86661736D01*
X140075974Y-86661439D01*
X140266450Y-86613820D01*
X140271402Y-86611480D01*
X140276684Y-86610034D01*
X140371921Y-86562416D01*
X140378249Y-86557504D01*
X140384916Y-86553050D01*
X140480155Y-86457811D01*
X140481545Y-86455729D01*
X140482573Y-86455216D01*
X140486543Y-86448250D01*
X140490994Y-86441590D01*
X140490994Y-86440442D01*
X140492234Y-86438267D01*
X140539853Y-86295411D01*
X140540855Y-86287460D01*
X140542419Y-86279599D01*
X140542419Y-86041504D01*
X140538613Y-86022370D01*
X140511553Y-85995310D01*
X140492419Y-85991504D01*
X139492419Y-85991504D01*
X139473285Y-85995310D01*
X139446225Y-86022370D01*
X139442419Y-86041504D01*
X139331308Y-86041504D01*
X139331308Y-84987579D01*
X139442818Y-84987579D01*
X139446225Y-85000071D01*
X139446225Y-85013019D01*
X139451079Y-85017873D01*
X139452887Y-85024500D01*
X139467612Y-85037297D01*
X140304141Y-85515313D01*
X139492419Y-85515313D01*
X139473285Y-85519119D01*
X139446225Y-85546179D01*
X139446225Y-85584447D01*
X139473285Y-85611507D01*
X139492419Y-85615313D01*
X140492419Y-85615313D01*
X140511553Y-85611507D01*
X140516407Y-85606652D01*
X140523034Y-85604845D01*
X140529459Y-85593600D01*
X140538613Y-85584447D01*
X140538613Y-85577581D01*
X140542020Y-85571619D01*
X140538613Y-85559126D01*
X140538613Y-85546179D01*
X140533757Y-85541323D01*
X140531951Y-85534699D01*
X140517226Y-85521901D01*
X139680697Y-85043885D01*
X140492419Y-85043885D01*
X140511553Y-85040079D01*
X140538613Y-85013019D01*
X140538613Y-84974751D01*
X140511553Y-84947691D01*
X140492419Y-84943885D01*
X139492419Y-84943885D01*
X139473285Y-84947691D01*
X139468430Y-84952545D01*
X139461804Y-84954353D01*
X139455378Y-84965597D01*
X139446225Y-84974751D01*
X139446225Y-84981616D01*
X139442818Y-84987579D01*
X139331308Y-84987579D01*
X139331308Y-84279599D01*
X139442419Y-84279599D01*
X139442419Y-84422456D01*
X139442907Y-84424912D01*
X139442545Y-84426001D01*
X139444661Y-84433728D01*
X139446225Y-84441590D01*
X139447036Y-84442401D01*
X139447698Y-84444817D01*
X139495316Y-84540054D01*
X139507278Y-84555466D01*
X139543582Y-84567568D01*
X139577810Y-84550454D01*
X139589912Y-84514149D01*
X139584759Y-84495333D01*
X139542419Y-84410653D01*
X139542419Y-84287712D01*
X139583739Y-84163750D01*
X139664892Y-84082597D01*
X139747966Y-84041060D01*
X139927145Y-83996266D01*
X140057692Y-83996266D01*
X140236872Y-84041061D01*
X140319942Y-84082596D01*
X140401099Y-84163752D01*
X140442419Y-84287712D01*
X140442419Y-84366724D01*
X140401099Y-84490683D01*
X140376469Y-84515313D01*
X140113847Y-84515313D01*
X140113847Y-84374837D01*
X140110041Y-84355703D01*
X140082981Y-84328643D01*
X140044713Y-84328643D01*
X140017653Y-84355703D01*
X140013847Y-84374837D01*
X140013847Y-84565313D01*
X140017653Y-84584447D01*
X140044713Y-84611507D01*
X140063847Y-84615313D01*
X140397180Y-84615313D01*
X140416314Y-84611507D01*
X140432535Y-84600669D01*
X140480155Y-84553050D01*
X140481546Y-84550967D01*
X140482573Y-84550454D01*
X140486539Y-84543495D01*
X140490994Y-84536829D01*
X140490994Y-84535680D01*
X140492234Y-84533505D01*
X140539853Y-84390649D01*
X140540855Y-84382698D01*
X140542419Y-84374837D01*
X140542419Y-84279599D01*
X140540855Y-84271737D01*
X140539853Y-84263787D01*
X140492234Y-84120931D01*
X140490994Y-84118755D01*
X140490994Y-84117608D01*
X140486543Y-84110947D01*
X140482573Y-84103982D01*
X140481545Y-84103468D01*
X140480155Y-84101387D01*
X140384916Y-84006148D01*
X140378249Y-84001693D01*
X140371921Y-83996782D01*
X140276684Y-83949164D01*
X140271402Y-83947717D01*
X140266450Y-83945378D01*
X140075974Y-83897759D01*
X140069856Y-83897461D01*
X140063847Y-83896266D01*
X139920990Y-83896266D01*
X139914980Y-83897461D01*
X139908863Y-83897759D01*
X139718387Y-83945378D01*
X139713434Y-83947717D01*
X139708153Y-83949164D01*
X139612915Y-83996783D01*
X139606580Y-84001698D01*
X139599921Y-84006149D01*
X139504683Y-84101387D01*
X139503291Y-84103469D01*
X139502265Y-84103983D01*
X139498297Y-84110943D01*
X139493844Y-84117608D01*
X139493844Y-84118755D01*
X139492604Y-84120931D01*
X139444985Y-84263788D01*
X139443982Y-84271736D01*
X139442419Y-84279599D01*
X139331308Y-84279599D01*
X139331308Y-83785155D01*
X140653530Y-83785155D01*
X140653530Y-86774043D01*
G37*
G36*
X131053530Y-94765476D02*
G01*
X129731308Y-94765476D01*
X129731308Y-94208084D01*
X130084320Y-94208084D01*
X130084320Y-94246352D01*
X130111380Y-94273412D01*
X130130514Y-94277218D01*
X130461466Y-94277218D01*
X130461466Y-94608171D01*
X130465272Y-94627305D01*
X130492332Y-94654365D01*
X130530600Y-94654365D01*
X130557660Y-94627305D01*
X130561466Y-94608171D01*
X130561466Y-94277218D01*
X130892419Y-94277218D01*
X130911553Y-94273412D01*
X130938613Y-94246352D01*
X130938613Y-94208084D01*
X130911553Y-94181024D01*
X130892419Y-94177218D01*
X130561466Y-94177218D01*
X130561466Y-93846266D01*
X130557660Y-93827132D01*
X130530600Y-93800072D01*
X130492332Y-93800072D01*
X130465272Y-93827132D01*
X130461466Y-93846266D01*
X130461466Y-94177218D01*
X130130514Y-94177218D01*
X130111380Y-94181024D01*
X130084320Y-94208084D01*
X129731308Y-94208084D01*
X129731308Y-93141683D01*
X129843370Y-93141683D01*
X129846225Y-93145965D01*
X129846225Y-93151114D01*
X129856521Y-93161410D01*
X129864597Y-93173524D01*
X129869644Y-93174533D01*
X129873285Y-93178174D01*
X129892419Y-93181980D01*
X130842419Y-93181980D01*
X130842419Y-93417694D01*
X130846225Y-93436828D01*
X130873285Y-93463888D01*
X130911553Y-93463888D01*
X130938613Y-93436828D01*
X130942419Y-93417694D01*
X130942419Y-92846266D01*
X130938613Y-92827132D01*
X130911553Y-92800072D01*
X130873285Y-92800072D01*
X130846225Y-92827132D01*
X130842419Y-92846266D01*
X130842419Y-93081980D01*
X130057557Y-93081980D01*
X130063011Y-93078344D01*
X130066515Y-93074847D01*
X130070631Y-93072097D01*
X130165869Y-92976859D01*
X130170319Y-92970199D01*
X130175235Y-92963865D01*
X130222854Y-92868627D01*
X130228007Y-92849811D01*
X130215905Y-92813506D01*
X130181677Y-92796392D01*
X130145373Y-92808494D01*
X130133411Y-92823906D01*
X130089420Y-92911887D01*
X130003425Y-92997883D01*
X129864684Y-93090377D01*
X129850875Y-93104158D01*
X129849865Y-93109205D01*
X129846225Y-93112846D01*
X129846225Y-93127408D01*
X129843370Y-93141683D01*
X129731308Y-93141683D01*
X129731308Y-92179599D01*
X129842419Y-92179599D01*
X129842419Y-92274837D01*
X129843982Y-92282699D01*
X129844985Y-92290648D01*
X129892604Y-92433505D01*
X129893844Y-92435680D01*
X129893844Y-92436828D01*
X129898297Y-92443492D01*
X129902265Y-92450453D01*
X129903291Y-92450966D01*
X129904683Y-92453049D01*
X129952301Y-92500668D01*
X129968522Y-92511507D01*
X130006791Y-92511507D01*
X130033851Y-92484447D01*
X130033851Y-92446178D01*
X130023012Y-92429957D01*
X129983739Y-92390685D01*
X129942419Y-92266723D01*
X129942419Y-92187712D01*
X129983739Y-92063750D01*
X130064892Y-91982597D01*
X130147966Y-91941060D01*
X130327145Y-91896266D01*
X130457692Y-91896266D01*
X130636872Y-91941061D01*
X130719942Y-91982596D01*
X130801099Y-92063752D01*
X130842419Y-92187712D01*
X130842419Y-92266724D01*
X130801099Y-92390683D01*
X130761825Y-92429957D01*
X130750986Y-92446178D01*
X130750986Y-92484447D01*
X130778045Y-92511507D01*
X130816314Y-92511507D01*
X130832535Y-92500669D01*
X130880155Y-92453050D01*
X130881546Y-92450967D01*
X130882573Y-92450454D01*
X130886539Y-92443495D01*
X130890994Y-92436829D01*
X130890994Y-92435680D01*
X130892234Y-92433505D01*
X130939853Y-92290649D01*
X130940855Y-92282698D01*
X130942419Y-92274837D01*
X130942419Y-92179599D01*
X130940855Y-92171737D01*
X130939853Y-92163787D01*
X130892234Y-92020931D01*
X130890994Y-92018755D01*
X130890994Y-92017608D01*
X130886543Y-92010947D01*
X130882573Y-92003982D01*
X130881545Y-92003468D01*
X130880155Y-92001387D01*
X130784916Y-91906148D01*
X130778249Y-91901693D01*
X130771921Y-91896782D01*
X130676684Y-91849164D01*
X130671402Y-91847717D01*
X130666450Y-91845378D01*
X130475974Y-91797759D01*
X130469856Y-91797461D01*
X130463847Y-91796266D01*
X130320990Y-91796266D01*
X130314980Y-91797461D01*
X130308863Y-91797759D01*
X130118387Y-91845378D01*
X130113434Y-91847717D01*
X130108153Y-91849164D01*
X130012915Y-91896783D01*
X130006580Y-91901698D01*
X129999921Y-91906149D01*
X129904683Y-92001387D01*
X129903291Y-92003469D01*
X129902265Y-92003983D01*
X129898297Y-92010943D01*
X129893844Y-92017608D01*
X129893844Y-92018755D01*
X129892604Y-92020931D01*
X129844985Y-92163788D01*
X129843982Y-92171736D01*
X129842419Y-92179599D01*
X129731308Y-92179599D01*
X129731308Y-91685155D01*
X131053530Y-91685155D01*
X131053530Y-94765476D01*
G37*
G36*
X145776426Y-73880994D02*
G01*
X143598309Y-76059110D01*
X142663357Y-75124157D01*
X142780814Y-75006700D01*
X143280050Y-75006700D01*
X143280050Y-75044968D01*
X143290889Y-75061189D01*
X143524907Y-75295208D01*
X143290889Y-75529227D01*
X143280050Y-75545448D01*
X143280050Y-75583716D01*
X143307110Y-75610776D01*
X143345378Y-75610776D01*
X143361599Y-75599937D01*
X143595617Y-75365918D01*
X143829637Y-75599938D01*
X143845858Y-75610776D01*
X143884127Y-75610776D01*
X143911186Y-75583717D01*
X143911186Y-75545448D01*
X143900348Y-75529227D01*
X143666328Y-75295208D01*
X143900348Y-75061189D01*
X143911186Y-75044968D01*
X143911186Y-75006699D01*
X143884127Y-74979640D01*
X143845858Y-74979640D01*
X143829637Y-74990478D01*
X143595617Y-75224497D01*
X143361599Y-74990479D01*
X143345378Y-74979640D01*
X143307110Y-74979640D01*
X143280050Y-75006700D01*
X142780814Y-75006700D01*
X143694786Y-74092728D01*
X143883286Y-74092728D01*
X143886141Y-74097010D01*
X143886141Y-74102159D01*
X143896980Y-74118380D01*
X144568731Y-74790131D01*
X144402056Y-74956807D01*
X144391217Y-74973028D01*
X144391217Y-75011296D01*
X144418277Y-75038356D01*
X144456545Y-75038356D01*
X144472766Y-75027517D01*
X144876828Y-74623457D01*
X144887667Y-74607236D01*
X144887667Y-74568967D01*
X144860607Y-74541907D01*
X144822339Y-74541907D01*
X144806118Y-74552746D01*
X144639442Y-74719420D01*
X144084459Y-74164439D01*
X144090888Y-74165725D01*
X144095837Y-74165730D01*
X144100694Y-74166696D01*
X144235381Y-74166696D01*
X144243244Y-74165131D01*
X144251192Y-74164130D01*
X144352207Y-74130459D01*
X144369156Y-74120798D01*
X144386270Y-74086570D01*
X144374169Y-74050265D01*
X144339941Y-74033151D01*
X144320585Y-74035591D01*
X144227268Y-74066696D01*
X144105645Y-74066696D01*
X143942141Y-74033996D01*
X143922632Y-74033976D01*
X143918349Y-74036831D01*
X143913201Y-74036831D01*
X143902905Y-74047126D01*
X143890790Y-74055203D01*
X143889780Y-74060251D01*
X143886141Y-74063891D01*
X143886141Y-74078451D01*
X143883286Y-74092728D01*
X143694786Y-74092728D01*
X144175894Y-73611620D01*
X144421083Y-73611620D01*
X144421083Y-73678963D01*
X144424889Y-73698097D01*
X144451949Y-73725157D01*
X144490217Y-73725157D01*
X144517277Y-73698097D01*
X144521083Y-73678963D01*
X144521083Y-73623423D01*
X144579519Y-73506551D01*
X144635389Y-73450681D01*
X144752261Y-73392246D01*
X144867031Y-73392246D01*
X144955139Y-73421615D01*
X145113514Y-73516640D01*
X145205825Y-73608950D01*
X145300850Y-73767324D01*
X145330221Y-73855435D01*
X145330221Y-73970205D01*
X145271784Y-74087077D01*
X145215914Y-74142948D01*
X145099044Y-74201383D01*
X145043503Y-74201383D01*
X145024369Y-74205189D01*
X144997309Y-74232249D01*
X144997309Y-74270517D01*
X145024369Y-74297577D01*
X145043503Y-74301383D01*
X145110847Y-74301383D01*
X145113303Y-74300894D01*
X145114391Y-74301257D01*
X145122116Y-74299141D01*
X145129981Y-74297577D01*
X145130792Y-74296765D01*
X145133208Y-74296104D01*
X145267894Y-74228762D01*
X145274221Y-74223851D01*
X145280890Y-74219395D01*
X145348233Y-74152051D01*
X145352686Y-74145385D01*
X145357598Y-74139057D01*
X145424942Y-74004370D01*
X145425603Y-74001954D01*
X145426415Y-74001143D01*
X145427978Y-73993281D01*
X145430095Y-73985554D01*
X145429732Y-73984465D01*
X145430221Y-73982009D01*
X145430221Y-73847322D01*
X145428657Y-73839460D01*
X145427655Y-73831510D01*
X145393983Y-73730495D01*
X145391269Y-73725734D01*
X145389423Y-73720582D01*
X145288409Y-73552223D01*
X145284291Y-73547683D01*
X145280889Y-73542592D01*
X145179873Y-73441577D01*
X145174776Y-73438171D01*
X145170243Y-73434059D01*
X145001885Y-73333043D01*
X144996727Y-73331195D01*
X144991971Y-73328484D01*
X144890955Y-73294812D01*
X144883006Y-73293809D01*
X144875144Y-73292246D01*
X144740457Y-73292246D01*
X144738000Y-73292734D01*
X144736912Y-73292372D01*
X144729184Y-73294488D01*
X144721323Y-73296052D01*
X144720511Y-73296863D01*
X144718096Y-73297525D01*
X144583409Y-73364868D01*
X144577083Y-73369777D01*
X144570414Y-73374234D01*
X144503071Y-73441578D01*
X144498617Y-73448243D01*
X144493706Y-73454572D01*
X144426362Y-73589259D01*
X144425700Y-73591674D01*
X144424889Y-73592486D01*
X144423325Y-73600347D01*
X144421209Y-73608075D01*
X144421571Y-73609163D01*
X144421083Y-73611620D01*
X144175894Y-73611620D01*
X144841473Y-72946041D01*
X145776426Y-73880994D01*
G37*
G36*
X132253530Y-86765476D02*
G01*
X130931308Y-86765476D01*
X130931308Y-86208084D01*
X131284320Y-86208084D01*
X131284320Y-86246352D01*
X131311380Y-86273412D01*
X131330514Y-86277218D01*
X131661466Y-86277218D01*
X131661466Y-86608171D01*
X131665272Y-86627305D01*
X131692332Y-86654365D01*
X131730600Y-86654365D01*
X131757660Y-86627305D01*
X131761466Y-86608171D01*
X131761466Y-86277218D01*
X132092419Y-86277218D01*
X132111553Y-86273412D01*
X132138613Y-86246352D01*
X132138613Y-86208084D01*
X132111553Y-86181024D01*
X132092419Y-86177218D01*
X131761466Y-86177218D01*
X131761466Y-85846266D01*
X131757660Y-85827132D01*
X131730600Y-85800072D01*
X131692332Y-85800072D01*
X131665272Y-85827132D01*
X131661466Y-85846266D01*
X131661466Y-86177218D01*
X131330514Y-86177218D01*
X131311380Y-86181024D01*
X131284320Y-86208084D01*
X130931308Y-86208084D01*
X130931308Y-85141683D01*
X131043370Y-85141683D01*
X131046225Y-85145965D01*
X131046225Y-85151114D01*
X131056521Y-85161410D01*
X131064597Y-85173524D01*
X131069644Y-85174533D01*
X131073285Y-85178174D01*
X131092419Y-85181980D01*
X132042419Y-85181980D01*
X132042419Y-85417694D01*
X132046225Y-85436828D01*
X132073285Y-85463888D01*
X132111553Y-85463888D01*
X132138613Y-85436828D01*
X132142419Y-85417694D01*
X132142419Y-84846266D01*
X132138613Y-84827132D01*
X132111553Y-84800072D01*
X132073285Y-84800072D01*
X132046225Y-84827132D01*
X132042419Y-84846266D01*
X132042419Y-85081980D01*
X131257557Y-85081980D01*
X131263011Y-85078344D01*
X131266515Y-85074847D01*
X131270631Y-85072097D01*
X131365869Y-84976859D01*
X131370319Y-84970199D01*
X131375235Y-84963865D01*
X131422854Y-84868627D01*
X131428007Y-84849811D01*
X131415905Y-84813506D01*
X131381677Y-84796392D01*
X131345373Y-84808494D01*
X131333411Y-84823906D01*
X131289420Y-84911887D01*
X131203425Y-84997883D01*
X131064684Y-85090377D01*
X131050875Y-85104158D01*
X131049865Y-85109205D01*
X131046225Y-85112846D01*
X131046225Y-85127408D01*
X131043370Y-85141683D01*
X130931308Y-85141683D01*
X130931308Y-84179599D01*
X131042419Y-84179599D01*
X131042419Y-84274837D01*
X131043982Y-84282699D01*
X131044985Y-84290648D01*
X131092604Y-84433505D01*
X131093844Y-84435680D01*
X131093844Y-84436828D01*
X131098297Y-84443492D01*
X131102265Y-84450453D01*
X131103291Y-84450966D01*
X131104683Y-84453049D01*
X131152301Y-84500668D01*
X131168522Y-84511507D01*
X131206791Y-84511507D01*
X131233851Y-84484447D01*
X131233851Y-84446178D01*
X131223012Y-84429957D01*
X131183739Y-84390685D01*
X131142419Y-84266723D01*
X131142419Y-84187712D01*
X131183739Y-84063750D01*
X131264892Y-83982597D01*
X131347966Y-83941060D01*
X131527145Y-83896266D01*
X131657692Y-83896266D01*
X131836872Y-83941061D01*
X131919942Y-83982596D01*
X132001099Y-84063752D01*
X132042419Y-84187712D01*
X132042419Y-84266724D01*
X132001099Y-84390683D01*
X131961825Y-84429957D01*
X131950986Y-84446178D01*
X131950986Y-84484447D01*
X131978045Y-84511507D01*
X132016314Y-84511507D01*
X132032535Y-84500669D01*
X132080155Y-84453050D01*
X132081546Y-84450967D01*
X132082573Y-84450454D01*
X132086539Y-84443495D01*
X132090994Y-84436829D01*
X132090994Y-84435680D01*
X132092234Y-84433505D01*
X132139853Y-84290649D01*
X132140855Y-84282698D01*
X132142419Y-84274837D01*
X132142419Y-84179599D01*
X132140855Y-84171737D01*
X132139853Y-84163787D01*
X132092234Y-84020931D01*
X132090994Y-84018755D01*
X132090994Y-84017608D01*
X132086543Y-84010947D01*
X132082573Y-84003982D01*
X132081545Y-84003468D01*
X132080155Y-84001387D01*
X131984916Y-83906148D01*
X131978249Y-83901693D01*
X131971921Y-83896782D01*
X131876684Y-83849164D01*
X131871402Y-83847717D01*
X131866450Y-83845378D01*
X131675974Y-83797759D01*
X131669856Y-83797461D01*
X131663847Y-83796266D01*
X131520990Y-83796266D01*
X131514980Y-83797461D01*
X131508863Y-83797759D01*
X131318387Y-83845378D01*
X131313434Y-83847717D01*
X131308153Y-83849164D01*
X131212915Y-83896783D01*
X131206580Y-83901698D01*
X131199921Y-83906149D01*
X131104683Y-84001387D01*
X131103291Y-84003469D01*
X131102265Y-84003983D01*
X131098297Y-84010943D01*
X131093844Y-84017608D01*
X131093844Y-84018755D01*
X131092604Y-84020931D01*
X131044985Y-84163788D01*
X131043982Y-84171736D01*
X131042419Y-84179599D01*
X130931308Y-84179599D01*
X130931308Y-83685155D01*
X132253530Y-83685155D01*
X132253530Y-86765476D01*
G37*
G36*
X139653530Y-94765476D02*
G01*
X138331308Y-94765476D01*
X138331308Y-93846266D01*
X139061466Y-93846266D01*
X139061466Y-94608171D01*
X139065272Y-94627305D01*
X139092332Y-94654365D01*
X139130600Y-94654365D01*
X139157660Y-94627305D01*
X139161466Y-94608171D01*
X139161466Y-93846266D01*
X139157660Y-93827132D01*
X139130600Y-93800072D01*
X139092332Y-93800072D01*
X139065272Y-93827132D01*
X139061466Y-93846266D01*
X138331308Y-93846266D01*
X138331308Y-92989123D01*
X138442419Y-92989123D01*
X138442419Y-93227218D01*
X138442907Y-93229674D01*
X138442545Y-93230763D01*
X138444661Y-93238490D01*
X138446225Y-93246352D01*
X138447036Y-93247163D01*
X138447698Y-93249579D01*
X138495316Y-93344816D01*
X138500231Y-93351149D01*
X138504683Y-93357811D01*
X138552301Y-93405430D01*
X138558967Y-93409884D01*
X138565296Y-93414796D01*
X138660534Y-93462415D01*
X138662949Y-93463076D01*
X138663761Y-93463888D01*
X138671622Y-93465451D01*
X138679350Y-93467568D01*
X138680438Y-93467205D01*
X138682895Y-93467694D01*
X138778133Y-93467694D01*
X138785995Y-93466130D01*
X138793944Y-93465128D01*
X138936801Y-93417509D01*
X138938976Y-93416269D01*
X138940124Y-93416269D01*
X138946788Y-93411815D01*
X138953749Y-93407848D01*
X138954262Y-93406821D01*
X138956345Y-93405430D01*
X139442419Y-92919356D01*
X139442419Y-93417694D01*
X139446225Y-93436828D01*
X139473285Y-93463888D01*
X139511553Y-93463888D01*
X139538613Y-93436828D01*
X139542419Y-93417694D01*
X139542419Y-92798647D01*
X139538613Y-92779513D01*
X139511553Y-92752453D01*
X139473285Y-92752453D01*
X139457064Y-92763292D01*
X138893981Y-93326373D01*
X138770020Y-93367694D01*
X138694699Y-93367694D01*
X138617275Y-93328982D01*
X138581130Y-93292838D01*
X138542419Y-93215415D01*
X138542419Y-93000926D01*
X138581130Y-92923502D01*
X138623012Y-92881622D01*
X138633851Y-92865401D01*
X138633851Y-92827132D01*
X138606791Y-92800072D01*
X138568522Y-92800072D01*
X138552301Y-92810911D01*
X138504683Y-92858530D01*
X138500231Y-92865191D01*
X138495316Y-92871525D01*
X138447698Y-92966762D01*
X138447036Y-92969177D01*
X138446225Y-92969989D01*
X138444661Y-92977850D01*
X138442545Y-92985578D01*
X138442907Y-92986666D01*
X138442419Y-92989123D01*
X138331308Y-92989123D01*
X138331308Y-92179599D01*
X138442419Y-92179599D01*
X138442419Y-92274837D01*
X138443982Y-92282699D01*
X138444985Y-92290648D01*
X138492604Y-92433505D01*
X138493844Y-92435680D01*
X138493844Y-92436828D01*
X138498297Y-92443492D01*
X138502265Y-92450453D01*
X138503291Y-92450966D01*
X138504683Y-92453049D01*
X138552301Y-92500668D01*
X138568522Y-92511507D01*
X138606791Y-92511507D01*
X138633851Y-92484447D01*
X138633851Y-92446178D01*
X138623012Y-92429957D01*
X138583739Y-92390685D01*
X138542419Y-92266723D01*
X138542419Y-92187712D01*
X138583739Y-92063750D01*
X138664892Y-91982597D01*
X138747966Y-91941060D01*
X138927145Y-91896266D01*
X139057692Y-91896266D01*
X139236872Y-91941061D01*
X139319942Y-91982596D01*
X139401099Y-92063752D01*
X139442419Y-92187712D01*
X139442419Y-92266724D01*
X139401099Y-92390683D01*
X139361825Y-92429957D01*
X139350986Y-92446178D01*
X139350986Y-92484447D01*
X139378045Y-92511507D01*
X139416314Y-92511507D01*
X139432535Y-92500669D01*
X139480155Y-92453050D01*
X139481546Y-92450967D01*
X139482573Y-92450454D01*
X139486539Y-92443495D01*
X139490994Y-92436829D01*
X139490994Y-92435680D01*
X139492234Y-92433505D01*
X139539853Y-92290649D01*
X139540855Y-92282698D01*
X139542419Y-92274837D01*
X139542419Y-92179599D01*
X139540855Y-92171737D01*
X139539853Y-92163787D01*
X139492234Y-92020931D01*
X139490994Y-92018755D01*
X139490994Y-92017608D01*
X139486543Y-92010947D01*
X139482573Y-92003982D01*
X139481545Y-92003468D01*
X139480155Y-92001387D01*
X139384916Y-91906148D01*
X139378249Y-91901693D01*
X139371921Y-91896782D01*
X139276684Y-91849164D01*
X139271402Y-91847717D01*
X139266450Y-91845378D01*
X139075974Y-91797759D01*
X139069856Y-91797461D01*
X139063847Y-91796266D01*
X138920990Y-91796266D01*
X138914980Y-91797461D01*
X138908863Y-91797759D01*
X138718387Y-91845378D01*
X138713434Y-91847717D01*
X138708153Y-91849164D01*
X138612915Y-91896783D01*
X138606580Y-91901698D01*
X138599921Y-91906149D01*
X138504683Y-92001387D01*
X138503291Y-92003469D01*
X138502265Y-92003983D01*
X138498297Y-92010943D01*
X138493844Y-92017608D01*
X138493844Y-92018755D01*
X138492604Y-92020931D01*
X138444985Y-92163788D01*
X138443982Y-92171736D01*
X138442419Y-92179599D01*
X138331308Y-92179599D01*
X138331308Y-91685155D01*
X139653530Y-91685155D01*
X139653530Y-94765476D01*
G37*
G36*
X151196426Y-67550993D02*
G01*
X149018309Y-69729109D01*
X148083357Y-68794156D01*
X148200814Y-68676699D01*
X148700050Y-68676699D01*
X148700050Y-68714967D01*
X148710889Y-68731188D01*
X148944907Y-68965207D01*
X148710889Y-69199226D01*
X148700050Y-69215447D01*
X148700050Y-69253715D01*
X148727110Y-69280775D01*
X148765378Y-69280775D01*
X148781599Y-69269936D01*
X149015617Y-69035917D01*
X149249637Y-69269937D01*
X149265858Y-69280775D01*
X149304127Y-69280775D01*
X149331186Y-69253716D01*
X149331186Y-69215447D01*
X149320348Y-69199226D01*
X149086328Y-68965207D01*
X149320348Y-68731188D01*
X149331186Y-68714967D01*
X149331186Y-68676698D01*
X149304127Y-68649639D01*
X149265858Y-68649639D01*
X149249637Y-68660477D01*
X149015617Y-68894496D01*
X148781599Y-68660478D01*
X148765378Y-68649639D01*
X148727110Y-68649639D01*
X148700050Y-68676699D01*
X148200814Y-68676699D01*
X148956131Y-67921382D01*
X149201320Y-67921382D01*
X149201320Y-67988726D01*
X149202883Y-67996587D01*
X149203886Y-68004538D01*
X149237558Y-68105552D01*
X149238798Y-68107727D01*
X149238798Y-68108875D01*
X149243251Y-68115540D01*
X149247219Y-68122501D01*
X149248244Y-68123013D01*
X149249636Y-68125096D01*
X149316979Y-68192440D01*
X149323648Y-68196896D01*
X149329974Y-68201806D01*
X149464661Y-68269149D01*
X149467076Y-68269810D01*
X149467888Y-68270622D01*
X149475749Y-68272185D01*
X149483477Y-68274302D01*
X149484565Y-68273939D01*
X149487022Y-68274428D01*
X150174434Y-68274428D01*
X149822056Y-68626806D01*
X149811217Y-68643027D01*
X149811217Y-68681295D01*
X149838277Y-68708355D01*
X149876545Y-68708355D01*
X149892766Y-68697516D01*
X150330499Y-68259783D01*
X150341338Y-68243562D01*
X150341338Y-68205294D01*
X150314278Y-68178234D01*
X150295144Y-68174428D01*
X149498826Y-68174428D01*
X149381954Y-68115992D01*
X149328693Y-68062731D01*
X149301320Y-67980611D01*
X149301320Y-67929496D01*
X149328693Y-67847375D01*
X149480359Y-67695709D01*
X149562479Y-67668337D01*
X149621709Y-67668337D01*
X149640843Y-67664531D01*
X149667903Y-67637471D01*
X149667903Y-67599203D01*
X149640843Y-67572143D01*
X149621709Y-67568337D01*
X149554366Y-67568337D01*
X149546502Y-67569901D01*
X149538555Y-67570903D01*
X149437539Y-67604574D01*
X149435364Y-67605814D01*
X149434216Y-67605814D01*
X149427555Y-67610264D01*
X149420590Y-67614235D01*
X149420076Y-67615262D01*
X149417995Y-67616653D01*
X149249637Y-67785012D01*
X149248246Y-67787093D01*
X149247219Y-67787607D01*
X149243248Y-67794572D01*
X149238798Y-67801233D01*
X149238798Y-67802380D01*
X149237558Y-67804556D01*
X149203886Y-67905570D01*
X149202883Y-67913520D01*
X149201320Y-67921382D01*
X148956131Y-67921382D01*
X149595894Y-67281619D01*
X149841083Y-67281619D01*
X149841083Y-67348962D01*
X149844889Y-67368096D01*
X149871949Y-67395156D01*
X149910217Y-67395156D01*
X149937277Y-67368096D01*
X149941083Y-67348962D01*
X149941083Y-67293422D01*
X149999519Y-67176550D01*
X150055389Y-67120680D01*
X150172261Y-67062245D01*
X150287031Y-67062245D01*
X150375139Y-67091614D01*
X150533514Y-67186639D01*
X150625825Y-67278949D01*
X150720850Y-67437323D01*
X150750221Y-67525434D01*
X150750221Y-67640204D01*
X150691784Y-67757076D01*
X150635914Y-67812947D01*
X150519044Y-67871382D01*
X150463503Y-67871382D01*
X150444369Y-67875188D01*
X150417309Y-67902248D01*
X150417309Y-67940516D01*
X150444369Y-67967576D01*
X150463503Y-67971382D01*
X150530847Y-67971382D01*
X150533303Y-67970893D01*
X150534391Y-67971256D01*
X150542116Y-67969140D01*
X150549981Y-67967576D01*
X150550792Y-67966764D01*
X150553208Y-67966103D01*
X150687894Y-67898761D01*
X150694221Y-67893850D01*
X150700890Y-67889394D01*
X150768233Y-67822050D01*
X150772686Y-67815384D01*
X150777598Y-67809056D01*
X150844942Y-67674369D01*
X150845603Y-67671953D01*
X150846415Y-67671142D01*
X150847978Y-67663280D01*
X150850095Y-67655553D01*
X150849732Y-67654464D01*
X150850221Y-67652008D01*
X150850221Y-67517321D01*
X150848657Y-67509459D01*
X150847655Y-67501509D01*
X150813983Y-67400494D01*
X150811269Y-67395733D01*
X150809423Y-67390581D01*
X150708409Y-67222222D01*
X150704291Y-67217682D01*
X150700889Y-67212591D01*
X150599873Y-67111576D01*
X150594776Y-67108170D01*
X150590243Y-67104058D01*
X150421885Y-67003042D01*
X150416727Y-67001194D01*
X150411971Y-66998483D01*
X150310955Y-66964811D01*
X150303006Y-66963808D01*
X150295144Y-66962245D01*
X150160457Y-66962245D01*
X150158000Y-66962733D01*
X150156912Y-66962371D01*
X150149184Y-66964487D01*
X150141323Y-66966051D01*
X150140511Y-66966862D01*
X150138096Y-66967524D01*
X150003409Y-67034867D01*
X149997083Y-67039776D01*
X149990414Y-67044233D01*
X149923071Y-67111577D01*
X149918617Y-67118242D01*
X149913706Y-67124571D01*
X149846362Y-67259258D01*
X149845700Y-67261673D01*
X149844889Y-67262485D01*
X149843325Y-67270346D01*
X149841209Y-67278074D01*
X149841571Y-67279162D01*
X149841083Y-67281619D01*
X149595894Y-67281619D01*
X150261473Y-66616040D01*
X151196426Y-67550993D01*
G37*
G36*
X152230197Y-74364665D02*
G01*
X152102931Y-74491930D01*
X151986059Y-74550367D01*
X151871288Y-74550367D01*
X151783177Y-74520996D01*
X151624801Y-74425970D01*
X151532495Y-74333664D01*
X151437467Y-74175285D01*
X151408098Y-74087176D01*
X151408098Y-73972407D01*
X151466534Y-73855534D01*
X151593801Y-73728268D01*
X152230197Y-74364665D01*
G37*
G36*
X152528754Y-74364665D02*
G01*
X151057744Y-75835674D01*
X150122792Y-74900721D01*
X150240249Y-74783264D01*
X150739485Y-74783264D01*
X150739485Y-74821532D01*
X150750324Y-74837753D01*
X150984342Y-75071772D01*
X150750324Y-75305791D01*
X150739485Y-75322012D01*
X150739485Y-75360280D01*
X150766545Y-75387340D01*
X150804813Y-75387340D01*
X150821034Y-75376501D01*
X151055052Y-75142482D01*
X151289072Y-75376502D01*
X151305293Y-75387340D01*
X151343562Y-75387340D01*
X151370621Y-75360281D01*
X151370621Y-75322012D01*
X151359783Y-75305791D01*
X151125763Y-75071772D01*
X151359783Y-74837753D01*
X151370621Y-74821532D01*
X151370621Y-74783263D01*
X151343562Y-74756204D01*
X151305293Y-74756204D01*
X151289072Y-74767042D01*
X151055052Y-75001061D01*
X150821034Y-74767043D01*
X150804813Y-74756204D01*
X150766545Y-74756204D01*
X150739485Y-74783264D01*
X150240249Y-74783264D01*
X151062909Y-73960604D01*
X151308098Y-73960604D01*
X151308098Y-74095291D01*
X151309661Y-74103152D01*
X151310664Y-74111103D01*
X151344336Y-74212117D01*
X151347047Y-74216873D01*
X151348895Y-74222031D01*
X151449911Y-74390390D01*
X151454030Y-74394930D01*
X151457431Y-74400020D01*
X151558446Y-74501035D01*
X151563535Y-74504435D01*
X151568076Y-74508555D01*
X151736435Y-74609569D01*
X151741587Y-74611415D01*
X151746348Y-74614129D01*
X151847363Y-74647801D01*
X151855313Y-74648803D01*
X151863175Y-74650367D01*
X151997862Y-74650367D01*
X152000318Y-74649878D01*
X152001406Y-74650241D01*
X152009131Y-74648125D01*
X152016996Y-74646561D01*
X152017807Y-74645749D01*
X152020223Y-74645088D01*
X152154909Y-74577746D01*
X152161242Y-74572830D01*
X152167904Y-74568379D01*
X152336264Y-74400020D01*
X152347102Y-74383799D01*
X152347102Y-74345530D01*
X152336263Y-74329309D01*
X151629156Y-73622203D01*
X151612938Y-73611366D01*
X151612936Y-73611364D01*
X151574667Y-73611364D01*
X151558446Y-73622202D01*
X151390087Y-73790562D01*
X151385636Y-73797221D01*
X151380721Y-73803556D01*
X151313377Y-73938243D01*
X151312715Y-73940658D01*
X151311904Y-73941470D01*
X151310340Y-73949331D01*
X151308224Y-73957059D01*
X151308586Y-73958147D01*
X151308098Y-73960604D01*
X151062909Y-73960604D01*
X151593801Y-73429712D01*
X152528754Y-74364665D01*
G37*
G36*
X127042419Y-86171486D02*
G01*
X127001099Y-86295445D01*
X126919942Y-86376601D01*
X126836872Y-86418137D01*
X126657692Y-86462932D01*
X126527145Y-86462932D01*
X126347966Y-86418137D01*
X126264892Y-86376600D01*
X126183739Y-86295447D01*
X126142419Y-86171485D01*
X126142419Y-85991504D01*
X127042419Y-85991504D01*
X127042419Y-86171486D01*
G37*
G36*
X127253530Y-86674043D02*
G01*
X125931308Y-86674043D01*
X125931308Y-85941504D01*
X126042419Y-85941504D01*
X126042419Y-86179599D01*
X126043982Y-86187461D01*
X126044985Y-86195410D01*
X126092604Y-86338267D01*
X126093844Y-86340442D01*
X126093844Y-86341590D01*
X126098297Y-86348254D01*
X126102265Y-86355215D01*
X126103291Y-86355728D01*
X126104683Y-86357811D01*
X126199921Y-86453049D01*
X126206580Y-86457499D01*
X126212915Y-86462415D01*
X126308153Y-86510034D01*
X126313434Y-86511480D01*
X126318387Y-86513820D01*
X126508863Y-86561439D01*
X126514980Y-86561736D01*
X126520990Y-86562932D01*
X126663847Y-86562932D01*
X126669856Y-86561736D01*
X126675974Y-86561439D01*
X126866450Y-86513820D01*
X126871402Y-86511480D01*
X126876684Y-86510034D01*
X126971921Y-86462416D01*
X126978249Y-86457504D01*
X126984916Y-86453050D01*
X127080155Y-86357811D01*
X127081545Y-86355729D01*
X127082573Y-86355216D01*
X127086543Y-86348250D01*
X127090994Y-86341590D01*
X127090994Y-86340442D01*
X127092234Y-86338267D01*
X127139853Y-86195411D01*
X127140855Y-86187460D01*
X127142419Y-86179599D01*
X127142419Y-85941504D01*
X127138613Y-85922370D01*
X127111553Y-85895310D01*
X127092419Y-85891504D01*
X126092419Y-85891504D01*
X126073285Y-85895310D01*
X126046225Y-85922370D01*
X126042419Y-85941504D01*
X125931308Y-85941504D01*
X125931308Y-84887579D01*
X126042818Y-84887579D01*
X126046225Y-84900071D01*
X126046225Y-84913019D01*
X126051079Y-84917873D01*
X126052887Y-84924500D01*
X126067612Y-84937297D01*
X126904141Y-85415313D01*
X126092419Y-85415313D01*
X126073285Y-85419119D01*
X126046225Y-85446179D01*
X126046225Y-85484447D01*
X126073285Y-85511507D01*
X126092419Y-85515313D01*
X127092419Y-85515313D01*
X127111553Y-85511507D01*
X127116407Y-85506652D01*
X127123034Y-85504845D01*
X127129459Y-85493600D01*
X127138613Y-85484447D01*
X127138613Y-85477581D01*
X127142020Y-85471619D01*
X127138613Y-85459126D01*
X127138613Y-85446179D01*
X127133757Y-85441323D01*
X127131951Y-85434699D01*
X127117226Y-85421901D01*
X126280697Y-84943885D01*
X127092419Y-84943885D01*
X127111553Y-84940079D01*
X127138613Y-84913019D01*
X127138613Y-84874751D01*
X127111553Y-84847691D01*
X127092419Y-84843885D01*
X126092419Y-84843885D01*
X126073285Y-84847691D01*
X126068430Y-84852545D01*
X126061804Y-84854353D01*
X126055378Y-84865597D01*
X126046225Y-84874751D01*
X126046225Y-84881616D01*
X126042818Y-84887579D01*
X125931308Y-84887579D01*
X125931308Y-84179599D01*
X126042419Y-84179599D01*
X126042419Y-84322456D01*
X126042907Y-84324912D01*
X126042545Y-84326001D01*
X126044661Y-84333728D01*
X126046225Y-84341590D01*
X126047036Y-84342401D01*
X126047698Y-84344817D01*
X126095316Y-84440054D01*
X126107278Y-84455466D01*
X126143582Y-84467568D01*
X126177810Y-84450454D01*
X126189912Y-84414149D01*
X126184759Y-84395333D01*
X126142419Y-84310653D01*
X126142419Y-84187712D01*
X126183739Y-84063750D01*
X126264892Y-83982597D01*
X126347966Y-83941060D01*
X126527145Y-83896266D01*
X126657692Y-83896266D01*
X126836872Y-83941061D01*
X126919942Y-83982596D01*
X127001099Y-84063752D01*
X127042419Y-84187712D01*
X127042419Y-84266724D01*
X127001099Y-84390683D01*
X126976469Y-84415313D01*
X126713847Y-84415313D01*
X126713847Y-84274837D01*
X126710041Y-84255703D01*
X126682981Y-84228643D01*
X126644713Y-84228643D01*
X126617653Y-84255703D01*
X126613847Y-84274837D01*
X126613847Y-84465313D01*
X126617653Y-84484447D01*
X126644713Y-84511507D01*
X126663847Y-84515313D01*
X126997180Y-84515313D01*
X127016314Y-84511507D01*
X127032535Y-84500669D01*
X127080155Y-84453050D01*
X127081546Y-84450967D01*
X127082573Y-84450454D01*
X127086539Y-84443495D01*
X127090994Y-84436829D01*
X127090994Y-84435680D01*
X127092234Y-84433505D01*
X127139853Y-84290649D01*
X127140855Y-84282698D01*
X127142419Y-84274837D01*
X127142419Y-84179599D01*
X127140855Y-84171737D01*
X127139853Y-84163787D01*
X127092234Y-84020931D01*
X127090994Y-84018755D01*
X127090994Y-84017608D01*
X127086543Y-84010947D01*
X127082573Y-84003982D01*
X127081545Y-84003468D01*
X127080155Y-84001387D01*
X126984916Y-83906148D01*
X126978249Y-83901693D01*
X126971921Y-83896782D01*
X126876684Y-83849164D01*
X126871402Y-83847717D01*
X126866450Y-83845378D01*
X126675974Y-83797759D01*
X126669856Y-83797461D01*
X126663847Y-83796266D01*
X126520990Y-83796266D01*
X126514980Y-83797461D01*
X126508863Y-83797759D01*
X126318387Y-83845378D01*
X126313434Y-83847717D01*
X126308153Y-83849164D01*
X126212915Y-83896783D01*
X126206580Y-83901698D01*
X126199921Y-83906149D01*
X126104683Y-84001387D01*
X126103291Y-84003469D01*
X126102265Y-84003983D01*
X126098297Y-84010943D01*
X126093844Y-84017608D01*
X126093844Y-84018755D01*
X126092604Y-84020931D01*
X126044985Y-84163788D01*
X126043982Y-84171736D01*
X126042419Y-84179599D01*
X125931308Y-84179599D01*
X125931308Y-83685155D01*
X127253530Y-83685155D01*
X127253530Y-86674043D01*
G37*
G36*
X145708691Y-86894846D02*
G01*
X144386469Y-86894846D01*
X144386469Y-86305164D01*
X144497580Y-86305164D01*
X144497580Y-86400402D01*
X144499143Y-86408263D01*
X144500146Y-86416214D01*
X144547766Y-86559071D01*
X144549006Y-86561246D01*
X144549006Y-86562393D01*
X144553455Y-86569051D01*
X144557427Y-86576019D01*
X144558454Y-86576532D01*
X144559845Y-86578614D01*
X144655083Y-86673852D01*
X144661742Y-86678302D01*
X144668077Y-86683218D01*
X144763315Y-86730837D01*
X144768596Y-86732283D01*
X144773549Y-86734623D01*
X144964025Y-86782242D01*
X144970142Y-86782539D01*
X144976152Y-86783735D01*
X145119009Y-86783735D01*
X145125018Y-86782539D01*
X145131136Y-86782242D01*
X145321612Y-86734623D01*
X145326564Y-86732283D01*
X145331846Y-86730837D01*
X145427083Y-86683219D01*
X145433416Y-86678303D01*
X145440078Y-86673852D01*
X145535316Y-86578614D01*
X145536706Y-86576532D01*
X145537734Y-86576019D01*
X145541704Y-86569053D01*
X145546155Y-86562393D01*
X145546155Y-86561245D01*
X145547395Y-86559070D01*
X145595014Y-86416214D01*
X145596016Y-86408263D01*
X145597580Y-86400402D01*
X145597580Y-86305164D01*
X145596016Y-86297302D01*
X145595014Y-86289352D01*
X145547395Y-86146496D01*
X145546155Y-86144320D01*
X145546155Y-86143172D01*
X145541700Y-86136505D01*
X145537734Y-86129547D01*
X145536707Y-86129033D01*
X145535316Y-86126951D01*
X145487697Y-86079333D01*
X145471476Y-86068494D01*
X145433208Y-86068494D01*
X145406148Y-86095554D01*
X145406148Y-86133822D01*
X145416987Y-86150043D01*
X145456259Y-86189316D01*
X145497580Y-86313277D01*
X145497580Y-86392289D01*
X145456259Y-86516250D01*
X145375106Y-86597404D01*
X145292034Y-86638940D01*
X145112854Y-86683735D01*
X144982307Y-86683735D01*
X144803128Y-86638940D01*
X144720054Y-86597403D01*
X144638901Y-86516250D01*
X144597580Y-86392287D01*
X144597580Y-86313278D01*
X144638901Y-86189315D01*
X144678174Y-86150044D01*
X144689013Y-86133823D01*
X144689013Y-86095554D01*
X144661953Y-86068494D01*
X144623684Y-86068494D01*
X144607463Y-86079333D01*
X144559845Y-86126952D01*
X144558454Y-86129033D01*
X144557427Y-86129547D01*
X144553455Y-86136514D01*
X144549006Y-86143173D01*
X144549006Y-86144319D01*
X144547766Y-86146495D01*
X144500146Y-86289352D01*
X144499143Y-86297302D01*
X144497580Y-86305164D01*
X144386469Y-86305164D01*
X144386469Y-85162307D01*
X144497580Y-85162307D01*
X144497580Y-85781354D01*
X144501386Y-85800488D01*
X144528446Y-85827548D01*
X144566714Y-85827548D01*
X144582935Y-85816709D01*
X145146017Y-85253627D01*
X145269979Y-85212307D01*
X145345301Y-85212307D01*
X145422724Y-85251018D01*
X145458868Y-85287163D01*
X145497580Y-85364586D01*
X145497580Y-85579074D01*
X145458868Y-85656497D01*
X145416987Y-85698380D01*
X145406148Y-85714601D01*
X145406148Y-85752869D01*
X145433208Y-85779929D01*
X145471476Y-85779929D01*
X145487697Y-85769090D01*
X145535316Y-85721472D01*
X145539770Y-85714805D01*
X145544682Y-85708477D01*
X145592301Y-85613239D01*
X145592962Y-85610823D01*
X145593774Y-85610012D01*
X145595337Y-85602150D01*
X145597454Y-85594423D01*
X145597091Y-85593334D01*
X145597580Y-85590878D01*
X145597580Y-85352783D01*
X145597091Y-85350326D01*
X145597454Y-85349238D01*
X145595337Y-85341510D01*
X145593774Y-85333649D01*
X145592962Y-85332837D01*
X145592301Y-85330422D01*
X145544682Y-85235184D01*
X145539770Y-85228855D01*
X145535316Y-85222189D01*
X145487697Y-85174571D01*
X145481035Y-85170119D01*
X145474702Y-85165204D01*
X145379465Y-85117586D01*
X145377049Y-85116924D01*
X145376238Y-85116113D01*
X145368376Y-85114549D01*
X145360649Y-85112433D01*
X145359560Y-85112795D01*
X145357104Y-85112307D01*
X145261866Y-85112307D01*
X145254004Y-85113870D01*
X145246054Y-85114873D01*
X145103198Y-85162492D01*
X145101023Y-85163732D01*
X145099875Y-85163732D01*
X145093214Y-85168182D01*
X145086249Y-85172153D01*
X145085735Y-85173180D01*
X145083654Y-85174571D01*
X144597580Y-85660644D01*
X144597580Y-85162307D01*
X144593774Y-85143173D01*
X144566714Y-85116113D01*
X144528446Y-85116113D01*
X144501386Y-85143173D01*
X144497580Y-85162307D01*
X144386469Y-85162307D01*
X144386469Y-84333649D01*
X144501386Y-84333649D01*
X144501386Y-84371917D01*
X144528446Y-84398977D01*
X144547580Y-84402783D01*
X144878533Y-84402783D01*
X144878533Y-84733735D01*
X144882339Y-84752869D01*
X144909399Y-84779929D01*
X144947667Y-84779929D01*
X144974727Y-84752869D01*
X144978533Y-84733735D01*
X144978533Y-84402783D01*
X145309485Y-84402783D01*
X145328619Y-84398977D01*
X145355679Y-84371917D01*
X145355679Y-84333649D01*
X145328619Y-84306589D01*
X145309485Y-84302783D01*
X144978533Y-84302783D01*
X144978533Y-83971831D01*
X144974727Y-83952697D01*
X144947667Y-83925637D01*
X144909399Y-83925637D01*
X144882339Y-83952697D01*
X144878533Y-83971831D01*
X144878533Y-84302783D01*
X144547580Y-84302783D01*
X144528446Y-84306589D01*
X144501386Y-84333649D01*
X144386469Y-84333649D01*
X144386469Y-83814526D01*
X145708691Y-83814526D01*
X145708691Y-86894846D01*
G37*
G36*
X143253530Y-86965476D02*
G01*
X141931308Y-86965476D01*
X141931308Y-86046266D01*
X142661466Y-86046266D01*
X142661466Y-86808171D01*
X142665272Y-86827305D01*
X142692332Y-86854365D01*
X142730600Y-86854365D01*
X142757660Y-86827305D01*
X142761466Y-86808171D01*
X142761466Y-86046266D01*
X142757660Y-86027132D01*
X142730600Y-86000072D01*
X142692332Y-86000072D01*
X142665272Y-86027132D01*
X142661466Y-86046266D01*
X141931308Y-86046266D01*
X141931308Y-85189123D01*
X142042419Y-85189123D01*
X142042419Y-85427218D01*
X142042907Y-85429674D01*
X142042545Y-85430763D01*
X142044661Y-85438490D01*
X142046225Y-85446352D01*
X142047036Y-85447163D01*
X142047698Y-85449579D01*
X142095316Y-85544816D01*
X142100231Y-85551149D01*
X142104683Y-85557811D01*
X142152301Y-85605430D01*
X142158967Y-85609884D01*
X142165296Y-85614796D01*
X142260534Y-85662415D01*
X142262949Y-85663076D01*
X142263761Y-85663888D01*
X142271622Y-85665451D01*
X142279350Y-85667568D01*
X142280438Y-85667205D01*
X142282895Y-85667694D01*
X142378133Y-85667694D01*
X142385995Y-85666130D01*
X142393944Y-85665128D01*
X142536801Y-85617509D01*
X142538976Y-85616269D01*
X142540124Y-85616269D01*
X142546788Y-85611815D01*
X142553749Y-85607848D01*
X142554262Y-85606821D01*
X142556345Y-85605430D01*
X143042419Y-85119356D01*
X143042419Y-85617694D01*
X143046225Y-85636828D01*
X143073285Y-85663888D01*
X143111553Y-85663888D01*
X143138613Y-85636828D01*
X143142419Y-85617694D01*
X143142419Y-84998647D01*
X143138613Y-84979513D01*
X143111553Y-84952453D01*
X143073285Y-84952453D01*
X143057064Y-84963292D01*
X142493981Y-85526373D01*
X142370020Y-85567694D01*
X142294699Y-85567694D01*
X142217275Y-85528982D01*
X142181130Y-85492838D01*
X142142419Y-85415415D01*
X142142419Y-85200926D01*
X142181130Y-85123502D01*
X142223012Y-85081622D01*
X142233851Y-85065401D01*
X142233851Y-85027132D01*
X142206791Y-85000072D01*
X142168522Y-85000072D01*
X142152301Y-85010911D01*
X142104683Y-85058530D01*
X142100231Y-85065191D01*
X142095316Y-85071525D01*
X142047698Y-85166762D01*
X142047036Y-85169177D01*
X142046225Y-85169989D01*
X142044661Y-85177850D01*
X142042545Y-85185578D01*
X142042907Y-85186666D01*
X142042419Y-85189123D01*
X141931308Y-85189123D01*
X141931308Y-84379599D01*
X142042419Y-84379599D01*
X142042419Y-84474837D01*
X142043982Y-84482699D01*
X142044985Y-84490648D01*
X142092604Y-84633505D01*
X142093844Y-84635680D01*
X142093844Y-84636828D01*
X142098297Y-84643492D01*
X142102265Y-84650453D01*
X142103291Y-84650966D01*
X142104683Y-84653049D01*
X142152301Y-84700668D01*
X142168522Y-84711507D01*
X142206791Y-84711507D01*
X142233851Y-84684447D01*
X142233851Y-84646178D01*
X142223012Y-84629957D01*
X142183739Y-84590685D01*
X142142419Y-84466723D01*
X142142419Y-84387712D01*
X142183739Y-84263750D01*
X142264892Y-84182597D01*
X142347966Y-84141060D01*
X142527145Y-84096266D01*
X142657692Y-84096266D01*
X142836872Y-84141061D01*
X142919942Y-84182596D01*
X143001099Y-84263752D01*
X143042419Y-84387712D01*
X143042419Y-84466724D01*
X143001099Y-84590683D01*
X142961825Y-84629957D01*
X142950986Y-84646178D01*
X142950986Y-84684447D01*
X142978045Y-84711507D01*
X143016314Y-84711507D01*
X143032535Y-84700669D01*
X143080155Y-84653050D01*
X143081546Y-84650967D01*
X143082573Y-84650454D01*
X143086539Y-84643495D01*
X143090994Y-84636829D01*
X143090994Y-84635680D01*
X143092234Y-84633505D01*
X143139853Y-84490649D01*
X143140855Y-84482698D01*
X143142419Y-84474837D01*
X143142419Y-84379599D01*
X143140855Y-84371737D01*
X143139853Y-84363787D01*
X143092234Y-84220931D01*
X143090994Y-84218755D01*
X143090994Y-84217608D01*
X143086543Y-84210947D01*
X143082573Y-84203982D01*
X143081545Y-84203468D01*
X143080155Y-84201387D01*
X142984916Y-84106148D01*
X142978249Y-84101693D01*
X142971921Y-84096782D01*
X142876684Y-84049164D01*
X142871402Y-84047717D01*
X142866450Y-84045378D01*
X142675974Y-83997759D01*
X142669856Y-83997461D01*
X142663847Y-83996266D01*
X142520990Y-83996266D01*
X142514980Y-83997461D01*
X142508863Y-83997759D01*
X142318387Y-84045378D01*
X142313434Y-84047717D01*
X142308153Y-84049164D01*
X142212915Y-84096783D01*
X142206580Y-84101698D01*
X142199921Y-84106149D01*
X142104683Y-84201387D01*
X142103291Y-84203469D01*
X142102265Y-84203983D01*
X142098297Y-84210943D01*
X142093844Y-84217608D01*
X142093844Y-84218755D01*
X142092604Y-84220931D01*
X142044985Y-84363788D01*
X142043982Y-84371736D01*
X142042419Y-84379599D01*
X141931308Y-84379599D01*
X141931308Y-83885155D01*
X143253530Y-83885155D01*
X143253530Y-86965476D01*
G37*
G36*
X152125446Y-91208902D02*
G01*
X152206599Y-91290055D01*
X152248136Y-91373129D01*
X152292931Y-91552308D01*
X152292931Y-91682855D01*
X152248136Y-91862033D01*
X152206599Y-91945107D01*
X152125446Y-92026260D01*
X152001485Y-92067581D01*
X151821503Y-92067581D01*
X151821503Y-91167581D01*
X152001484Y-91167581D01*
X152125446Y-91208902D01*
G37*
G36*
X152504042Y-92278692D02*
G01*
X149515154Y-92278692D01*
X149515154Y-91546153D01*
X149626265Y-91546153D01*
X149626265Y-91689010D01*
X149627460Y-91695019D01*
X149627758Y-91701137D01*
X149675377Y-91891613D01*
X149677716Y-91896565D01*
X149679163Y-91901847D01*
X149726781Y-91997084D01*
X149731696Y-92003417D01*
X149736148Y-92010079D01*
X149831386Y-92105317D01*
X149833467Y-92106707D01*
X149833981Y-92107735D01*
X149840946Y-92111705D01*
X149847607Y-92116156D01*
X149848755Y-92116156D01*
X149850930Y-92117396D01*
X149993786Y-92165015D01*
X150001736Y-92166017D01*
X150009598Y-92167581D01*
X150152455Y-92167581D01*
X150154911Y-92167092D01*
X150156000Y-92167455D01*
X150163727Y-92165338D01*
X150171589Y-92163775D01*
X150172400Y-92162963D01*
X150174816Y-92162302D01*
X150270053Y-92114684D01*
X150285465Y-92102722D01*
X150297567Y-92066418D01*
X150280453Y-92032190D01*
X150244148Y-92020088D01*
X150225332Y-92025241D01*
X150140652Y-92067581D01*
X150017711Y-92067581D01*
X149893749Y-92026260D01*
X149812596Y-91945107D01*
X149771060Y-91862035D01*
X149726265Y-91682855D01*
X149726265Y-91552308D01*
X149771060Y-91373128D01*
X149812596Y-91290056D01*
X149893749Y-91208902D01*
X150017712Y-91167581D01*
X150096722Y-91167581D01*
X150220684Y-91208902D01*
X150245312Y-91233530D01*
X150245312Y-91496153D01*
X150104836Y-91496153D01*
X150085702Y-91499959D01*
X150058642Y-91527019D01*
X150058642Y-91565287D01*
X150085702Y-91592347D01*
X150104836Y-91596153D01*
X150295312Y-91596153D01*
X150314446Y-91592347D01*
X150341506Y-91565287D01*
X150345312Y-91546153D01*
X150345312Y-91212820D01*
X150341506Y-91193686D01*
X150341506Y-91193685D01*
X150330667Y-91177464D01*
X150283048Y-91129846D01*
X150280966Y-91128455D01*
X150280453Y-91127428D01*
X150273485Y-91123456D01*
X150266827Y-91119007D01*
X150265680Y-91119007D01*
X150263505Y-91117767D01*
X150262947Y-91117581D01*
X150673884Y-91117581D01*
X150673884Y-92117581D01*
X150677690Y-92136715D01*
X150682544Y-92141569D01*
X150684352Y-92148196D01*
X150695596Y-92154621D01*
X150704750Y-92163775D01*
X150711616Y-92163775D01*
X150717578Y-92167182D01*
X150730071Y-92163775D01*
X150743018Y-92163775D01*
X150747872Y-92158920D01*
X150754499Y-92157113D01*
X150767296Y-92142388D01*
X151245312Y-91305859D01*
X151245312Y-92117581D01*
X151249118Y-92136715D01*
X151276178Y-92163775D01*
X151314446Y-92163775D01*
X151341506Y-92136715D01*
X151345312Y-92117581D01*
X151345312Y-91117581D01*
X151721503Y-91117581D01*
X151721503Y-92117581D01*
X151725309Y-92136715D01*
X151752369Y-92163775D01*
X151771503Y-92167581D01*
X152009598Y-92167581D01*
X152017460Y-92166017D01*
X152025409Y-92165015D01*
X152168266Y-92117396D01*
X152170441Y-92116156D01*
X152171589Y-92116156D01*
X152178253Y-92111702D01*
X152185214Y-92107735D01*
X152185727Y-92106708D01*
X152187810Y-92105317D01*
X152283048Y-92010079D01*
X152287498Y-92003419D01*
X152292414Y-91997085D01*
X152340033Y-91901847D01*
X152341479Y-91896565D01*
X152343819Y-91891613D01*
X152391438Y-91701137D01*
X152391735Y-91695019D01*
X152392931Y-91689010D01*
X152392931Y-91546153D01*
X152391735Y-91540143D01*
X152391438Y-91534026D01*
X152343819Y-91343550D01*
X152341479Y-91338597D01*
X152340033Y-91333316D01*
X152292414Y-91238078D01*
X152287498Y-91231743D01*
X152283048Y-91225084D01*
X152187810Y-91129846D01*
X152185728Y-91128455D01*
X152185215Y-91127428D01*
X152178247Y-91123456D01*
X152171589Y-91119007D01*
X152170442Y-91119007D01*
X152168267Y-91117767D01*
X152025410Y-91070147D01*
X152017459Y-91069144D01*
X152009598Y-91067581D01*
X151771503Y-91067581D01*
X151752369Y-91071387D01*
X151725309Y-91098447D01*
X151721503Y-91117581D01*
X151345312Y-91117581D01*
X151341506Y-91098447D01*
X151336651Y-91093592D01*
X151334844Y-91086966D01*
X151323599Y-91080540D01*
X151314446Y-91071387D01*
X151307580Y-91071387D01*
X151301618Y-91067980D01*
X151289126Y-91071387D01*
X151276178Y-91071387D01*
X151271322Y-91076242D01*
X151264698Y-91078049D01*
X151251900Y-91092774D01*
X150773884Y-91929302D01*
X150773884Y-91117581D01*
X150770078Y-91098447D01*
X150743018Y-91071387D01*
X150704750Y-91071387D01*
X150677690Y-91098447D01*
X150673884Y-91117581D01*
X150262947Y-91117581D01*
X150120648Y-91070147D01*
X150112697Y-91069144D01*
X150104836Y-91067581D01*
X150009598Y-91067581D01*
X150001736Y-91069144D01*
X149993786Y-91070147D01*
X149850929Y-91117767D01*
X149848754Y-91119007D01*
X149847607Y-91119007D01*
X149840948Y-91123456D01*
X149833981Y-91127428D01*
X149833467Y-91128455D01*
X149831386Y-91129846D01*
X149736148Y-91225084D01*
X149731696Y-91231745D01*
X149726781Y-91238079D01*
X149679163Y-91333316D01*
X149677716Y-91338597D01*
X149675377Y-91343550D01*
X149627758Y-91534026D01*
X149627460Y-91540143D01*
X149626265Y-91546153D01*
X149515154Y-91546153D01*
X149515154Y-90956470D01*
X152504042Y-90956470D01*
X152504042Y-92278692D01*
G37*
G36*
X147076311Y-69192550D02*
G01*
X146949046Y-69319815D01*
X146832174Y-69378252D01*
X146717402Y-69378252D01*
X146629295Y-69348883D01*
X146470915Y-69253855D01*
X146378607Y-69161547D01*
X146283583Y-69003171D01*
X146254213Y-68915061D01*
X146254213Y-68800292D01*
X146312649Y-68683419D01*
X146439915Y-68556153D01*
X147076311Y-69192550D01*
G37*
G36*
X148856426Y-67710993D02*
G01*
X146742962Y-69824456D01*
X145808009Y-68889503D01*
X145909023Y-68788489D01*
X146154213Y-68788489D01*
X146154213Y-68923176D01*
X146155776Y-68931037D01*
X146156779Y-68938988D01*
X146190451Y-69040002D01*
X146193162Y-69044758D01*
X146195010Y-69049916D01*
X146296025Y-69218274D01*
X146300141Y-69222811D01*
X146303545Y-69227905D01*
X146404560Y-69328920D01*
X146409649Y-69332320D01*
X146414190Y-69336440D01*
X146582549Y-69437456D01*
X146587706Y-69439303D01*
X146592463Y-69442015D01*
X146693478Y-69475686D01*
X146701425Y-69476687D01*
X146709289Y-69478252D01*
X146843976Y-69478252D01*
X146846432Y-69477763D01*
X146847520Y-69478126D01*
X146855244Y-69476010D01*
X146863110Y-69474446D01*
X146863921Y-69473634D01*
X146866336Y-69472973D01*
X147001024Y-69405631D01*
X147007361Y-69400712D01*
X147014019Y-69396264D01*
X147182378Y-69227905D01*
X147193216Y-69211684D01*
X147193216Y-69173415D01*
X147182377Y-69157194D01*
X146475270Y-68450088D01*
X146459049Y-68439249D01*
X146420781Y-68439249D01*
X146404560Y-68450088D01*
X146236202Y-68618447D01*
X146231751Y-68625106D01*
X146226836Y-68631441D01*
X146159492Y-68766128D01*
X146158830Y-68768543D01*
X146158019Y-68769355D01*
X146156455Y-68777216D01*
X146154339Y-68784944D01*
X146154701Y-68786032D01*
X146154213Y-68788489D01*
X145909023Y-68788489D01*
X146567920Y-68129592D01*
X146730439Y-68129592D01*
X146730439Y-68167860D01*
X146741278Y-68184081D01*
X147448384Y-68891188D01*
X147464605Y-68902027D01*
X147471474Y-68902027D01*
X147477435Y-68905433D01*
X147489923Y-68902027D01*
X147502874Y-68902027D01*
X147507730Y-68897170D01*
X147514354Y-68895364D01*
X147520777Y-68884123D01*
X147529934Y-68874967D01*
X147529934Y-68868100D01*
X147533341Y-68862138D01*
X147531978Y-68842677D01*
X147278471Y-67913152D01*
X147852445Y-68487127D01*
X147868666Y-68497966D01*
X147906935Y-68497966D01*
X147933995Y-68470906D01*
X147933995Y-68432637D01*
X147923156Y-68416416D01*
X147216049Y-67709310D01*
X147199828Y-67698471D01*
X147192961Y-67698471D01*
X147186999Y-67695064D01*
X147174507Y-67698471D01*
X147161560Y-67698471D01*
X147156704Y-67703326D01*
X147150080Y-67705133D01*
X147143655Y-67716375D01*
X147134500Y-67725531D01*
X147134500Y-67732397D01*
X147131093Y-67738360D01*
X147132456Y-67757821D01*
X147385962Y-68687344D01*
X146811988Y-68113371D01*
X146795767Y-68102532D01*
X146757499Y-68102532D01*
X146730439Y-68129592D01*
X146567920Y-68129592D01*
X147252350Y-67445163D01*
X147501209Y-67445163D01*
X147518323Y-67479392D01*
X147554627Y-67491493D01*
X147588856Y-67474379D01*
X147598517Y-67457431D01*
X147628456Y-67367613D01*
X147715389Y-67280680D01*
X147832261Y-67222245D01*
X147947031Y-67222245D01*
X148035139Y-67251614D01*
X148193514Y-67346639D01*
X148285825Y-67438949D01*
X148380850Y-67597323D01*
X148410221Y-67685434D01*
X148410221Y-67800204D01*
X148351784Y-67917076D01*
X148295914Y-67972947D01*
X148179044Y-68031382D01*
X148144213Y-68031382D01*
X147958511Y-67845680D01*
X148057843Y-67746348D01*
X148068682Y-67730127D01*
X148068682Y-67691859D01*
X148041622Y-67664799D01*
X148003354Y-67664799D01*
X147987133Y-67675638D01*
X147852446Y-67810325D01*
X147841607Y-67826546D01*
X147841607Y-67864814D01*
X147852446Y-67881035D01*
X148088148Y-68116737D01*
X148104369Y-68127576D01*
X148123503Y-68131382D01*
X148190847Y-68131382D01*
X148193303Y-68130893D01*
X148194391Y-68131256D01*
X148202116Y-68129140D01*
X148209981Y-68127576D01*
X148210792Y-68126764D01*
X148213208Y-68126103D01*
X148347894Y-68058761D01*
X148354221Y-68053850D01*
X148360890Y-68049394D01*
X148428233Y-67982050D01*
X148432686Y-67975384D01*
X148437598Y-67969056D01*
X148504942Y-67834369D01*
X148505603Y-67831953D01*
X148506415Y-67831142D01*
X148507978Y-67823280D01*
X148510095Y-67815553D01*
X148509732Y-67814464D01*
X148510221Y-67812008D01*
X148510221Y-67677321D01*
X148508657Y-67669459D01*
X148507655Y-67661509D01*
X148473983Y-67560494D01*
X148471269Y-67555733D01*
X148469423Y-67550581D01*
X148368409Y-67382222D01*
X148364291Y-67377682D01*
X148360889Y-67372591D01*
X148259873Y-67271576D01*
X148254776Y-67268170D01*
X148250243Y-67264058D01*
X148081885Y-67163042D01*
X148076727Y-67161194D01*
X148071971Y-67158483D01*
X147970955Y-67124811D01*
X147963006Y-67123808D01*
X147955144Y-67122245D01*
X147820457Y-67122245D01*
X147818000Y-67122733D01*
X147816912Y-67122371D01*
X147809184Y-67124487D01*
X147801323Y-67126051D01*
X147800511Y-67126862D01*
X147798096Y-67127524D01*
X147663409Y-67194867D01*
X147657080Y-67199779D01*
X147650414Y-67204233D01*
X147549399Y-67305249D01*
X147548007Y-67307331D01*
X147546982Y-67307844D01*
X147543014Y-67314804D01*
X147538561Y-67321470D01*
X147538561Y-67322617D01*
X147537321Y-67324793D01*
X147503649Y-67425807D01*
X147501209Y-67445163D01*
X147252350Y-67445163D01*
X147921473Y-66776040D01*
X148856426Y-67710993D01*
G37*
G36*
X152430197Y-68464665D02*
G01*
X152302931Y-68591930D01*
X152186059Y-68650367D01*
X152071288Y-68650367D01*
X151983177Y-68620996D01*
X151824801Y-68525970D01*
X151732495Y-68433664D01*
X151637467Y-68275285D01*
X151608098Y-68187176D01*
X151608098Y-68072407D01*
X151666534Y-67955534D01*
X151793801Y-67828268D01*
X152430197Y-68464665D01*
G37*
G36*
X152728754Y-68464665D02*
G01*
X151257744Y-69935674D01*
X150744083Y-69422012D01*
X150939485Y-69422012D01*
X150939485Y-69460280D01*
X150966545Y-69487340D01*
X151004813Y-69487340D01*
X151021034Y-69476501D01*
X151559783Y-68937753D01*
X151570621Y-68921532D01*
X151570621Y-68883263D01*
X151543562Y-68856204D01*
X151505293Y-68856204D01*
X151489072Y-68867042D01*
X150950324Y-69405791D01*
X150939485Y-69422012D01*
X150744083Y-69422012D01*
X150322792Y-69000721D01*
X151262909Y-68060604D01*
X151508098Y-68060604D01*
X151508098Y-68195291D01*
X151509661Y-68203152D01*
X151510664Y-68211103D01*
X151544336Y-68312117D01*
X151547047Y-68316873D01*
X151548895Y-68322031D01*
X151649911Y-68490390D01*
X151654030Y-68494930D01*
X151657431Y-68500020D01*
X151758446Y-68601035D01*
X151763535Y-68604435D01*
X151768076Y-68608555D01*
X151936435Y-68709569D01*
X151941587Y-68711415D01*
X151946348Y-68714129D01*
X152047363Y-68747801D01*
X152055313Y-68748803D01*
X152063175Y-68750367D01*
X152197862Y-68750367D01*
X152200318Y-68749878D01*
X152201406Y-68750241D01*
X152209131Y-68748125D01*
X152216996Y-68746561D01*
X152217807Y-68745749D01*
X152220223Y-68745088D01*
X152354909Y-68677746D01*
X152361242Y-68672830D01*
X152367904Y-68668379D01*
X152536264Y-68500020D01*
X152547102Y-68483799D01*
X152547102Y-68445530D01*
X152536263Y-68429309D01*
X151829156Y-67722203D01*
X151812938Y-67711366D01*
X151812936Y-67711364D01*
X151774667Y-67711364D01*
X151758446Y-67722202D01*
X151590087Y-67890562D01*
X151585636Y-67897221D01*
X151580721Y-67903556D01*
X151513377Y-68038243D01*
X151512715Y-68040658D01*
X151511904Y-68041470D01*
X151510340Y-68049331D01*
X151508224Y-68057059D01*
X151508586Y-68058147D01*
X151508098Y-68060604D01*
X151262909Y-68060604D01*
X151793801Y-67529712D01*
X152728754Y-68464665D01*
G37*
G36*
X148203530Y-86070237D02*
G01*
X146881308Y-86070237D01*
X146881308Y-85627218D01*
X146992419Y-85627218D01*
X146992419Y-85722456D01*
X146993982Y-85730318D01*
X146994985Y-85738267D01*
X147042604Y-85881124D01*
X147043844Y-85883299D01*
X147043844Y-85884447D01*
X147048297Y-85891111D01*
X147052265Y-85898072D01*
X147053291Y-85898585D01*
X147054683Y-85900668D01*
X147102301Y-85948287D01*
X147118522Y-85959126D01*
X147156791Y-85959126D01*
X147183851Y-85932066D01*
X147183851Y-85893797D01*
X147173012Y-85877576D01*
X147133739Y-85838304D01*
X147092419Y-85714342D01*
X147092419Y-85635331D01*
X147133739Y-85511369D01*
X147214892Y-85430216D01*
X147297966Y-85388679D01*
X147477145Y-85343885D01*
X147607692Y-85343885D01*
X147786872Y-85388680D01*
X147869942Y-85430215D01*
X147951099Y-85511371D01*
X147992419Y-85635331D01*
X147992419Y-85714343D01*
X147951099Y-85838302D01*
X147911825Y-85877576D01*
X147900986Y-85893797D01*
X147900986Y-85932066D01*
X147928045Y-85959126D01*
X147966314Y-85959126D01*
X147982535Y-85948288D01*
X148030155Y-85900669D01*
X148031546Y-85898586D01*
X148032573Y-85898073D01*
X148036539Y-85891114D01*
X148040994Y-85884448D01*
X148040994Y-85883299D01*
X148042234Y-85881124D01*
X148089853Y-85738268D01*
X148090855Y-85730317D01*
X148092419Y-85722456D01*
X148092419Y-85627218D01*
X148090855Y-85619356D01*
X148089853Y-85611406D01*
X148042234Y-85468550D01*
X148040994Y-85466374D01*
X148040994Y-85465227D01*
X148036543Y-85458566D01*
X148032573Y-85451601D01*
X148031545Y-85451087D01*
X148030155Y-85449006D01*
X147934916Y-85353767D01*
X147928249Y-85349312D01*
X147921921Y-85344401D01*
X147826684Y-85296783D01*
X147821402Y-85295336D01*
X147816450Y-85292997D01*
X147625974Y-85245378D01*
X147619856Y-85245080D01*
X147613847Y-85243885D01*
X147470990Y-85243885D01*
X147464980Y-85245080D01*
X147458863Y-85245378D01*
X147268387Y-85292997D01*
X147263434Y-85295336D01*
X147258153Y-85296783D01*
X147162915Y-85344402D01*
X147156580Y-85349317D01*
X147149921Y-85353768D01*
X147054683Y-85449006D01*
X147053291Y-85451088D01*
X147052265Y-85451602D01*
X147048297Y-85458562D01*
X147043844Y-85465227D01*
X147043844Y-85466374D01*
X147042604Y-85468550D01*
X146994985Y-85611407D01*
X146993982Y-85619355D01*
X146992419Y-85627218D01*
X146881308Y-85627218D01*
X146881308Y-84287579D01*
X146992818Y-84287579D01*
X146996225Y-84300071D01*
X146996225Y-84313019D01*
X147001079Y-84317873D01*
X147002887Y-84324500D01*
X147017612Y-84337297D01*
X147854141Y-84815313D01*
X147042419Y-84815313D01*
X147023285Y-84819119D01*
X146996225Y-84846179D01*
X146996225Y-84884447D01*
X147023285Y-84911507D01*
X147042419Y-84915313D01*
X148042419Y-84915313D01*
X148061553Y-84911507D01*
X148066407Y-84906652D01*
X148073034Y-84904845D01*
X148079459Y-84893600D01*
X148088613Y-84884447D01*
X148088613Y-84877581D01*
X148092020Y-84871619D01*
X148088613Y-84859126D01*
X148088613Y-84846179D01*
X148083757Y-84841323D01*
X148081951Y-84834699D01*
X148067226Y-84821901D01*
X147230697Y-84343885D01*
X148042419Y-84343885D01*
X148061553Y-84340079D01*
X148088613Y-84313019D01*
X148088613Y-84274751D01*
X148061553Y-84247691D01*
X148042419Y-84243885D01*
X147042419Y-84243885D01*
X147023285Y-84247691D01*
X147018430Y-84252545D01*
X147011804Y-84254353D01*
X147005378Y-84265597D01*
X146996225Y-84274751D01*
X146996225Y-84281616D01*
X146992818Y-84287579D01*
X146881308Y-84287579D01*
X146881308Y-84132774D01*
X148203530Y-84132774D01*
X148203530Y-86070237D01*
G37*
G36*
X158073420Y-92323531D02*
G01*
X154088464Y-92323531D01*
X154088464Y-91158876D01*
X154199575Y-91158876D01*
X154202015Y-91178231D01*
X154535348Y-92178231D01*
X154545009Y-92195179D01*
X154548350Y-92196849D01*
X154550022Y-92200193D01*
X154565064Y-92205206D01*
X154579238Y-92212294D01*
X154582781Y-92211112D01*
X154586326Y-92212294D01*
X154600505Y-92205204D01*
X154615542Y-92200192D01*
X154617212Y-92196851D01*
X154620555Y-92195180D01*
X154630216Y-92178231D01*
X154905328Y-91352896D01*
X155151830Y-91352896D01*
X155151830Y-91448134D01*
X155153393Y-91455996D01*
X155154396Y-91463945D01*
X155202015Y-91606802D01*
X155203255Y-91608977D01*
X155203255Y-91610125D01*
X155207708Y-91616789D01*
X155211676Y-91623750D01*
X155212702Y-91624263D01*
X155214094Y-91626346D01*
X155700167Y-92112420D01*
X155201830Y-92112420D01*
X155182696Y-92116226D01*
X155155636Y-92143286D01*
X155155636Y-92181554D01*
X155182696Y-92208614D01*
X155201830Y-92212420D01*
X155820877Y-92212420D01*
X155840011Y-92208614D01*
X155867071Y-92181554D01*
X155867071Y-92143286D01*
X156108017Y-92143286D01*
X156108017Y-92181554D01*
X156135077Y-92208614D01*
X156154211Y-92212420D01*
X156725639Y-92212420D01*
X156744773Y-92208614D01*
X156771833Y-92181554D01*
X156771833Y-92143286D01*
X156744773Y-92116226D01*
X156725639Y-92112420D01*
X156489925Y-92112420D01*
X156489925Y-91762333D01*
X157108017Y-91762333D01*
X157108017Y-91800601D01*
X157135077Y-91827661D01*
X157154211Y-91831467D01*
X157485163Y-91831467D01*
X157485163Y-92162420D01*
X157488969Y-92181554D01*
X157516029Y-92208614D01*
X157554297Y-92208614D01*
X157581357Y-92181554D01*
X157585163Y-92162420D01*
X157585163Y-91831467D01*
X157916115Y-91831467D01*
X157935249Y-91827661D01*
X157962309Y-91800601D01*
X157962309Y-91762333D01*
X157935249Y-91735273D01*
X157916115Y-91731467D01*
X157585163Y-91731467D01*
X157585163Y-91400515D01*
X157581357Y-91381381D01*
X157554297Y-91354321D01*
X157516029Y-91354321D01*
X157488969Y-91381381D01*
X157485163Y-91400515D01*
X157485163Y-91731467D01*
X157154211Y-91731467D01*
X157135077Y-91735273D01*
X157108017Y-91762333D01*
X156489925Y-91762333D01*
X156489925Y-91327558D01*
X156493561Y-91333012D01*
X156497057Y-91336516D01*
X156499808Y-91340632D01*
X156595046Y-91435870D01*
X156601705Y-91440320D01*
X156608040Y-91445236D01*
X156703278Y-91492855D01*
X156722094Y-91498008D01*
X156758399Y-91485906D01*
X156775513Y-91451678D01*
X156763411Y-91415374D01*
X156747999Y-91403412D01*
X156660017Y-91359421D01*
X156574022Y-91273426D01*
X156481528Y-91134685D01*
X156467747Y-91120876D01*
X156462699Y-91119866D01*
X156459059Y-91116226D01*
X156444497Y-91116226D01*
X156430222Y-91113371D01*
X156425939Y-91116226D01*
X156420791Y-91116226D01*
X156410494Y-91126522D01*
X156398381Y-91134598D01*
X156397371Y-91139645D01*
X156393731Y-91143286D01*
X156389925Y-91162420D01*
X156389925Y-92112420D01*
X156154211Y-92112420D01*
X156135077Y-92116226D01*
X156108017Y-92143286D01*
X155867071Y-92143286D01*
X155856232Y-92127065D01*
X155293150Y-91563982D01*
X155251830Y-91440020D01*
X155251830Y-91364699D01*
X155290541Y-91287275D01*
X155326686Y-91251131D01*
X155404110Y-91212420D01*
X155618598Y-91212420D01*
X155696021Y-91251131D01*
X155737902Y-91293013D01*
X155754123Y-91303852D01*
X155792392Y-91303852D01*
X155819452Y-91276792D01*
X155819452Y-91238523D01*
X155808613Y-91222302D01*
X155760994Y-91174684D01*
X155754332Y-91170232D01*
X155747999Y-91165317D01*
X155652762Y-91117699D01*
X155650346Y-91117037D01*
X155649535Y-91116226D01*
X155641673Y-91114662D01*
X155633946Y-91112546D01*
X155632857Y-91112908D01*
X155630401Y-91112420D01*
X155392306Y-91112420D01*
X155389849Y-91112908D01*
X155388761Y-91112546D01*
X155381033Y-91114662D01*
X155373172Y-91116226D01*
X155372360Y-91117037D01*
X155369945Y-91117699D01*
X155274707Y-91165318D01*
X155268378Y-91170229D01*
X155261712Y-91174684D01*
X155214094Y-91222303D01*
X155209642Y-91228964D01*
X155204727Y-91235298D01*
X155157109Y-91330535D01*
X155156447Y-91332950D01*
X155155636Y-91333762D01*
X155154072Y-91341623D01*
X155151956Y-91349351D01*
X155152318Y-91350439D01*
X155151830Y-91352896D01*
X154905328Y-91352896D01*
X154963549Y-91178232D01*
X154965989Y-91158876D01*
X154948875Y-91124648D01*
X154912571Y-91112546D01*
X154878342Y-91129661D01*
X154868681Y-91146609D01*
X154582782Y-92004306D01*
X154296883Y-91146609D01*
X154287222Y-91129660D01*
X154252993Y-91112546D01*
X154216689Y-91124647D01*
X154199575Y-91158876D01*
X154088464Y-91158876D01*
X154088464Y-91001309D01*
X158073420Y-91001309D01*
X158073420Y-92323531D01*
G37*
%LPC*%
D11*
%TO.C,U2*%
X144920000Y-95550001D03*
X135920000Y-95550001D03*
D12*
X141920000Y-99490001D03*
D13*
X138920000Y-99490001D03*
X141920000Y-96490001D03*
X138920000Y-96490001D03*
%TD*%
D14*
%TO.C,J5*%
X163130000Y-95600001D03*
X168910000Y-95600001D03*
D15*
X161700000Y-95080001D03*
D16*
X161700000Y-99280001D03*
D15*
X170340000Y-95080001D03*
D16*
X170340000Y-99280001D03*
%TD*%
D17*
%TO.C,J3*%
X140020000Y-82490001D03*
D18*
X142520000Y-82490001D03*
X145020000Y-82490001D03*
X147520000Y-82490001D03*
%TD*%
D19*
%TO.C,J4*%
X165820000Y-80790001D03*
%TD*%
D11*
%TO.C,U3*%
X133720000Y-95550001D03*
X124720000Y-95550001D03*
D12*
X130720000Y-99490001D03*
D13*
X127720000Y-99490001D03*
X130720000Y-96490001D03*
X127720000Y-96490001D03*
%TD*%
D20*
%TO.C,SW1*%
X135720000Y-70090001D03*
D21*
X133180000Y-70090001D03*
X133180000Y-77710001D03*
X135720000Y-77710001D03*
%TD*%
D17*
%TO.C,J1*%
X126570000Y-82465001D03*
D18*
X129070000Y-82465001D03*
X131570000Y-82465001D03*
X134070000Y-82465001D03*
%TD*%
D22*
%TO.C,J7*%
X159000000Y-98805001D03*
X148000000Y-98805001D03*
D23*
X151000000Y-88805001D03*
D24*
X156000000Y-88805001D03*
%TD*%
D25*
%TO.C,J2*%
X141734000Y-68150001D03*
X154434000Y-68150001D03*
D26*
X144524000Y-70690001D03*
D13*
X145540000Y-72470002D03*
X146556000Y-70690001D03*
X147572000Y-72470002D03*
X148588000Y-70690001D03*
X149604000Y-72470002D03*
X150620000Y-70690001D03*
X151635999Y-72470001D03*
X141224000Y-77290001D03*
X143514000Y-77290001D03*
X152654000Y-77290001D03*
X154944000Y-77290001D03*
D27*
X139954000Y-71580001D03*
X156214000Y-71580001D03*
%TD*%
D19*
%TO.C,J6*%
X159920000Y-80790001D03*
%TD*%
%LPD*%
M02*
