%TF.GenerationSoftware,KiCad,Pcbnew,8.0.7-8.0.7-0~ubuntu22.04.1*%
%TF.CreationDate,2025-01-12T20:07:59+01:00*%
%TF.ProjectId,debug_can_usb,64656275-675f-4636-916e-5f7573622e6b,rev?*%
%TF.SameCoordinates,Original*%
%TF.FileFunction,Copper,L1,Top*%
%TF.FilePolarity,Positive*%
%FSLAX46Y46*%
G04 Gerber Fmt 4.6, Leading zero omitted, Abs format (unit mm)*
G04 Created by KiCad (PCBNEW 8.0.7-8.0.7-0~ubuntu22.04.1) date 2025-01-12 20:07:59*
%MOMM*%
%LPD*%
G01*
G04 APERTURE LIST*
G04 Aperture macros list*
%AMRoundRect*
0 Rectangle with rounded corners*
0 $1 Rounding radius*
0 $2 $3 $4 $5 $6 $7 $8 $9 X,Y pos of 4 corners*
0 Add a 4 corners polygon primitive as box body*
4,1,4,$2,$3,$4,$5,$6,$7,$8,$9,$2,$3,0*
0 Add four circle primitives for the rounded corners*
1,1,$1+$1,$2,$3*
1,1,$1+$1,$4,$5*
1,1,$1+$1,$6,$7*
1,1,$1+$1,$8,$9*
0 Add four rect primitives between the rounded corners*
20,1,$1+$1,$2,$3,$4,$5,0*
20,1,$1+$1,$4,$5,$6,$7,0*
20,1,$1+$1,$6,$7,$8,$9,0*
20,1,$1+$1,$8,$9,$2,$3,0*%
G04 Aperture macros list end*
%TA.AperFunction,SMDPad,CuDef*%
%ADD10RoundRect,0.200000X-0.275000X0.200000X-0.275000X-0.200000X0.275000X-0.200000X0.275000X0.200000X0*%
%TD*%
%TA.AperFunction,SMDPad,CuDef*%
%ADD11RoundRect,0.218750X0.218750X0.256250X-0.218750X0.256250X-0.218750X-0.256250X0.218750X-0.256250X0*%
%TD*%
%TA.AperFunction,SMDPad,CuDef*%
%ADD12RoundRect,0.135000X-0.135000X-0.185000X0.135000X-0.185000X0.135000X0.185000X-0.135000X0.185000X0*%
%TD*%
%TA.AperFunction,SMDPad,CuDef*%
%ADD13RoundRect,0.250000X-0.650000X1.000000X-0.650000X-1.000000X0.650000X-1.000000X0.650000X1.000000X0*%
%TD*%
%TA.AperFunction,ComponentPad*%
%ADD14RoundRect,0.250001X0.499999X0.499999X-0.499999X0.499999X-0.499999X-0.499999X0.499999X-0.499999X0*%
%TD*%
%TA.AperFunction,ComponentPad*%
%ADD15C,1.500000*%
%TD*%
%TA.AperFunction,SMDPad,CuDef*%
%ADD16RoundRect,0.135000X-0.185000X0.135000X-0.185000X-0.135000X0.185000X-0.135000X0.185000X0.135000X0*%
%TD*%
%TA.AperFunction,SMDPad,CuDef*%
%ADD17R,0.600000X1.240000*%
%TD*%
%TA.AperFunction,SMDPad,CuDef*%
%ADD18R,0.300000X1.240000*%
%TD*%
%TA.AperFunction,ComponentPad*%
%ADD19O,1.000000X2.100000*%
%TD*%
%TA.AperFunction,ComponentPad*%
%ADD20O,1.000000X1.800000*%
%TD*%
%TA.AperFunction,SMDPad,CuDef*%
%ADD21RoundRect,0.135000X0.135000X0.185000X-0.135000X0.185000X-0.135000X-0.185000X0.135000X-0.185000X0*%
%TD*%
%TA.AperFunction,ComponentPad*%
%ADD22RoundRect,0.250000X-0.600000X-0.725000X0.600000X-0.725000X0.600000X0.725000X-0.600000X0.725000X0*%
%TD*%
%TA.AperFunction,ComponentPad*%
%ADD23O,1.700000X1.950000*%
%TD*%
%TA.AperFunction,ComponentPad*%
%ADD24R,1.700000X1.700000*%
%TD*%
%TA.AperFunction,ComponentPad*%
%ADD25R,1.600000X1.600000*%
%TD*%
%TA.AperFunction,ComponentPad*%
%ADD26O,1.600000X1.600000*%
%TD*%
%TA.AperFunction,ComponentPad*%
%ADD27C,1.400000*%
%TD*%
%TA.AperFunction,ComponentPad*%
%ADD28RoundRect,0.770000X0.980000X0.980000X-0.980000X0.980000X-0.980000X-0.980000X0.980000X-0.980000X0*%
%TD*%
%TA.AperFunction,ComponentPad*%
%ADD29C,3.500000*%
%TD*%
%TA.AperFunction,ComponentPad*%
%ADD30R,1.500000X1.500000*%
%TD*%
%TA.AperFunction,ComponentPad*%
%ADD31C,2.300000*%
%TD*%
%TA.AperFunction,ViaPad*%
%ADD32C,0.550000*%
%TD*%
%TA.AperFunction,Conductor*%
%ADD33C,0.750000*%
%TD*%
%TA.AperFunction,Conductor*%
%ADD34C,0.254000*%
%TD*%
%TA.AperFunction,Conductor*%
%ADD35C,0.300000*%
%TD*%
%TA.AperFunction,Conductor*%
%ADD36C,0.160000*%
%TD*%
%TA.AperFunction,Conductor*%
%ADD37C,1.000000*%
%TD*%
G04 APERTURE END LIST*
D10*
%TO.P,R2,1*%
%TO.N,/CAN/CAN1-*%
X135820000Y-65965001D03*
%TO.P,R2,2*%
%TO.N,Net-(R2-Pad2)*%
X135820000Y-67615001D03*
%TD*%
D11*
%TO.P,D1,1,K*%
%TO.N,GND*%
X161697502Y-85490001D03*
%TO.P,D1,2,A*%
%TO.N,Net-(D1-A)*%
X160122500Y-85490001D03*
%TD*%
D12*
%TO.P,R1,1*%
%TO.N,Net-(J5-VBUS-PadA4)*%
X157700001Y-85590001D03*
%TO.P,R1,2*%
%TO.N,Net-(D1-A)*%
X158720001Y-85590001D03*
%TD*%
D13*
%TO.P,D3,1,K*%
%TO.N,+12V*%
X153020000Y-80690000D03*
%TO.P,D3,2,A*%
%TO.N,Net-(D3-A)*%
X153020000Y-84690002D03*
%TD*%
D14*
%TO.P,U2,1,Pin_1*%
%TO.N,GND*%
X141920000Y-99490001D03*
D15*
%TO.P,U2,2,Pin_2*%
%TO.N,unconnected-(U2-Pin_2-Pad2)*%
X138920000Y-99490001D03*
%TO.P,U2,3,Pin_3*%
%TO.N,/CAN/CAN2+*%
X141920000Y-96490001D03*
%TO.P,U2,4,Pin_4*%
%TO.N,/CAN/CAN2-*%
X138920000Y-96490001D03*
%TD*%
D16*
%TO.P,R5,1*%
%TO.N,GND*%
X164620000Y-91880002D03*
%TO.P,R5,2*%
%TO.N,Net-(J5-CC1)*%
X164620000Y-92900000D03*
%TD*%
D10*
%TO.P,R3,1*%
%TO.N,/CAN/CAN2+*%
X133320000Y-65865001D03*
%TO.P,R3,2*%
%TO.N,Net-(R3-Pad2)*%
X133320000Y-67515001D03*
%TD*%
D17*
%TO.P,J5,A1,GND*%
%TO.N,GND*%
X162820000Y-94480001D03*
%TO.P,J5,A4,VBUS*%
%TO.N,Net-(J5-VBUS-PadA4)*%
X163620000Y-94480001D03*
D18*
%TO.P,J5,A5,CC1*%
%TO.N,Net-(J5-CC1)*%
X164770000Y-94480001D03*
%TO.P,J5,A6,D+*%
%TO.N,/CAN/USB_DOWNSTREAM_D+*%
X165770000Y-94480001D03*
%TO.P,J5,A7,D-*%
%TO.N,/CAN/USB_DOWNSTREAM_D-*%
X166270000Y-94480001D03*
%TO.P,J5,A8,SBU1*%
%TO.N,unconnected-(J5-SBU1-PadA8)*%
X167270000Y-94480001D03*
D17*
%TO.P,J5,A9,VBUS*%
%TO.N,Net-(J5-VBUS-PadA4)*%
X168420000Y-94480001D03*
%TO.P,J5,A12,GND*%
%TO.N,GND*%
X169220000Y-94480001D03*
%TO.P,J5,B1,GND*%
X169220000Y-94480001D03*
%TO.P,J5,B4,VBUS*%
%TO.N,Net-(J5-VBUS-PadA4)*%
X168420000Y-94480001D03*
D18*
%TO.P,J5,B5,CC2*%
%TO.N,Net-(J5-CC2)*%
X167770000Y-94480001D03*
%TO.P,J5,B6,D+*%
%TO.N,/CAN/USB_DOWNSTREAM_D+*%
X166770000Y-94480001D03*
%TO.P,J5,B7,D-*%
%TO.N,/CAN/USB_DOWNSTREAM_D-*%
X165270000Y-94480001D03*
%TO.P,J5,B8,SBU2*%
%TO.N,unconnected-(J5-SBU2-PadB8)*%
X164270000Y-94480001D03*
D17*
%TO.P,J5,B9,VBUS*%
%TO.N,Net-(J5-VBUS-PadA4)*%
X163620000Y-94480001D03*
%TO.P,J5,B12,GND*%
%TO.N,GND*%
X162820000Y-94480001D03*
D19*
%TO.P,J5,S1,SHIELD*%
X161700000Y-95080001D03*
D20*
X161700000Y-99280001D03*
D19*
X170340000Y-95080001D03*
D20*
X170340000Y-99280001D03*
%TD*%
D11*
%TO.P,D2,1,K*%
%TO.N,GND*%
X161685003Y-83690001D03*
%TO.P,D2,2,A*%
%TO.N,Net-(D2-A)*%
X160110001Y-83690001D03*
%TD*%
D21*
%TO.P,R4,1*%
%TO.N,GND*%
X168929999Y-92790001D03*
%TO.P,R4,2*%
%TO.N,Net-(J5-CC2)*%
X167910001Y-92790001D03*
%TD*%
D22*
%TO.P,J3,1,Pin_1*%
%TO.N,GND*%
X140020000Y-82490001D03*
D23*
%TO.P,J3,2,Pin_2*%
%TO.N,/CAN/CAN2-*%
X142520000Y-82490001D03*
%TO.P,J3,3,Pin_3*%
%TO.N,/CAN/CAN2+*%
X145020000Y-82490001D03*
%TO.P,J3,4,Pin_4*%
%TO.N,unconnected-(J3-Pin_4-Pad4)*%
X147520000Y-82490001D03*
%TD*%
D24*
%TO.P,J4,1,Pin_1*%
%TO.N,/CAN/USB_DOWNSTREAM_D-*%
X165820000Y-80790001D03*
%TD*%
D14*
%TO.P,U3,1,Pin_1*%
%TO.N,GND*%
X130720000Y-99490001D03*
D15*
%TO.P,U3,2,Pin_2*%
%TO.N,unconnected-(U3-Pin_2-Pad2)*%
X127720000Y-99490001D03*
%TO.P,U3,3,Pin_3*%
%TO.N,/CAN/CAN1+*%
X130720000Y-96490001D03*
%TO.P,U3,4,Pin_4*%
%TO.N,/CAN/CAN1-*%
X127720000Y-96490001D03*
%TD*%
D21*
%TO.P,R6,1*%
%TO.N,Net-(D2-A)*%
X158720000Y-83690001D03*
%TO.P,R6,2*%
%TO.N,+12V*%
X157700002Y-83690001D03*
%TD*%
D25*
%TO.P,SW1,1*%
%TO.N,Net-(R2-Pad2)*%
X135720000Y-70090001D03*
D26*
%TO.P,SW1,2*%
%TO.N,Net-(R3-Pad2)*%
X133180000Y-70090001D03*
%TO.P,SW1,3*%
%TO.N,/CAN/CAN2-*%
X133180000Y-77710001D03*
%TO.P,SW1,4*%
%TO.N,/CAN/CAN1+*%
X135720000Y-77710001D03*
%TD*%
D22*
%TO.P,J1,1,Pin_1*%
%TO.N,GND*%
X126570000Y-82465001D03*
D23*
%TO.P,J1,2,Pin_2*%
%TO.N,/CAN/CAN1-*%
X129070000Y-82465001D03*
%TO.P,J1,3,Pin_3*%
%TO.N,/CAN/CAN1+*%
X131570000Y-82465001D03*
%TO.P,J1,4,Pin_4*%
%TO.N,unconnected-(J1-Pin_4-Pad4)*%
X134070000Y-82465001D03*
%TD*%
D27*
%TO.P,J7,*%
%TO.N,*%
X159000000Y-98805001D03*
X148000000Y-98805001D03*
D28*
%TO.P,J7,1,Pin_1*%
%TO.N,GND*%
X151000000Y-88805001D03*
D29*
%TO.P,J7,2,Pin_2*%
%TO.N,Net-(D3-A)*%
X156000000Y-88805001D03*
%TD*%
D30*
%TO.P,J2,1*%
%TO.N,/CAN/CAN1-*%
X144524000Y-70690001D03*
D15*
%TO.P,J2,2*%
%TO.N,/CAN/CAN1+*%
X145540000Y-72470002D03*
%TO.P,J2,3*%
%TO.N,GND*%
X146556000Y-70690001D03*
%TO.P,J2,4*%
%TO.N,/CAN/CAN2-*%
X147572000Y-72470002D03*
%TO.P,J2,5*%
%TO.N,/CAN/CAN2+*%
X148588000Y-70690001D03*
%TO.P,J2,6*%
%TO.N,+12V*%
X149604000Y-72470002D03*
%TO.P,J2,7*%
%TO.N,/CAN/USB_DOWNSTREAM_D-*%
X150620000Y-70690001D03*
%TO.P,J2,8*%
%TO.N,/CAN/USB_DOWNSTREAM_D+*%
X151635999Y-72470001D03*
%TO.P,J2,9*%
%TO.N,unconnected-(J2-Pad9)*%
X141224000Y-77290001D03*
%TO.P,J2,10*%
%TO.N,unconnected-(J2-Pad10)*%
X143514000Y-77290001D03*
%TO.P,J2,11*%
%TO.N,unconnected-(J2-Pad11)*%
X152654000Y-77290001D03*
%TO.P,J2,12*%
%TO.N,unconnected-(J2-Pad12)*%
X154944000Y-77290001D03*
D31*
%TO.P,J2,SH*%
%TO.N,GND*%
X139954000Y-71580001D03*
X156214000Y-71580001D03*
%TD*%
D24*
%TO.P,J6,1,Pin_1*%
%TO.N,/CAN/USB_DOWNSTREAM_D+*%
X159920000Y-80790001D03*
%TD*%
D32*
%TO.N,/CAN/USB_DOWNSTREAM_D+*%
X165620000Y-92690001D03*
X166920000Y-92690001D03*
%TO.N,Net-(J5-VBUS-PadA4)*%
X168420000Y-94480001D03*
X163620000Y-93290001D03*
%TD*%
D33*
%TO.N,+12V*%
X149604000Y-77774001D02*
X152519999Y-80690000D01*
X153020000Y-80690000D02*
X156020001Y-83690001D01*
X156020001Y-83690001D02*
X157700002Y-83690001D01*
X152519999Y-80690000D02*
X153020000Y-80690000D01*
X149604000Y-72470002D02*
X149604000Y-77774001D01*
D34*
%TO.N,/CAN/USB_DOWNSTREAM_D+*%
X151839000Y-71671001D02*
X153149177Y-71671001D01*
X161944089Y-80465912D02*
X165770000Y-84291824D01*
X161620000Y-80790001D02*
X159720000Y-80790001D01*
X151635999Y-71874002D02*
X151839000Y-71671001D01*
X165770000Y-84291824D02*
X165770000Y-94480001D01*
X151635999Y-72470001D02*
X151635999Y-71874002D01*
X166920000Y-92690001D02*
X166770000Y-92840001D01*
X153149177Y-71671001D02*
X161944089Y-80465912D01*
X166770000Y-92840001D02*
X166770000Y-94480001D01*
X161944089Y-80465912D02*
X161620000Y-80790001D01*
%TO.N,/CAN/USB_DOWNSTREAM_D-*%
X165270000Y-95258001D02*
X165366000Y-95354001D01*
X165620000Y-80790001D02*
X165820000Y-80790001D01*
X165366000Y-95354001D02*
X166174000Y-95354001D01*
X164253792Y-82156209D02*
X166270000Y-84172416D01*
X151300830Y-70690001D02*
X151800830Y-71190001D01*
X151800830Y-71190001D02*
X153287585Y-71190001D01*
X153287585Y-71190001D02*
X164253792Y-82156209D01*
X166270000Y-84172416D02*
X166270000Y-94480001D01*
X165270000Y-94480001D02*
X165270000Y-95258001D01*
X165820000Y-80790001D02*
X165920000Y-80890001D01*
X164253792Y-82156209D02*
X165620000Y-80790001D01*
X166270000Y-95258001D02*
X166270000Y-94480001D01*
X150620000Y-70690001D02*
X151300830Y-70690001D01*
X166174000Y-95354001D02*
X166270000Y-95258001D01*
D35*
%TO.N,Net-(J5-CC2)*%
X167770000Y-94480001D02*
X167770000Y-92930002D01*
X167770000Y-92930002D02*
X167910001Y-92790001D01*
%TO.N,Net-(J5-CC1)*%
X164770000Y-93050000D02*
X164770000Y-94480001D01*
X164620000Y-92900000D02*
X164770000Y-93050000D01*
%TO.N,/CAN/CAN2-*%
X140420000Y-79690001D02*
X142520000Y-81790001D01*
X133180000Y-77710001D02*
X133180000Y-78841371D01*
X140119999Y-95290002D02*
X140119999Y-91465736D01*
X142520000Y-83465001D02*
X142520000Y-82490001D01*
X142520000Y-82490001D02*
X142520000Y-81515001D01*
X143470000Y-84610393D02*
X143470000Y-84415001D01*
X142520000Y-81515001D02*
X143470000Y-80565001D01*
X143470000Y-80565001D02*
X143470000Y-80215735D01*
X142520000Y-81790001D02*
X142520000Y-82490001D01*
X147479763Y-76205972D02*
X147479763Y-72562239D01*
X143420000Y-88165735D02*
X143420000Y-84660393D01*
X134028630Y-79690001D02*
X140420000Y-79690001D01*
X143470000Y-84415001D02*
X142520000Y-83465001D01*
X147479763Y-72562239D02*
X147572000Y-72470002D01*
X138920000Y-96490001D02*
X140119999Y-95290002D01*
X143470000Y-80215735D02*
X147479763Y-76205972D01*
X133180000Y-78841371D02*
X134028630Y-79690001D01*
X143420000Y-84660393D02*
X143470000Y-84610393D01*
X140119999Y-91465736D02*
X143420000Y-88165735D01*
%TO.N,/CAN/CAN2+*%
X144020000Y-88414267D02*
X144020000Y-84890001D01*
X144070000Y-80565001D02*
X144070000Y-80464267D01*
D36*
X148588000Y-70690001D02*
X148574000Y-70704001D01*
D35*
X144020000Y-64190001D02*
X148588000Y-68758001D01*
X145020000Y-83465001D02*
X145020000Y-82490001D01*
X148079763Y-76454504D02*
X148079763Y-74190001D01*
X145020000Y-81515001D02*
X144070000Y-80565001D01*
X144070000Y-84415001D02*
X145020000Y-83465001D01*
X144070000Y-80464267D02*
X148079763Y-76454504D01*
X140720001Y-95290002D02*
X140720001Y-91714266D01*
X141920000Y-96490001D02*
X140720001Y-95290002D01*
X140720001Y-91714266D02*
X144020000Y-88414267D01*
X144070000Y-84840001D02*
X144070000Y-84415001D01*
X133320000Y-65865001D02*
X134995000Y-64190001D01*
X144020000Y-84890001D02*
X144070000Y-84840001D01*
D36*
X148574000Y-70704001D02*
X148574000Y-73515882D01*
D35*
X134995000Y-64190001D02*
X144020000Y-64190001D01*
D36*
X148079763Y-74010119D02*
X148079763Y-74190001D01*
D35*
X145020000Y-82490001D02*
X145020000Y-81515001D01*
X148588000Y-68758001D02*
X148588000Y-70690001D01*
D36*
X148574000Y-73515882D02*
X148079763Y-74010119D01*
D35*
%TO.N,/CAN/CAN1-*%
X141995734Y-73890001D02*
X144197728Y-71688007D01*
X129070000Y-82465001D02*
X129070000Y-81490001D01*
X136395000Y-65390001D02*
X142820000Y-65390001D01*
X132620000Y-73890001D02*
X141995734Y-73890001D01*
X129070000Y-82590001D02*
X129070000Y-82465001D01*
X130020000Y-83540001D02*
X129070000Y-82590001D01*
X130020000Y-80540001D02*
X130020000Y-76490001D01*
X128920000Y-95290001D02*
X128920000Y-92190001D01*
X129920000Y-83750751D02*
X130020000Y-83650751D01*
X127720000Y-96490001D02*
X128920000Y-95290001D01*
X144524000Y-67094001D02*
X144524000Y-70690001D01*
X130020000Y-83650751D02*
X130020000Y-83540001D01*
X129920000Y-91190001D02*
X129920000Y-83750751D01*
X144197728Y-71688007D02*
X144197728Y-71016273D01*
X129070000Y-81490001D02*
X130020000Y-80540001D01*
X130020000Y-76490001D02*
X132620000Y-73890001D01*
X142820000Y-65390001D02*
X144524000Y-67094001D01*
X144197728Y-71016273D02*
X144524000Y-70690001D01*
X128920000Y-92190001D02*
X129920000Y-91190001D01*
X135820000Y-65965001D02*
X136395000Y-65390001D01*
%TO.N,/CAN/CAN1+*%
X132868528Y-74490001D02*
X135720000Y-74490001D01*
X130520000Y-91438529D02*
X130520000Y-83990001D01*
X129520000Y-95290001D02*
X129520000Y-92438529D01*
X144621994Y-72112273D02*
X145182271Y-72112273D01*
X145182271Y-72112273D02*
X145540000Y-72470002D01*
X130520000Y-83990001D02*
X130620000Y-83890001D01*
X130620000Y-76738529D02*
X132868528Y-74490001D01*
X131570000Y-82590001D02*
X131570000Y-82465001D01*
X135720000Y-77710001D02*
X135720000Y-74490001D01*
X131570000Y-82465001D02*
X131570000Y-81490001D01*
X142244266Y-74490001D02*
X144621994Y-72112273D01*
X131570000Y-81490001D02*
X130620000Y-80540001D01*
X130620000Y-83540001D02*
X131570000Y-82590001D01*
X130720000Y-96490001D02*
X129520000Y-95290001D01*
X135720000Y-74490001D02*
X142244266Y-74490001D01*
X130620000Y-83890001D02*
X130620000Y-83540001D01*
X130620000Y-80540001D02*
X130620000Y-76738529D01*
X129520000Y-92438529D02*
X130520000Y-91438529D01*
%TO.N,Net-(D1-A)*%
X160022500Y-85590001D02*
X160122500Y-85490001D01*
X158720001Y-85590001D02*
X160022500Y-85590001D01*
%TO.N,Net-(D2-A)*%
X160110001Y-83690001D02*
X158720000Y-83690001D01*
%TO.N,Net-(J5-VBUS-PadA4)*%
X163620000Y-93290001D02*
X163620000Y-94480001D01*
X168395001Y-94505000D02*
X168420000Y-94480001D01*
X163620000Y-91590001D02*
X163620000Y-93290001D01*
X157700001Y-85590001D02*
X157700001Y-85670002D01*
X168395001Y-94918757D02*
X168395001Y-94505000D01*
X157700001Y-85670002D02*
X163620000Y-91590001D01*
%TO.N,Net-(R2-Pad2)*%
X135820000Y-67615001D02*
X135820000Y-69990001D01*
X135820000Y-69990001D02*
X135720000Y-70090001D01*
%TO.N,Net-(R3-Pad2)*%
X133320000Y-67515001D02*
X133320000Y-69950001D01*
X133320000Y-69950001D02*
X133180000Y-70090001D01*
D37*
%TO.N,Net-(D3-A)*%
X156000000Y-88170001D02*
X156000000Y-88805001D01*
X153020000Y-84690002D02*
X153020000Y-85190001D01*
X153020000Y-85190001D02*
X156000000Y-88170001D01*
%TD*%
%TA.AperFunction,Conductor*%
%TO.N,GND*%
G36*
X134589408Y-63010186D02*
G01*
X134635163Y-63062990D01*
X134645107Y-63132148D01*
X134616082Y-63195704D01*
X134569821Y-63229062D01*
X134497408Y-63259055D01*
X134497395Y-63259062D01*
X134325345Y-63374023D01*
X134325341Y-63374026D01*
X133171188Y-64528182D01*
X133109865Y-64561667D01*
X133083507Y-64564501D01*
X132960962Y-64564501D01*
X132930416Y-64566320D01*
X132913749Y-64567313D01*
X132708397Y-64611985D01*
X132708386Y-64611988D01*
X132515191Y-64694719D01*
X132341137Y-64812522D01*
X132341132Y-64812526D01*
X132192525Y-64961133D01*
X132192521Y-64961138D01*
X132074718Y-65135192D01*
X131991987Y-65328387D01*
X131991984Y-65328398D01*
X131947312Y-65533750D01*
X131947312Y-65533756D01*
X131944500Y-65580963D01*
X131944500Y-66149039D01*
X131946484Y-66182361D01*
X131947312Y-66196251D01*
X131991984Y-66401603D01*
X131991987Y-66401614D01*
X132074718Y-66594809D01*
X132074720Y-66594812D01*
X132074721Y-66594814D01*
X132192523Y-66768866D01*
X132341135Y-66917478D01*
X132515187Y-67035280D01*
X132584335Y-67064891D01*
X132638211Y-67109374D01*
X132659486Y-67175926D01*
X132657994Y-67198275D01*
X132644500Y-67283475D01*
X132644500Y-67746518D01*
X132650206Y-67782542D01*
X132659354Y-67840305D01*
X132716950Y-67953343D01*
X132716952Y-67953345D01*
X132716954Y-67953348D01*
X132806652Y-68043046D01*
X132806656Y-68043049D01*
X132806658Y-68043051D01*
X132901797Y-68091527D01*
X132952591Y-68139500D01*
X132969500Y-68202010D01*
X132969500Y-69016371D01*
X132949815Y-69083410D01*
X132897011Y-69129165D01*
X132881496Y-69135031D01*
X132795271Y-69161187D01*
X132621467Y-69254087D01*
X132621460Y-69254091D01*
X132469116Y-69379117D01*
X132344090Y-69531461D01*
X132344086Y-69531468D01*
X132251188Y-69705267D01*
X132193975Y-69893871D01*
X132174659Y-70090001D01*
X132193975Y-70286130D01*
X132251188Y-70474734D01*
X132344086Y-70648533D01*
X132344090Y-70648540D01*
X132469116Y-70800884D01*
X132621460Y-70925910D01*
X132621467Y-70925914D01*
X132795266Y-71018812D01*
X132795269Y-71018812D01*
X132795273Y-71018815D01*
X132983868Y-71076025D01*
X133180000Y-71095342D01*
X133376132Y-71076025D01*
X133564727Y-71018815D01*
X133738538Y-70925911D01*
X133890883Y-70800884D01*
X134015910Y-70648539D01*
X134108814Y-70474728D01*
X134166024Y-70286133D01*
X134185341Y-70090001D01*
X134166024Y-69893869D01*
X134108814Y-69705274D01*
X134108811Y-69705270D01*
X134108811Y-69705267D01*
X134015913Y-69531468D01*
X134015909Y-69531461D01*
X133890883Y-69379117D01*
X133738533Y-69254087D01*
X133736035Y-69252752D01*
X133734972Y-69251708D01*
X133733467Y-69250702D01*
X133733657Y-69250416D01*
X133686196Y-69203784D01*
X133670500Y-69143400D01*
X133670500Y-68202010D01*
X133690185Y-68134971D01*
X133738202Y-68091527D01*
X133833342Y-68043051D01*
X133923050Y-67953343D01*
X133980646Y-67840305D01*
X133980646Y-67840303D01*
X133980647Y-67840302D01*
X133995499Y-67746525D01*
X133995500Y-67746520D01*
X133995499Y-67283483D01*
X133982004Y-67198273D01*
X133990960Y-67128981D01*
X134035957Y-67075530D01*
X134055654Y-67064895D01*
X134124813Y-67035280D01*
X134298865Y-66917478D01*
X134447059Y-66769283D01*
X134508379Y-66735801D01*
X134578070Y-66740785D01*
X134634004Y-66782656D01*
X134637427Y-66787464D01*
X134692515Y-66868856D01*
X134692521Y-66868863D01*
X134692523Y-66868866D01*
X134841135Y-67017478D01*
X135015187Y-67135280D01*
X135084335Y-67164891D01*
X135138211Y-67209374D01*
X135159486Y-67275926D01*
X135157994Y-67298275D01*
X135144500Y-67383475D01*
X135144500Y-67846518D01*
X135155292Y-67914658D01*
X135159354Y-67940305D01*
X135216950Y-68053343D01*
X135216952Y-68053345D01*
X135216954Y-68053348D01*
X135306652Y-68143046D01*
X135306656Y-68143049D01*
X135306658Y-68143051D01*
X135401797Y-68191527D01*
X135452591Y-68239500D01*
X135469500Y-68302010D01*
X135469500Y-68965501D01*
X135449815Y-69032540D01*
X135397011Y-69078295D01*
X135345500Y-69089501D01*
X134900247Y-69089501D01*
X134841770Y-69101132D01*
X134841769Y-69101133D01*
X134775447Y-69145448D01*
X134731132Y-69211770D01*
X134731131Y-69211771D01*
X134719500Y-69270248D01*
X134719500Y-70909753D01*
X134731131Y-70968230D01*
X134731132Y-70968231D01*
X134775447Y-71034553D01*
X134841769Y-71078868D01*
X134841770Y-71078869D01*
X134900247Y-71090500D01*
X134900250Y-71090501D01*
X134900252Y-71090501D01*
X136539750Y-71090501D01*
X136539751Y-71090500D01*
X136554568Y-71087553D01*
X136598229Y-71078869D01*
X136598229Y-71078868D01*
X136598231Y-71078868D01*
X136664552Y-71034553D01*
X136708867Y-70968232D01*
X136708867Y-70968230D01*
X136708868Y-70968230D01*
X136720499Y-70909753D01*
X136720500Y-70909751D01*
X136720500Y-69270250D01*
X136720499Y-69270248D01*
X136708868Y-69211771D01*
X136708867Y-69211770D01*
X136664552Y-69145448D01*
X136598230Y-69101133D01*
X136598229Y-69101132D01*
X136539752Y-69089501D01*
X136539748Y-69089501D01*
X136294500Y-69089501D01*
X136227461Y-69069816D01*
X136181706Y-69017012D01*
X136170500Y-68965501D01*
X136170500Y-68302010D01*
X136190185Y-68234971D01*
X136238202Y-68191527D01*
X136333342Y-68143051D01*
X136423050Y-68053343D01*
X136480646Y-67940305D01*
X136480646Y-67940303D01*
X136480647Y-67940302D01*
X136495499Y-67846525D01*
X136495500Y-67846520D01*
X136495499Y-67383483D01*
X136482004Y-67298273D01*
X136490960Y-67228981D01*
X136535957Y-67175530D01*
X136555654Y-67164895D01*
X136624813Y-67135280D01*
X136798865Y-67017478D01*
X136947477Y-66868866D01*
X137065279Y-66694814D01*
X137141985Y-66515688D01*
X137186470Y-66461811D01*
X137253022Y-66440536D01*
X137255973Y-66440501D01*
X140509155Y-66440501D01*
X140576194Y-66460186D01*
X140621949Y-66512990D01*
X140631893Y-66582148D01*
X140602868Y-66645704D01*
X140584641Y-66662877D01*
X140492101Y-66733884D01*
X140492094Y-66733890D01*
X140317889Y-66908095D01*
X140317883Y-66908102D01*
X140167899Y-67103566D01*
X140044712Y-67316932D01*
X140044708Y-67316942D01*
X139950425Y-67544560D01*
X139886660Y-67782539D01*
X139886658Y-67782550D01*
X139854500Y-68026804D01*
X139854500Y-68273197D01*
X139877986Y-68451580D01*
X139886659Y-68517460D01*
X139886660Y-68517462D01*
X139950425Y-68755441D01*
X140044708Y-68983059D01*
X140044712Y-68983069D01*
X140167899Y-69196435D01*
X140317883Y-69391899D01*
X140317889Y-69391906D01*
X140492094Y-69566111D01*
X140492101Y-69566117D01*
X140687565Y-69716101D01*
X140900931Y-69839288D01*
X140900932Y-69839288D01*
X140900935Y-69839290D01*
X141128558Y-69933575D01*
X141366541Y-69997342D01*
X141610811Y-70029501D01*
X141610818Y-70029501D01*
X141857182Y-70029501D01*
X141857189Y-70029501D01*
X142101459Y-69997342D01*
X142339442Y-69933575D01*
X142567065Y-69839290D01*
X142687500Y-69769757D01*
X142755400Y-69753284D01*
X142821427Y-69776137D01*
X142864618Y-69831058D01*
X142873500Y-69877144D01*
X142873500Y-71475240D01*
X142853815Y-71542279D01*
X142837181Y-71562921D01*
X141596922Y-72803182D01*
X141535599Y-72836667D01*
X141509241Y-72839501D01*
X132516530Y-72839501D01*
X132313587Y-72879869D01*
X132313579Y-72879871D01*
X132122403Y-72959059D01*
X131950344Y-73074024D01*
X131879013Y-73145356D01*
X131804023Y-73220346D01*
X131804020Y-73220349D01*
X129350348Y-75674021D01*
X129350345Y-75674024D01*
X129304891Y-75719478D01*
X129204023Y-75820345D01*
X129089058Y-75992404D01*
X129009870Y-76183580D01*
X129009868Y-76183588D01*
X128969500Y-76386531D01*
X128969500Y-80053507D01*
X128949815Y-80120546D01*
X128933181Y-80141188D01*
X128400347Y-80674022D01*
X128400343Y-80674024D01*
X128400344Y-80674025D01*
X128334766Y-80739601D01*
X128297555Y-80764468D01*
X128297750Y-80764863D01*
X128294755Y-80766339D01*
X128294562Y-80766469D01*
X128294131Y-80766647D01*
X128294104Y-80766660D01*
X128095382Y-80881393D01*
X127913338Y-81021082D01*
X127751081Y-81183339D01*
X127611392Y-81365383D01*
X127496657Y-81564110D01*
X127496650Y-81564124D01*
X127408842Y-81776113D01*
X127349453Y-81997760D01*
X127349451Y-81997771D01*
X127319500Y-82225259D01*
X127319500Y-82704742D01*
X127344446Y-82894216D01*
X127349452Y-82932239D01*
X127393014Y-83094816D01*
X127408842Y-83153888D01*
X127496650Y-83365877D01*
X127496657Y-83365891D01*
X127611392Y-83564618D01*
X127751081Y-83746662D01*
X127751089Y-83746671D01*
X127913330Y-83908912D01*
X127913338Y-83908919D01*
X127913339Y-83908920D01*
X127963962Y-83947765D01*
X128095382Y-84048608D01*
X128095385Y-84048609D01*
X128095388Y-84048612D01*
X128294112Y-84163345D01*
X128294117Y-84163347D01*
X128294123Y-84163350D01*
X128358810Y-84190144D01*
X128506113Y-84251159D01*
X128727755Y-84310547D01*
X128727762Y-84310549D01*
X128761687Y-84315015D01*
X128825579Y-84343278D01*
X128864052Y-84401602D01*
X128869500Y-84437953D01*
X128869500Y-89428106D01*
X128849904Y-89494840D01*
X128866666Y-89525537D01*
X128869500Y-89551895D01*
X128869500Y-90703507D01*
X128849815Y-90770546D01*
X128833181Y-90791188D01*
X128250347Y-91374022D01*
X128250345Y-91374024D01*
X128209999Y-91414370D01*
X128104023Y-91520345D01*
X127989058Y-91692404D01*
X127909870Y-91883580D01*
X127909868Y-91883588D01*
X127869500Y-92086531D01*
X127869500Y-94712020D01*
X127849815Y-94779059D01*
X127797011Y-94824814D01*
X127735774Y-94835638D01*
X127720001Y-94834397D01*
X127720000Y-94834397D01*
X127695810Y-94836300D01*
X127461009Y-94854779D01*
X127208389Y-94915428D01*
X126968376Y-95014844D01*
X126746859Y-95150589D01*
X126549311Y-95319312D01*
X126380588Y-95516860D01*
X126244843Y-95738377D01*
X126145427Y-95978390D01*
X126084778Y-96231010D01*
X126064396Y-96490001D01*
X126084778Y-96748991D01*
X126145427Y-97001611D01*
X126244843Y-97241624D01*
X126244845Y-97241628D01*
X126244846Y-97241629D01*
X126380588Y-97463141D01*
X126549311Y-97660690D01*
X126746860Y-97829413D01*
X126968372Y-97965155D01*
X126968374Y-97965155D01*
X126968376Y-97965157D01*
X127029693Y-97990555D01*
X127208390Y-98064574D01*
X127461006Y-98125222D01*
X127720000Y-98145605D01*
X127978994Y-98125222D01*
X128231610Y-98064574D01*
X128471628Y-97965155D01*
X128693140Y-97829413D01*
X128890689Y-97660690D01*
X129059412Y-97463141D01*
X129114272Y-97373616D01*
X129166084Y-97326741D01*
X129235014Y-97315318D01*
X129299177Y-97342975D01*
X129325727Y-97373616D01*
X129380588Y-97463141D01*
X129549311Y-97660690D01*
X129746860Y-97829413D01*
X129968372Y-97965155D01*
X129968374Y-97965155D01*
X129968376Y-97965157D01*
X130029693Y-97990555D01*
X130208390Y-98064574D01*
X130461006Y-98125222D01*
X130720000Y-98145605D01*
X130978994Y-98125222D01*
X131231610Y-98064574D01*
X131471628Y-97965155D01*
X131693140Y-97829413D01*
X131890689Y-97660690D01*
X132059412Y-97463141D01*
X132195154Y-97241629D01*
X132294573Y-97001611D01*
X132355221Y-96748995D01*
X132375604Y-96490001D01*
X132355221Y-96231007D01*
X132294573Y-95978391D01*
X132209496Y-95772997D01*
X132195156Y-95738377D01*
X132125862Y-95625299D01*
X132059412Y-95516861D01*
X132023402Y-95474699D01*
X132955500Y-95474699D01*
X132955500Y-95625302D01*
X132984877Y-95772989D01*
X132984879Y-95772997D01*
X133042507Y-95912125D01*
X133042512Y-95912134D01*
X133126173Y-96037340D01*
X133126176Y-96037344D01*
X133232656Y-96143824D01*
X133232660Y-96143827D01*
X133357866Y-96227488D01*
X133357875Y-96227493D01*
X133389393Y-96240548D01*
X133497004Y-96285122D01*
X133644698Y-96314500D01*
X133644702Y-96314501D01*
X133644703Y-96314501D01*
X133795298Y-96314501D01*
X133795299Y-96314500D01*
X133942996Y-96285122D01*
X134082127Y-96227492D01*
X134207340Y-96143827D01*
X134313826Y-96037341D01*
X134397491Y-95912128D01*
X134455121Y-95772997D01*
X134484500Y-95625298D01*
X134484500Y-95474704D01*
X134484499Y-95474699D01*
X135155500Y-95474699D01*
X135155500Y-95625302D01*
X135184877Y-95772989D01*
X135184879Y-95772997D01*
X135242507Y-95912125D01*
X135242512Y-95912134D01*
X135326173Y-96037340D01*
X135326176Y-96037344D01*
X135432656Y-96143824D01*
X135432660Y-96143827D01*
X135557866Y-96227488D01*
X135557875Y-96227493D01*
X135589393Y-96240548D01*
X135697004Y-96285122D01*
X135844698Y-96314500D01*
X135844702Y-96314501D01*
X135844703Y-96314501D01*
X135995298Y-96314501D01*
X135995299Y-96314500D01*
X136142996Y-96285122D01*
X136282127Y-96227492D01*
X136407340Y-96143827D01*
X136513826Y-96037341D01*
X136597491Y-95912128D01*
X136655121Y-95772997D01*
X136684500Y-95625298D01*
X136684500Y-95474704D01*
X136655121Y-95327005D01*
X136597491Y-95187874D01*
X136597490Y-95187873D01*
X136597487Y-95187867D01*
X136513826Y-95062661D01*
X136513823Y-95062657D01*
X136407343Y-94956177D01*
X136407339Y-94956174D01*
X136282133Y-94872513D01*
X136282124Y-94872508D01*
X136142996Y-94814880D01*
X136142988Y-94814878D01*
X135995301Y-94785501D01*
X135995297Y-94785501D01*
X135844703Y-94785501D01*
X135844698Y-94785501D01*
X135697011Y-94814878D01*
X135697003Y-94814880D01*
X135557875Y-94872508D01*
X135557866Y-94872513D01*
X135432660Y-94956174D01*
X135432656Y-94956177D01*
X135326176Y-95062657D01*
X135326173Y-95062661D01*
X135242512Y-95187867D01*
X135242507Y-95187876D01*
X135184879Y-95327004D01*
X135184877Y-95327012D01*
X135155500Y-95474699D01*
X134484499Y-95474699D01*
X134455121Y-95327005D01*
X134397491Y-95187874D01*
X134397490Y-95187873D01*
X134397487Y-95187867D01*
X134313826Y-95062661D01*
X134313823Y-95062657D01*
X134207343Y-94956177D01*
X134207339Y-94956174D01*
X134082133Y-94872513D01*
X134082124Y-94872508D01*
X133942996Y-94814880D01*
X133942988Y-94814878D01*
X133795301Y-94785501D01*
X133795297Y-94785501D01*
X133644703Y-94785501D01*
X133644698Y-94785501D01*
X133497011Y-94814878D01*
X133497003Y-94814880D01*
X133357875Y-94872508D01*
X133357866Y-94872513D01*
X133232660Y-94956174D01*
X133232656Y-94956177D01*
X133126176Y-95062657D01*
X133126173Y-95062661D01*
X133042512Y-95187867D01*
X133042507Y-95187876D01*
X132984879Y-95327004D01*
X132984877Y-95327012D01*
X132955500Y-95474699D01*
X132023402Y-95474699D01*
X131890689Y-95319312D01*
X131693140Y-95150589D01*
X131471628Y-95014847D01*
X131471627Y-95014846D01*
X131471623Y-95014844D01*
X131262649Y-94928285D01*
X131231610Y-94915428D01*
X131231611Y-94915428D01*
X131052836Y-94872508D01*
X130978994Y-94854780D01*
X130978992Y-94854779D01*
X130978991Y-94854779D01*
X130764246Y-94837879D01*
X130720000Y-94834397D01*
X130719998Y-94834397D01*
X130704226Y-94835638D01*
X130635849Y-94821272D01*
X130586093Y-94772220D01*
X130570500Y-94712020D01*
X130570500Y-92925022D01*
X130590185Y-92857983D01*
X130606819Y-92837341D01*
X130954043Y-92490118D01*
X131335977Y-92108184D01*
X131450942Y-91936127D01*
X131530130Y-91744948D01*
X131570130Y-91543859D01*
X131570501Y-91541996D01*
X131570501Y-91329953D01*
X131570500Y-91329927D01*
X131570500Y-84464126D01*
X131590185Y-84397087D01*
X131642989Y-84351332D01*
X131680811Y-84341805D01*
X131680709Y-84341031D01*
X131696937Y-84338894D01*
X131912238Y-84310549D01*
X132133887Y-84251159D01*
X132345888Y-84163345D01*
X132544612Y-84048612D01*
X132726661Y-83908920D01*
X132726665Y-83908915D01*
X132726670Y-83908912D01*
X132888911Y-83746671D01*
X132888914Y-83746666D01*
X132888919Y-83746662D01*
X133028611Y-83564613D01*
X133141939Y-83368321D01*
X133192506Y-83320106D01*
X133261113Y-83306883D01*
X133325978Y-83332851D01*
X133337007Y-83342641D01*
X133400342Y-83405976D01*
X133400345Y-83405978D01*
X133572402Y-83520942D01*
X133763580Y-83600131D01*
X133942580Y-83635736D01*
X133966530Y-83640500D01*
X133966534Y-83640501D01*
X133966535Y-83640501D01*
X134173466Y-83640501D01*
X134173467Y-83640500D01*
X134376420Y-83600131D01*
X134567598Y-83520942D01*
X134739655Y-83405978D01*
X134885977Y-83259656D01*
X135000941Y-83087599D01*
X135080130Y-82896421D01*
X135120500Y-82693466D01*
X135120500Y-82236536D01*
X135080130Y-82033581D01*
X135000941Y-81842403D01*
X134885977Y-81670346D01*
X134885975Y-81670343D01*
X134739657Y-81524025D01*
X134605012Y-81434059D01*
X134567598Y-81409060D01*
X134522522Y-81390389D01*
X134376420Y-81329871D01*
X134376412Y-81329869D01*
X134173469Y-81289501D01*
X134173465Y-81289501D01*
X133966535Y-81289501D01*
X133966530Y-81289501D01*
X133763587Y-81329869D01*
X133763579Y-81329871D01*
X133572403Y-81409059D01*
X133400344Y-81524024D01*
X133337007Y-81587361D01*
X133275683Y-81620845D01*
X133205992Y-81615860D01*
X133150058Y-81573989D01*
X133141939Y-81561679D01*
X133068258Y-81434060D01*
X133028611Y-81365389D01*
X133028608Y-81365386D01*
X133028607Y-81365383D01*
X132927764Y-81233963D01*
X132888919Y-81183340D01*
X132888918Y-81183339D01*
X132888911Y-81183331D01*
X132726670Y-81021090D01*
X132726661Y-81021082D01*
X132544617Y-80881393D01*
X132345898Y-80766662D01*
X132345890Y-80766658D01*
X132345888Y-80766657D01*
X132345864Y-80766647D01*
X132345454Y-80766477D01*
X132345261Y-80766348D01*
X132342255Y-80764866D01*
X132342450Y-80764469D01*
X132305230Y-80739599D01*
X131706819Y-80141188D01*
X131673334Y-80079865D01*
X131670500Y-80053507D01*
X131670500Y-78898909D01*
X131690185Y-78831870D01*
X131742989Y-78786115D01*
X131812147Y-78776171D01*
X131875703Y-78805196D01*
X131891442Y-78821591D01*
X131929950Y-78869878D01*
X132116783Y-79043233D01*
X132116786Y-79043235D01*
X132119702Y-79045560D01*
X132159843Y-79102749D01*
X132164005Y-79118309D01*
X132169870Y-79147791D01*
X132209039Y-79242354D01*
X132249059Y-79338969D01*
X132268357Y-79367850D01*
X132364024Y-79511028D01*
X132514664Y-79661668D01*
X132514686Y-79661688D01*
X133209527Y-80356529D01*
X133209556Y-80356560D01*
X133358972Y-80505976D01*
X133475835Y-80584061D01*
X133531025Y-80620938D01*
X133531031Y-80620941D01*
X133531032Y-80620942D01*
X133722210Y-80700131D01*
X133920630Y-80739599D01*
X133925160Y-80740500D01*
X133925164Y-80740501D01*
X133925165Y-80740501D01*
X134132095Y-80740501D01*
X139933507Y-80740501D01*
X140000546Y-80760186D01*
X140021188Y-80776820D01*
X140854920Y-81610552D01*
X140888405Y-81671875D01*
X140883421Y-81741567D01*
X140881801Y-81745685D01*
X140865702Y-81784553D01*
X140858842Y-81801114D01*
X140806152Y-81997760D01*
X140799453Y-82022760D01*
X140799451Y-82022771D01*
X140769500Y-82250259D01*
X140769500Y-82729742D01*
X140791444Y-82896413D01*
X140799452Y-82957239D01*
X140835117Y-83090343D01*
X140858842Y-83178888D01*
X140946650Y-83390877D01*
X140946657Y-83390891D01*
X141061392Y-83589618D01*
X141201081Y-83771662D01*
X141201089Y-83771671D01*
X141363330Y-83933912D01*
X141363338Y-83933919D01*
X141545382Y-84073608D01*
X141545385Y-84073609D01*
X141545388Y-84073612D01*
X141744112Y-84188345D01*
X141744530Y-84188518D01*
X141744716Y-84188642D01*
X141747753Y-84190140D01*
X141747555Y-84190539D01*
X141784769Y-84215402D01*
X141857410Y-84288043D01*
X141857416Y-84288048D01*
X142333181Y-84763813D01*
X142366666Y-84825136D01*
X142369500Y-84851494D01*
X142369500Y-87679241D01*
X142349815Y-87746280D01*
X142333181Y-87766922D01*
X140895536Y-89204567D01*
X139450347Y-90649756D01*
X139450344Y-90649759D01*
X139396596Y-90703507D01*
X139304022Y-90796080D01*
X139189057Y-90968139D01*
X139109869Y-91159315D01*
X139109867Y-91159323D01*
X139069499Y-91362266D01*
X139069499Y-94712020D01*
X139049814Y-94779059D01*
X138997010Y-94824814D01*
X138935773Y-94835638D01*
X138920001Y-94834397D01*
X138920000Y-94834397D01*
X138895810Y-94836300D01*
X138661009Y-94854779D01*
X138408389Y-94915428D01*
X138168376Y-95014844D01*
X137946859Y-95150589D01*
X137749311Y-95319312D01*
X137580588Y-95516860D01*
X137444843Y-95738377D01*
X137345427Y-95978390D01*
X137284778Y-96231010D01*
X137264396Y-96490001D01*
X137284778Y-96748991D01*
X137345427Y-97001611D01*
X137444843Y-97241624D01*
X137444845Y-97241628D01*
X137444846Y-97241629D01*
X137580588Y-97463141D01*
X137749311Y-97660690D01*
X137946860Y-97829413D01*
X138168372Y-97965155D01*
X138168374Y-97965155D01*
X138168376Y-97965157D01*
X138229693Y-97990555D01*
X138408390Y-98064574D01*
X138661006Y-98125222D01*
X138920000Y-98145605D01*
X139178994Y-98125222D01*
X139431610Y-98064574D01*
X139671628Y-97965155D01*
X139893140Y-97829413D01*
X140090689Y-97660690D01*
X140259412Y-97463141D01*
X140314272Y-97373616D01*
X140366084Y-97326741D01*
X140435014Y-97315318D01*
X140499177Y-97342975D01*
X140525727Y-97373616D01*
X140580588Y-97463141D01*
X140749311Y-97660690D01*
X140946860Y-97829413D01*
X141168372Y-97965155D01*
X141168374Y-97965155D01*
X141168376Y-97965157D01*
X141229693Y-97990555D01*
X141408390Y-98064574D01*
X141661006Y-98125222D01*
X141920000Y-98145605D01*
X142178994Y-98125222D01*
X142431610Y-98064574D01*
X142671628Y-97965155D01*
X142893140Y-97829413D01*
X143090689Y-97660690D01*
X143259412Y-97463141D01*
X143395154Y-97241629D01*
X143494573Y-97001611D01*
X143555221Y-96748995D01*
X143575604Y-96490001D01*
X143555221Y-96231007D01*
X143494573Y-95978391D01*
X143409496Y-95772997D01*
X143395156Y-95738377D01*
X143325862Y-95625299D01*
X143259412Y-95516861D01*
X143223402Y-95474699D01*
X144155500Y-95474699D01*
X144155500Y-95625302D01*
X144184877Y-95772989D01*
X144184879Y-95772997D01*
X144242507Y-95912125D01*
X144242512Y-95912134D01*
X144326173Y-96037340D01*
X144326176Y-96037344D01*
X144432656Y-96143824D01*
X144432660Y-96143827D01*
X144557866Y-96227488D01*
X144557875Y-96227493D01*
X144589393Y-96240548D01*
X144697004Y-96285122D01*
X144844698Y-96314500D01*
X144844702Y-96314501D01*
X144844703Y-96314501D01*
X144995298Y-96314501D01*
X144995299Y-96314500D01*
X145142996Y-96285122D01*
X145282127Y-96227492D01*
X145407340Y-96143827D01*
X145513826Y-96037341D01*
X145597491Y-95912128D01*
X145655121Y-95772997D01*
X145684500Y-95625298D01*
X145684500Y-95474704D01*
X145655121Y-95327005D01*
X145597491Y-95187874D01*
X145597490Y-95187873D01*
X145597487Y-95187867D01*
X145513826Y-95062661D01*
X145513823Y-95062657D01*
X145407343Y-94956177D01*
X145407339Y-94956174D01*
X145282133Y-94872513D01*
X145282124Y-94872508D01*
X145142996Y-94814880D01*
X145142988Y-94814878D01*
X144995301Y-94785501D01*
X144995297Y-94785501D01*
X144844703Y-94785501D01*
X144844698Y-94785501D01*
X144697011Y-94814878D01*
X144697003Y-94814880D01*
X144557875Y-94872508D01*
X144557866Y-94872513D01*
X144432660Y-94956174D01*
X144432656Y-94956177D01*
X144326176Y-95062657D01*
X144326173Y-95062661D01*
X144242512Y-95187867D01*
X144242507Y-95187876D01*
X144184879Y-95327004D01*
X144184877Y-95327012D01*
X144155500Y-95474699D01*
X143223402Y-95474699D01*
X143090689Y-95319312D01*
X142893140Y-95150589D01*
X142671628Y-95014847D01*
X142671627Y-95014846D01*
X142671623Y-95014844D01*
X142462649Y-94928285D01*
X142431610Y-94915428D01*
X142431611Y-94915428D01*
X142252836Y-94872508D01*
X142178994Y-94854780D01*
X142178992Y-94854779D01*
X142178991Y-94854779D01*
X141964246Y-94837879D01*
X141920000Y-94834397D01*
X141919998Y-94834397D01*
X141904227Y-94835638D01*
X141835850Y-94821272D01*
X141786095Y-94772220D01*
X141770501Y-94712020D01*
X141770501Y-92200758D01*
X141790186Y-92133719D01*
X141806815Y-92113082D01*
X144689651Y-89230246D01*
X144689655Y-89230244D01*
X144835977Y-89083922D01*
X144950941Y-88911865D01*
X145030130Y-88720687D01*
X145070500Y-88517732D01*
X145070500Y-85194334D01*
X145078843Y-85152394D01*
X145078362Y-85152248D01*
X145079844Y-85147359D01*
X145079941Y-85146877D01*
X145080130Y-85146421D01*
X145095431Y-85069501D01*
X145120501Y-84943468D01*
X145120501Y-84901493D01*
X145140186Y-84834454D01*
X145156820Y-84813812D01*
X145206819Y-84763813D01*
X145755230Y-84215401D01*
X145792437Y-84190545D01*
X145792240Y-84190144D01*
X145795289Y-84188640D01*
X145795475Y-84188516D01*
X145795888Y-84188345D01*
X145994612Y-84073612D01*
X146176661Y-83933920D01*
X146176665Y-83933915D01*
X146176670Y-83933912D01*
X146338911Y-83771671D01*
X146338914Y-83771666D01*
X146338919Y-83771662D01*
X146478611Y-83589613D01*
X146591939Y-83393321D01*
X146642506Y-83345106D01*
X146711113Y-83331883D01*
X146775978Y-83357851D01*
X146787007Y-83367641D01*
X146850342Y-83430976D01*
X146850345Y-83430978D01*
X147022402Y-83545942D01*
X147213580Y-83625131D01*
X147416530Y-83665500D01*
X147416534Y-83665501D01*
X147416535Y-83665501D01*
X147623466Y-83665501D01*
X147623467Y-83665500D01*
X147773124Y-83635732D01*
X151919500Y-83635732D01*
X151919500Y-85744271D01*
X151922353Y-85774701D01*
X151922353Y-85774703D01*
X151958296Y-85877418D01*
X151967207Y-85902884D01*
X152047850Y-86012152D01*
X152157118Y-86092795D01*
X152199746Y-86107711D01*
X152285299Y-86137648D01*
X152315730Y-86140502D01*
X152315734Y-86140502D01*
X152928482Y-86140502D01*
X152995521Y-86160187D01*
X153016163Y-86176821D01*
X153714415Y-86875073D01*
X154378369Y-87539026D01*
X154411854Y-87600349D01*
X154406870Y-87670041D01*
X154389956Y-87701016D01*
X154354944Y-87747786D01*
X154354940Y-87747793D01*
X154221233Y-87992658D01*
X154221231Y-87992662D01*
X154123727Y-88254084D01*
X154064422Y-88526701D01*
X154044518Y-88804999D01*
X154044518Y-88805002D01*
X154064422Y-89083300D01*
X154110477Y-89295008D01*
X154123729Y-89355924D01*
X154172912Y-89487788D01*
X154221231Y-89617339D01*
X154221233Y-89617343D01*
X154354940Y-89862208D01*
X154354945Y-89862216D01*
X154522138Y-90085561D01*
X154522154Y-90085579D01*
X154719421Y-90282846D01*
X154719439Y-90282862D01*
X154942784Y-90450055D01*
X154942792Y-90450060D01*
X155187657Y-90583767D01*
X155187661Y-90583769D01*
X155187663Y-90583770D01*
X155449077Y-90681272D01*
X155585391Y-90710925D01*
X155721700Y-90740578D01*
X155721702Y-90740578D01*
X155721706Y-90740579D01*
X155969014Y-90758266D01*
X155999999Y-90760483D01*
X156000000Y-90760483D01*
X156000001Y-90760483D01*
X156027881Y-90758488D01*
X156278294Y-90740579D01*
X156550923Y-90681272D01*
X156812337Y-90583770D01*
X157057213Y-90450057D01*
X157280568Y-90282856D01*
X157477855Y-90085569D01*
X157645056Y-89862214D01*
X157778769Y-89617338D01*
X157876271Y-89355924D01*
X157935578Y-89083295D01*
X157955482Y-88805001D01*
X157935578Y-88526707D01*
X157933626Y-88517736D01*
X157876272Y-88254084D01*
X157876271Y-88254078D01*
X157778769Y-87992664D01*
X157675081Y-87802775D01*
X157645059Y-87747793D01*
X157645054Y-87747785D01*
X157477861Y-87524440D01*
X157477845Y-87524422D01*
X157280578Y-87327155D01*
X157280560Y-87327139D01*
X157057215Y-87159946D01*
X157057207Y-87159941D01*
X156812342Y-87026234D01*
X156812338Y-87026232D01*
X156713230Y-86989267D01*
X156550923Y-86928730D01*
X156550919Y-86928729D01*
X156550916Y-86928728D01*
X156278299Y-86869423D01*
X156000001Y-86849519D01*
X155999999Y-86849519D01*
X155748674Y-86867494D01*
X155680401Y-86852642D01*
X155652147Y-86831491D01*
X154156819Y-85336163D01*
X154123334Y-85274840D01*
X154120500Y-85248482D01*
X154120500Y-83635732D01*
X154117646Y-83605302D01*
X154117646Y-83605300D01*
X154072793Y-83477121D01*
X154072792Y-83477119D01*
X154065963Y-83467866D01*
X153992150Y-83367852D01*
X153882882Y-83287209D01*
X153882880Y-83287208D01*
X153754700Y-83242355D01*
X153724270Y-83239502D01*
X153724266Y-83239502D01*
X152315734Y-83239502D01*
X152315730Y-83239502D01*
X152285300Y-83242355D01*
X152285298Y-83242355D01*
X152157119Y-83287208D01*
X152157117Y-83287209D01*
X152047850Y-83367852D01*
X151967207Y-83477119D01*
X151967206Y-83477121D01*
X151922353Y-83605300D01*
X151922353Y-83605302D01*
X151919500Y-83635732D01*
X147773124Y-83635732D01*
X147826420Y-83625131D01*
X148017598Y-83545942D01*
X148189655Y-83430978D01*
X148335977Y-83284656D01*
X148450941Y-83112599D01*
X148530130Y-82921421D01*
X148570500Y-82718466D01*
X148570500Y-82261536D01*
X148530130Y-82058581D01*
X148450941Y-81867403D01*
X148335977Y-81695346D01*
X148335975Y-81695343D01*
X148189657Y-81549025D01*
X148103626Y-81491542D01*
X148017598Y-81434060D01*
X147826420Y-81354871D01*
X147826412Y-81354869D01*
X147623469Y-81314501D01*
X147623465Y-81314501D01*
X147416535Y-81314501D01*
X147416530Y-81314501D01*
X147213587Y-81354869D01*
X147213579Y-81354871D01*
X147022403Y-81434059D01*
X146850344Y-81549024D01*
X146787007Y-81612361D01*
X146725683Y-81645845D01*
X146655992Y-81640860D01*
X146600058Y-81598989D01*
X146591939Y-81586679D01*
X146503824Y-81434060D01*
X146478611Y-81390389D01*
X146478608Y-81390386D01*
X146478607Y-81390383D01*
X146338918Y-81208339D01*
X146338911Y-81208331D01*
X146176670Y-81046090D01*
X146176661Y-81046082D01*
X145994617Y-80906393D01*
X145795898Y-80791662D01*
X145795890Y-80791658D01*
X145795888Y-80791657D01*
X145795881Y-80791654D01*
X145795454Y-80791477D01*
X145795261Y-80791348D01*
X145792255Y-80789866D01*
X145792450Y-80789469D01*
X145755230Y-80764599D01*
X145592945Y-80602314D01*
X145559460Y-80540991D01*
X145564444Y-80471299D01*
X145592945Y-80426952D01*
X147150020Y-78869877D01*
X148742349Y-77277548D01*
X148742356Y-77277542D01*
X148749416Y-77270481D01*
X148749418Y-77270481D01*
X148816819Y-77203080D01*
X148878142Y-77169595D01*
X148947834Y-77174579D01*
X149003767Y-77216451D01*
X149028184Y-77281915D01*
X149028500Y-77290761D01*
X149028500Y-77849766D01*
X149067719Y-77996137D01*
X149105602Y-78061751D01*
X149143485Y-78127366D01*
X149143487Y-78127368D01*
X151883181Y-80867062D01*
X151916666Y-80928385D01*
X151919500Y-80954743D01*
X151919500Y-81744269D01*
X151922353Y-81774699D01*
X151922353Y-81774701D01*
X151967206Y-81902880D01*
X151967207Y-81902882D01*
X152047850Y-82012150D01*
X152157118Y-82092793D01*
X152199845Y-82107744D01*
X152285299Y-82137646D01*
X152315730Y-82140500D01*
X152315734Y-82140500D01*
X153605258Y-82140500D01*
X153672297Y-82160185D01*
X153692939Y-82176819D01*
X155666636Y-84150516D01*
X155797866Y-84226282D01*
X155944234Y-84265501D01*
X155944235Y-84265501D01*
X155944236Y-84265501D01*
X157775766Y-84265501D01*
X157775768Y-84265501D01*
X157922137Y-84226282D01*
X158053367Y-84150516D01*
X158132028Y-84071854D01*
X158193347Y-84038372D01*
X158263039Y-84043356D01*
X158307387Y-84071857D01*
X158389596Y-84154066D01*
X158496827Y-84204069D01*
X158545683Y-84210501D01*
X158545684Y-84210501D01*
X158894317Y-84210501D01*
X158910601Y-84208357D01*
X158943173Y-84204069D01*
X159050404Y-84154066D01*
X159127650Y-84076820D01*
X159188973Y-84043335D01*
X159215331Y-84040501D01*
X159392752Y-84040501D01*
X159459791Y-84060186D01*
X159503234Y-84108203D01*
X159544984Y-84190140D01*
X159547844Y-84195753D01*
X159547847Y-84195757D01*
X159641744Y-84289654D01*
X159641746Y-84289655D01*
X159641750Y-84289659D01*
X159760081Y-84349952D01*
X159760082Y-84349952D01*
X159760084Y-84349953D01*
X159760083Y-84349953D01*
X159858250Y-84365501D01*
X159858255Y-84365501D01*
X160361752Y-84365501D01*
X160459918Y-84349953D01*
X160459919Y-84349952D01*
X160459921Y-84349952D01*
X160578252Y-84289659D01*
X160672159Y-84195752D01*
X160732452Y-84077421D01*
X160732452Y-84077419D01*
X160732453Y-84077418D01*
X160748001Y-83979252D01*
X160748001Y-83400749D01*
X160732453Y-83302583D01*
X160732452Y-83302581D01*
X160672159Y-83184250D01*
X160672155Y-83184246D01*
X160672154Y-83184244D01*
X160578257Y-83090347D01*
X160578254Y-83090345D01*
X160578252Y-83090343D01*
X160459921Y-83030050D01*
X160459920Y-83030049D01*
X160459917Y-83030048D01*
X160459918Y-83030048D01*
X160361752Y-83014501D01*
X160361747Y-83014501D01*
X159858255Y-83014501D01*
X159858250Y-83014501D01*
X159760083Y-83030048D01*
X159681193Y-83070245D01*
X159641750Y-83090343D01*
X159641749Y-83090344D01*
X159641744Y-83090347D01*
X159547847Y-83184244D01*
X159547844Y-83184248D01*
X159547843Y-83184250D01*
X159503234Y-83271798D01*
X159455263Y-83322592D01*
X159392752Y-83339501D01*
X159215331Y-83339501D01*
X159148292Y-83319816D01*
X159127650Y-83303182D01*
X159050404Y-83225936D01*
X158990613Y-83198055D01*
X158943173Y-83175933D01*
X158943171Y-83175932D01*
X158943172Y-83175932D01*
X158894317Y-83169501D01*
X158894316Y-83169501D01*
X158545684Y-83169501D01*
X158545683Y-83169501D01*
X158496828Y-83175932D01*
X158389597Y-83225935D01*
X158307387Y-83308145D01*
X158246063Y-83341629D01*
X158176372Y-83336645D01*
X158132025Y-83308144D01*
X158053369Y-83229488D01*
X158053367Y-83229486D01*
X157960611Y-83175933D01*
X157922138Y-83153720D01*
X157848952Y-83134110D01*
X157775768Y-83114501D01*
X157775767Y-83114501D01*
X156309743Y-83114501D01*
X156242704Y-83094816D01*
X156222062Y-83078182D01*
X154156819Y-81012939D01*
X154123334Y-80951616D01*
X154120500Y-80925258D01*
X154120500Y-79635730D01*
X154117646Y-79605300D01*
X154117646Y-79605298D01*
X154072793Y-79477119D01*
X154072792Y-79477117D01*
X153992150Y-79367850D01*
X153882882Y-79287207D01*
X153882880Y-79287206D01*
X153754700Y-79242353D01*
X153724270Y-79239500D01*
X153724266Y-79239500D01*
X152315734Y-79239500D01*
X152315730Y-79239500D01*
X152285300Y-79242353D01*
X152285298Y-79242353D01*
X152157119Y-79287206D01*
X152157114Y-79287209D01*
X152112924Y-79319822D01*
X152047295Y-79343793D01*
X151979124Y-79328475D01*
X151951611Y-79307732D01*
X150215819Y-77571940D01*
X150182334Y-77510617D01*
X150179500Y-77484259D01*
X150179500Y-77290001D01*
X151698901Y-77290001D01*
X151717252Y-77476332D01*
X151717253Y-77476334D01*
X151771604Y-77655503D01*
X151859862Y-77820624D01*
X151859864Y-77820627D01*
X151978642Y-77965358D01*
X152123373Y-78084136D01*
X152123376Y-78084138D01*
X152204249Y-78127365D01*
X152288499Y-78172397D01*
X152421132Y-78212631D01*
X152467666Y-78226747D01*
X152467668Y-78226748D01*
X152484374Y-78228393D01*
X152654000Y-78245100D01*
X152840331Y-78226748D01*
X153019501Y-78172397D01*
X153184625Y-78084137D01*
X153329357Y-77965358D01*
X153448136Y-77820626D01*
X153536396Y-77655502D01*
X153590747Y-77476332D01*
X153609099Y-77290001D01*
X153988901Y-77290001D01*
X154007252Y-77476332D01*
X154007253Y-77476334D01*
X154061604Y-77655503D01*
X154149862Y-77820624D01*
X154149864Y-77820627D01*
X154268642Y-77965358D01*
X154413373Y-78084136D01*
X154413376Y-78084138D01*
X154494249Y-78127365D01*
X154578499Y-78172397D01*
X154711132Y-78212631D01*
X154757666Y-78226747D01*
X154757668Y-78226748D01*
X154774374Y-78228393D01*
X154944000Y-78245100D01*
X155130331Y-78226748D01*
X155309501Y-78172397D01*
X155474625Y-78084137D01*
X155619357Y-77965358D01*
X155738136Y-77820626D01*
X155826396Y-77655502D01*
X155880747Y-77476332D01*
X155899099Y-77290001D01*
X155880747Y-77103670D01*
X155826396Y-76924500D01*
X155738136Y-76759376D01*
X155738135Y-76759374D01*
X155619357Y-76614643D01*
X155474626Y-76495865D01*
X155474623Y-76495863D01*
X155309502Y-76407605D01*
X155130333Y-76353254D01*
X155130331Y-76353253D01*
X154944000Y-76334902D01*
X154757668Y-76353253D01*
X154757666Y-76353254D01*
X154578497Y-76407605D01*
X154413376Y-76495863D01*
X154413373Y-76495865D01*
X154268642Y-76614643D01*
X154149864Y-76759374D01*
X154149862Y-76759377D01*
X154061604Y-76924498D01*
X154007253Y-77103667D01*
X154007252Y-77103669D01*
X153988901Y-77290001D01*
X153609099Y-77290001D01*
X153590747Y-77103670D01*
X153536396Y-76924500D01*
X153448136Y-76759376D01*
X153448135Y-76759374D01*
X153329357Y-76614643D01*
X153184626Y-76495865D01*
X153184623Y-76495863D01*
X153019502Y-76407605D01*
X152840333Y-76353254D01*
X152840331Y-76353253D01*
X152654000Y-76334902D01*
X152467668Y-76353253D01*
X152467666Y-76353254D01*
X152288497Y-76407605D01*
X152123376Y-76495863D01*
X152123373Y-76495865D01*
X151978642Y-76614643D01*
X151859864Y-76759374D01*
X151859862Y-76759377D01*
X151771604Y-76924498D01*
X151717253Y-77103667D01*
X151717252Y-77103669D01*
X151698901Y-77290001D01*
X150179500Y-77290001D01*
X150179500Y-73285956D01*
X150199185Y-73218917D01*
X150224832Y-73190105D01*
X150279357Y-73145359D01*
X150279358Y-73145357D01*
X150279360Y-73145356D01*
X150398135Y-73000628D01*
X150398137Y-73000626D01*
X150486396Y-72835503D01*
X150501339Y-72786240D01*
X150539635Y-72727804D01*
X150603447Y-72699347D01*
X150672514Y-72709906D01*
X150724908Y-72756130D01*
X150738659Y-72786240D01*
X150753603Y-72835504D01*
X150841861Y-73000624D01*
X150841863Y-73000627D01*
X150960641Y-73145358D01*
X151105372Y-73264136D01*
X151105375Y-73264138D01*
X151270496Y-73352396D01*
X151270498Y-73352397D01*
X151449665Y-73406747D01*
X151449667Y-73406748D01*
X151466373Y-73408393D01*
X151635999Y-73425100D01*
X151822330Y-73406748D01*
X152001500Y-73352397D01*
X152166624Y-73264137D01*
X152311356Y-73145358D01*
X152430135Y-73000626D01*
X152518395Y-72835502D01*
X152572746Y-72656332D01*
X152591098Y-72470001D01*
X152572746Y-72283670D01*
X152534775Y-72158497D01*
X152534151Y-72088630D01*
X152571399Y-72029517D01*
X152634693Y-71999926D01*
X152653435Y-71998501D01*
X152962160Y-71998501D01*
X153029199Y-72018186D01*
X153049841Y-72034820D01*
X156882875Y-75867854D01*
X160542842Y-79527820D01*
X160576327Y-79589143D01*
X160571343Y-79658835D01*
X160529471Y-79714768D01*
X160464007Y-79739185D01*
X160455161Y-79739501D01*
X159050247Y-79739501D01*
X158991770Y-79751132D01*
X158991769Y-79751133D01*
X158925447Y-79795448D01*
X158881132Y-79861770D01*
X158881131Y-79861771D01*
X158869500Y-79920248D01*
X158869500Y-81659753D01*
X158881131Y-81718230D01*
X158881132Y-81718231D01*
X158925447Y-81784553D01*
X158991769Y-81828868D01*
X158991770Y-81828869D01*
X159050247Y-81840500D01*
X159050250Y-81840501D01*
X159050252Y-81840501D01*
X160789750Y-81840501D01*
X160789751Y-81840500D01*
X160804568Y-81837553D01*
X160848229Y-81828869D01*
X160848229Y-81828868D01*
X160848231Y-81828868D01*
X160914552Y-81784553D01*
X160958867Y-81718232D01*
X160958867Y-81718230D01*
X160958868Y-81718230D01*
X160970499Y-81659753D01*
X160970500Y-81659751D01*
X160970500Y-81241501D01*
X160990185Y-81174462D01*
X161042989Y-81128707D01*
X161094500Y-81117501D01*
X161663114Y-81117501D01*
X161663116Y-81117501D01*
X161746410Y-81095182D01*
X161821090Y-81052066D01*
X161856407Y-81016748D01*
X161917728Y-80983263D01*
X161987420Y-80988247D01*
X162031769Y-81016748D01*
X165406181Y-84391159D01*
X165439666Y-84452482D01*
X165442500Y-84478840D01*
X165442500Y-92171136D01*
X165422815Y-92238175D01*
X165385540Y-92275450D01*
X165353088Y-92296305D01*
X165305410Y-92326946D01*
X165305409Y-92326947D01*
X165215872Y-92430279D01*
X165215869Y-92430284D01*
X165205062Y-92453949D01*
X165159307Y-92506752D01*
X165092268Y-92526437D01*
X165025228Y-92506752D01*
X165004587Y-92490118D01*
X165000404Y-92485935D01*
X164954469Y-92464515D01*
X164893173Y-92435932D01*
X164893171Y-92435931D01*
X164893172Y-92435931D01*
X164844317Y-92429500D01*
X164844316Y-92429500D01*
X164395684Y-92429500D01*
X164395683Y-92429500D01*
X164346828Y-92435931D01*
X164239595Y-92485935D01*
X164182181Y-92543350D01*
X164120858Y-92576835D01*
X164051166Y-92571851D01*
X163995233Y-92529979D01*
X163970816Y-92464515D01*
X163970500Y-92455669D01*
X163970500Y-91543859D01*
X163970500Y-91543857D01*
X163946614Y-91454713D01*
X163900470Y-91374789D01*
X158844012Y-86318331D01*
X158810527Y-86257008D01*
X158815511Y-86187316D01*
X158857383Y-86131383D01*
X158915510Y-86107711D01*
X158918508Y-86107316D01*
X158943174Y-86104069D01*
X159050405Y-86054066D01*
X159127651Y-85976820D01*
X159188974Y-85943335D01*
X159215332Y-85940501D01*
X159457019Y-85940501D01*
X159524058Y-85960186D01*
X159557340Y-85991620D01*
X159560343Y-85995754D01*
X159654243Y-86089654D01*
X159654245Y-86089655D01*
X159654249Y-86089659D01*
X159772580Y-86149952D01*
X159772581Y-86149952D01*
X159772583Y-86149953D01*
X159772582Y-86149953D01*
X159870749Y-86165501D01*
X159870754Y-86165501D01*
X160374251Y-86165501D01*
X160472417Y-86149953D01*
X160472418Y-86149952D01*
X160472420Y-86149952D01*
X160590751Y-86089659D01*
X160684658Y-85995752D01*
X160744951Y-85877421D01*
X160744951Y-85877419D01*
X160744952Y-85877418D01*
X160760500Y-85779252D01*
X160760500Y-85200749D01*
X160744952Y-85102583D01*
X160731373Y-85075933D01*
X160684658Y-84984250D01*
X160684654Y-84984246D01*
X160684653Y-84984244D01*
X160590756Y-84890347D01*
X160590753Y-84890345D01*
X160590751Y-84890343D01*
X160472420Y-84830050D01*
X160472419Y-84830049D01*
X160472416Y-84830048D01*
X160472417Y-84830048D01*
X160374251Y-84814501D01*
X160374246Y-84814501D01*
X159870754Y-84814501D01*
X159870749Y-84814501D01*
X159772582Y-84830048D01*
X159693692Y-84870245D01*
X159654249Y-84890343D01*
X159654248Y-84890344D01*
X159654243Y-84890347D01*
X159560346Y-84984244D01*
X159560343Y-84984249D01*
X159560342Y-84984250D01*
X159513627Y-85075933D01*
X159500049Y-85102581D01*
X159494931Y-85134898D01*
X159465002Y-85198033D01*
X159405690Y-85234965D01*
X159372457Y-85239501D01*
X159215332Y-85239501D01*
X159148293Y-85219816D01*
X159127651Y-85203182D01*
X159050405Y-85125936D01*
X158943174Y-85075933D01*
X158943172Y-85075932D01*
X158943173Y-85075932D01*
X158894318Y-85069501D01*
X158894317Y-85069501D01*
X158545685Y-85069501D01*
X158545684Y-85069501D01*
X158496829Y-85075932D01*
X158389596Y-85125936D01*
X158298265Y-85217268D01*
X158295441Y-85214444D01*
X158256959Y-85245184D01*
X158187459Y-85252353D01*
X158125115Y-85220809D01*
X158121902Y-85217102D01*
X158121737Y-85217268D01*
X158030405Y-85125936D01*
X157923174Y-85075933D01*
X157923172Y-85075932D01*
X157923173Y-85075932D01*
X157874318Y-85069501D01*
X157874317Y-85069501D01*
X157525685Y-85069501D01*
X157525684Y-85069501D01*
X157476829Y-85075932D01*
X157369596Y-85125936D01*
X157285936Y-85209596D01*
X157235932Y-85316829D01*
X157229501Y-85365684D01*
X157229501Y-85814317D01*
X157235932Y-85863172D01*
X157254449Y-85902882D01*
X157285936Y-85970405D01*
X157369597Y-86054066D01*
X157476828Y-86104069D01*
X157525684Y-86110501D01*
X157525685Y-86110501D01*
X157593456Y-86110501D01*
X157660495Y-86130186D01*
X157681137Y-86146820D01*
X163233181Y-91698864D01*
X163266666Y-91760187D01*
X163269500Y-91786545D01*
X163269500Y-92922140D01*
X163249815Y-92989179D01*
X163239215Y-93003340D01*
X163215872Y-93030279D01*
X163215869Y-93030285D01*
X163159069Y-93154658D01*
X163159068Y-93154663D01*
X163139610Y-93290001D01*
X163159068Y-93425338D01*
X163159070Y-93425346D01*
X163219554Y-93557787D01*
X163216726Y-93559078D01*
X163232069Y-93611339D01*
X163212382Y-93678378D01*
X163176968Y-93714432D01*
X163175448Y-93715447D01*
X163131132Y-93781770D01*
X163131131Y-93781771D01*
X163119500Y-93840248D01*
X163119500Y-94907723D01*
X163099815Y-94974762D01*
X163047011Y-95020517D01*
X163027594Y-95027498D01*
X162906318Y-95059994D01*
X162774182Y-95136283D01*
X162774176Y-95136288D01*
X162666287Y-95244177D01*
X162666282Y-95244183D01*
X162589993Y-95376319D01*
X162589992Y-95376323D01*
X162550500Y-95523708D01*
X162550500Y-95676294D01*
X162576410Y-95772989D01*
X162589993Y-95823682D01*
X162666282Y-95955818D01*
X162666284Y-95955820D01*
X162666285Y-95955822D01*
X162774179Y-96063716D01*
X162774180Y-96063717D01*
X162774182Y-96063718D01*
X162906318Y-96140007D01*
X162906319Y-96140007D01*
X162906322Y-96140009D01*
X163053707Y-96179501D01*
X163053710Y-96179501D01*
X163206290Y-96179501D01*
X163206293Y-96179501D01*
X163353678Y-96140009D01*
X163485821Y-96063716D01*
X163593715Y-95955822D01*
X163670008Y-95823679D01*
X163709500Y-95676294D01*
X163709500Y-95523708D01*
X163691516Y-95456591D01*
X163693179Y-95386745D01*
X163732341Y-95328883D01*
X163796569Y-95301378D01*
X163811291Y-95300501D01*
X163939750Y-95300501D01*
X163995808Y-95289350D01*
X164044192Y-95289350D01*
X164100249Y-95300501D01*
X164100252Y-95300501D01*
X164439750Y-95300501D01*
X164495808Y-95289350D01*
X164544192Y-95289350D01*
X164600249Y-95300501D01*
X164847208Y-95300501D01*
X164914247Y-95320186D01*
X164960002Y-95372990D01*
X164961768Y-95377047D01*
X164964815Y-95384405D01*
X164998153Y-95442148D01*
X165007935Y-95459091D01*
X165103935Y-95555091D01*
X165164910Y-95616066D01*
X165239590Y-95659182D01*
X165322884Y-95681501D01*
X165322885Y-95681501D01*
X165322886Y-95681501D01*
X166217114Y-95681501D01*
X166217116Y-95681501D01*
X166300410Y-95659182D01*
X166375090Y-95616066D01*
X166532065Y-95459091D01*
X166575181Y-95384411D01*
X166575181Y-95384409D01*
X166575184Y-95384405D01*
X166578232Y-95377047D01*
X166622073Y-95322644D01*
X166688368Y-95300580D01*
X166692792Y-95300501D01*
X166939750Y-95300501D01*
X166995808Y-95289350D01*
X167044192Y-95289350D01*
X167100249Y-95300501D01*
X167100252Y-95300501D01*
X167439750Y-95300501D01*
X167495808Y-95289350D01*
X167544192Y-95289350D01*
X167600249Y-95300501D01*
X167600252Y-95300501D01*
X167939750Y-95300501D01*
X167995808Y-95289350D01*
X168044192Y-95289350D01*
X168100249Y-95300501D01*
X168100252Y-95300501D01*
X168228709Y-95300501D01*
X168295748Y-95320186D01*
X168341503Y-95372990D01*
X168351447Y-95442148D01*
X168348487Y-95456579D01*
X168330500Y-95523708D01*
X168330500Y-95676294D01*
X168356410Y-95772989D01*
X168369993Y-95823682D01*
X168446282Y-95955818D01*
X168446284Y-95955820D01*
X168446285Y-95955822D01*
X168554179Y-96063716D01*
X168554180Y-96063717D01*
X168554182Y-96063718D01*
X168686318Y-96140007D01*
X168686319Y-96140007D01*
X168686322Y-96140009D01*
X168833707Y-96179501D01*
X168833710Y-96179501D01*
X168986290Y-96179501D01*
X168986293Y-96179501D01*
X169133678Y-96140009D01*
X169265821Y-96063716D01*
X169373715Y-95955822D01*
X169450008Y-95823679D01*
X169489500Y-95676294D01*
X169489500Y-95523708D01*
X169450008Y-95376323D01*
X169422618Y-95328883D01*
X169373717Y-95244183D01*
X169373712Y-95244177D01*
X169265823Y-95136288D01*
X169265817Y-95136283D01*
X169133681Y-95059994D01*
X169133682Y-95059994D01*
X169012406Y-95027498D01*
X168952746Y-94991132D01*
X168922217Y-94928285D01*
X168920500Y-94907723D01*
X168920500Y-93840250D01*
X168920499Y-93840248D01*
X168908868Y-93781771D01*
X168908867Y-93781770D01*
X168864552Y-93715448D01*
X168798230Y-93671133D01*
X168798229Y-93671132D01*
X168739752Y-93659501D01*
X168739748Y-93659501D01*
X168244500Y-93659501D01*
X168177461Y-93639816D01*
X168131706Y-93587012D01*
X168120500Y-93535501D01*
X168120500Y-93388975D01*
X168140185Y-93321936D01*
X168192093Y-93276594D01*
X168240405Y-93254066D01*
X168324066Y-93170405D01*
X168374069Y-93063174D01*
X168380501Y-93014317D01*
X168380501Y-92565685D01*
X168379049Y-92554659D01*
X168374069Y-92516829D01*
X168369370Y-92506752D01*
X168324066Y-92409597D01*
X168240405Y-92325936D01*
X168133174Y-92275933D01*
X168133172Y-92275932D01*
X168133173Y-92275932D01*
X168084318Y-92269501D01*
X168084317Y-92269501D01*
X167735685Y-92269501D01*
X167735684Y-92269501D01*
X167686829Y-92275932D01*
X167579598Y-92325935D01*
X167488462Y-92417071D01*
X167427138Y-92450555D01*
X167357447Y-92445571D01*
X167307068Y-92410592D01*
X167299202Y-92401515D01*
X167234589Y-92326946D01*
X167234586Y-92326944D01*
X167234586Y-92326943D01*
X167119559Y-92253022D01*
X166988368Y-92214501D01*
X166988367Y-92214501D01*
X166851633Y-92214501D01*
X166851630Y-92214501D01*
X166756434Y-92242453D01*
X166686565Y-92242453D01*
X166627787Y-92204678D01*
X166598762Y-92141123D01*
X166597500Y-92123476D01*
X166597500Y-90446136D01*
X166617185Y-90379097D01*
X166669989Y-90333342D01*
X166739147Y-90323398D01*
X166802703Y-90352423D01*
X166830332Y-90386709D01*
X166932770Y-90574310D01*
X166932775Y-90574318D01*
X167104254Y-90803388D01*
X167104270Y-90803406D01*
X167306594Y-91005730D01*
X167306612Y-91005746D01*
X167535682Y-91177225D01*
X167535690Y-91177230D01*
X167786833Y-91314365D01*
X167786832Y-91314365D01*
X167786836Y-91314366D01*
X167786839Y-91314368D01*
X168054954Y-91414370D01*
X168054960Y-91414371D01*
X168054962Y-91414372D01*
X168334566Y-91475196D01*
X168334568Y-91475196D01*
X168334572Y-91475197D01*
X168588220Y-91493338D01*
X168619999Y-91495611D01*
X168620000Y-91495611D01*
X168620001Y-91495611D01*
X168648595Y-91493565D01*
X168905428Y-91475197D01*
X168999606Y-91454710D01*
X169185037Y-91414372D01*
X169185037Y-91414371D01*
X169185046Y-91414370D01*
X169453161Y-91314368D01*
X169704315Y-91177227D01*
X169933395Y-91005740D01*
X170135739Y-90803396D01*
X170307226Y-90574316D01*
X170444367Y-90323162D01*
X170544369Y-90055047D01*
X170586317Y-89862214D01*
X170605195Y-89775434D01*
X170605195Y-89775433D01*
X170605196Y-89775429D01*
X170625610Y-89490001D01*
X170605196Y-89204573D01*
X170544369Y-88924955D01*
X170444367Y-88656840D01*
X170436644Y-88642697D01*
X170307229Y-88405691D01*
X170307224Y-88405683D01*
X170135745Y-88176613D01*
X170135729Y-88176595D01*
X169933405Y-87974271D01*
X169933387Y-87974255D01*
X169704317Y-87802776D01*
X169704309Y-87802771D01*
X169453166Y-87665636D01*
X169453167Y-87665636D01*
X169317412Y-87615002D01*
X169185046Y-87565632D01*
X169185043Y-87565631D01*
X169185037Y-87565629D01*
X168905433Y-87504805D01*
X168620001Y-87484391D01*
X168619999Y-87484391D01*
X168334566Y-87504805D01*
X168054962Y-87565629D01*
X167786833Y-87665636D01*
X167535690Y-87802771D01*
X167535682Y-87802776D01*
X167306612Y-87974255D01*
X167306594Y-87974271D01*
X167104270Y-88176595D01*
X167104254Y-88176613D01*
X166932775Y-88405683D01*
X166932770Y-88405691D01*
X166830332Y-88593292D01*
X166780926Y-88642697D01*
X166712653Y-88657549D01*
X166647189Y-88633132D01*
X166605318Y-88577198D01*
X166597500Y-88533865D01*
X166597500Y-84129301D01*
X166597500Y-84129300D01*
X166575181Y-84046006D01*
X166532065Y-83971326D01*
X166471090Y-83910351D01*
X166471089Y-83910350D01*
X164804628Y-82243889D01*
X164771143Y-82182566D01*
X164776127Y-82112874D01*
X164804628Y-82068527D01*
X164875385Y-81997771D01*
X164996336Y-81876820D01*
X165057659Y-81843335D01*
X165084017Y-81840501D01*
X166689750Y-81840501D01*
X166689751Y-81840500D01*
X166704568Y-81837553D01*
X166748229Y-81828869D01*
X166748229Y-81828868D01*
X166748231Y-81828868D01*
X166814552Y-81784553D01*
X166858867Y-81718232D01*
X166858867Y-81718230D01*
X166858868Y-81718230D01*
X166870499Y-81659753D01*
X166870500Y-81659751D01*
X166870500Y-79920250D01*
X166870499Y-79920248D01*
X166858868Y-79861771D01*
X166858867Y-79861770D01*
X166814552Y-79795448D01*
X166748230Y-79751133D01*
X166748229Y-79751132D01*
X166689752Y-79739501D01*
X166689748Y-79739501D01*
X164950252Y-79739501D01*
X164950247Y-79739501D01*
X164891770Y-79751132D01*
X164891769Y-79751133D01*
X164825447Y-79795448D01*
X164781132Y-79861770D01*
X164781131Y-79861771D01*
X164769500Y-79920248D01*
X164769500Y-81125983D01*
X164749815Y-81193022D01*
X164733181Y-81213664D01*
X164341473Y-81605372D01*
X164280150Y-81638857D01*
X164210458Y-81633873D01*
X164166111Y-81605372D01*
X153488676Y-70927937D01*
X153488675Y-70927936D01*
X153413995Y-70884820D01*
X153413996Y-70884820D01*
X153386230Y-70877380D01*
X153330701Y-70862501D01*
X153330699Y-70862501D01*
X151987847Y-70862501D01*
X151920808Y-70842816D01*
X151900166Y-70826182D01*
X151569606Y-70495622D01*
X151538627Y-70443938D01*
X151502396Y-70324500D01*
X151502394Y-70324497D01*
X151502394Y-70324495D01*
X151414137Y-70159377D01*
X151414135Y-70159374D01*
X151295357Y-70014643D01*
X151150626Y-69895865D01*
X151150623Y-69895863D01*
X150985502Y-69807605D01*
X150806333Y-69753254D01*
X150806331Y-69753253D01*
X150620000Y-69734902D01*
X150433668Y-69753253D01*
X150433666Y-69753254D01*
X150254499Y-69807604D01*
X150153099Y-69861803D01*
X150084696Y-69876044D01*
X150019453Y-69851043D01*
X149988919Y-69817233D01*
X149983018Y-69807604D01*
X149927412Y-69716861D01*
X149758689Y-69519312D01*
X149758682Y-69519306D01*
X149681968Y-69453785D01*
X149643775Y-69395278D01*
X149638500Y-69359495D01*
X149638500Y-68867601D01*
X149638501Y-68867580D01*
X149638501Y-68654533D01*
X149598131Y-68451588D01*
X149598130Y-68451582D01*
X149518942Y-68260403D01*
X149518940Y-68260401D01*
X149518940Y-68260399D01*
X149403977Y-68088346D01*
X149403974Y-68088342D01*
X149342436Y-68026804D01*
X152554500Y-68026804D01*
X152554500Y-68273197D01*
X152577986Y-68451580D01*
X152586659Y-68517460D01*
X152586660Y-68517462D01*
X152650425Y-68755441D01*
X152744708Y-68983059D01*
X152744712Y-68983069D01*
X152867899Y-69196435D01*
X153017883Y-69391899D01*
X153017889Y-69391906D01*
X153192094Y-69566111D01*
X153192101Y-69566117D01*
X153387565Y-69716101D01*
X153600931Y-69839288D01*
X153600932Y-69839288D01*
X153600935Y-69839290D01*
X153828558Y-69933575D01*
X154066541Y-69997342D01*
X154310811Y-70029501D01*
X154310818Y-70029501D01*
X154557182Y-70029501D01*
X154557189Y-70029501D01*
X154801459Y-69997342D01*
X155039442Y-69933575D01*
X155267065Y-69839290D01*
X155480435Y-69716101D01*
X155675900Y-69566116D01*
X155850115Y-69391901D01*
X156000100Y-69196436D01*
X156123289Y-68983066D01*
X156217574Y-68755443D01*
X156281341Y-68517460D01*
X156313500Y-68273190D01*
X156313500Y-68026812D01*
X156281341Y-67782542D01*
X156217574Y-67544559D01*
X156123289Y-67316936D01*
X156121806Y-67314368D01*
X156000100Y-67103566D01*
X155850116Y-66908102D01*
X155850110Y-66908095D01*
X155675905Y-66733890D01*
X155675898Y-66733884D01*
X155480434Y-66583900D01*
X155267068Y-66460713D01*
X155267058Y-66460709D01*
X155039440Y-66366426D01*
X154920450Y-66334543D01*
X154801459Y-66302660D01*
X154760636Y-66297285D01*
X154557196Y-66270501D01*
X154557189Y-66270501D01*
X154310811Y-66270501D01*
X154310803Y-66270501D01*
X154078299Y-66301111D01*
X154066541Y-66302660D01*
X154016246Y-66316136D01*
X153828559Y-66366426D01*
X153600941Y-66460709D01*
X153600931Y-66460713D01*
X153387565Y-66583900D01*
X153192101Y-66733884D01*
X153192094Y-66733890D01*
X153017889Y-66908095D01*
X153017883Y-66908102D01*
X152867899Y-67103566D01*
X152744712Y-67316932D01*
X152744708Y-67316942D01*
X152650425Y-67544560D01*
X152586660Y-67782539D01*
X152586658Y-67782550D01*
X152554500Y-68026804D01*
X149342436Y-68026804D01*
X146805630Y-65489999D01*
X166614390Y-65489999D01*
X166614390Y-65490002D01*
X166634804Y-65775434D01*
X166695628Y-66055038D01*
X166695630Y-66055044D01*
X166695631Y-66055047D01*
X166787986Y-66302659D01*
X166795635Y-66323167D01*
X166932770Y-66574310D01*
X166932775Y-66574318D01*
X167104254Y-66803388D01*
X167104270Y-66803406D01*
X167306594Y-67005730D01*
X167306612Y-67005746D01*
X167535682Y-67177225D01*
X167535690Y-67177230D01*
X167786833Y-67314365D01*
X167786832Y-67314365D01*
X167786836Y-67314366D01*
X167786839Y-67314368D01*
X168054954Y-67414370D01*
X168054960Y-67414371D01*
X168054962Y-67414372D01*
X168334566Y-67475196D01*
X168334568Y-67475196D01*
X168334572Y-67475197D01*
X168588220Y-67493338D01*
X168619999Y-67495611D01*
X168620000Y-67495611D01*
X168620001Y-67495611D01*
X168648595Y-67493565D01*
X168905428Y-67475197D01*
X168964003Y-67462455D01*
X169185037Y-67414372D01*
X169185037Y-67414371D01*
X169185046Y-67414370D01*
X169453161Y-67314368D01*
X169704315Y-67177227D01*
X169933395Y-67005740D01*
X170135739Y-66803396D01*
X170307226Y-66574316D01*
X170444367Y-66323162D01*
X170544369Y-66055047D01*
X170605196Y-65775429D01*
X170625610Y-65490001D01*
X170605196Y-65204573D01*
X170590102Y-65135188D01*
X170544371Y-64924963D01*
X170544370Y-64924961D01*
X170544369Y-64924955D01*
X170444367Y-64656840D01*
X170395481Y-64567313D01*
X170307229Y-64405691D01*
X170307224Y-64405683D01*
X170135745Y-64176613D01*
X170135729Y-64176595D01*
X169933405Y-63974271D01*
X169933387Y-63974255D01*
X169704317Y-63802776D01*
X169704309Y-63802771D01*
X169453166Y-63665636D01*
X169453167Y-63665636D01*
X169345915Y-63625633D01*
X169185046Y-63565632D01*
X169185043Y-63565631D01*
X169185037Y-63565629D01*
X168905433Y-63504805D01*
X168620001Y-63484391D01*
X168619999Y-63484391D01*
X168334566Y-63504805D01*
X168054962Y-63565629D01*
X167786833Y-63665636D01*
X167535690Y-63802771D01*
X167535682Y-63802776D01*
X167306612Y-63974255D01*
X167306594Y-63974271D01*
X167104270Y-64176595D01*
X167104254Y-64176613D01*
X166932775Y-64405683D01*
X166932770Y-64405691D01*
X166795635Y-64656834D01*
X166695628Y-64924963D01*
X166634804Y-65204567D01*
X166614390Y-65489999D01*
X146805630Y-65489999D01*
X144843047Y-63527417D01*
X144843044Y-63527413D01*
X144843044Y-63527414D01*
X144835977Y-63520347D01*
X144835977Y-63520346D01*
X144689655Y-63374024D01*
X144517598Y-63259060D01*
X144445177Y-63229062D01*
X144390774Y-63185221D01*
X144368709Y-63118927D01*
X144385988Y-63051227D01*
X144437126Y-63003617D01*
X144492630Y-62990501D01*
X170995500Y-62990501D01*
X171062539Y-63010186D01*
X171108294Y-63062990D01*
X171119500Y-63114501D01*
X171119500Y-101865501D01*
X171099815Y-101932540D01*
X171047011Y-101978295D01*
X170995500Y-101989501D01*
X124244500Y-101989501D01*
X124177461Y-101969816D01*
X124131706Y-101917012D01*
X124120500Y-101865501D01*
X124120500Y-99490001D01*
X126764901Y-99490001D01*
X126783252Y-99676332D01*
X126783253Y-99676334D01*
X126837604Y-99855503D01*
X126925862Y-100020624D01*
X126925864Y-100020627D01*
X127044642Y-100165358D01*
X127189373Y-100284136D01*
X127189376Y-100284138D01*
X127354497Y-100372396D01*
X127354499Y-100372397D01*
X127533666Y-100426747D01*
X127533668Y-100426748D01*
X127550374Y-100428393D01*
X127720000Y-100445100D01*
X127906331Y-100426748D01*
X128085501Y-100372397D01*
X128250625Y-100284137D01*
X128395357Y-100165358D01*
X128514136Y-100020626D01*
X128602396Y-99855502D01*
X128656747Y-99676332D01*
X128675099Y-99490001D01*
X137964901Y-99490001D01*
X137983252Y-99676332D01*
X137983253Y-99676334D01*
X138037604Y-99855503D01*
X138125862Y-100020624D01*
X138125864Y-100020627D01*
X138244642Y-100165358D01*
X138389373Y-100284136D01*
X138389376Y-100284138D01*
X138554497Y-100372396D01*
X138554499Y-100372397D01*
X138733666Y-100426747D01*
X138733668Y-100426748D01*
X138750374Y-100428393D01*
X138920000Y-100445100D01*
X139106331Y-100426748D01*
X139285501Y-100372397D01*
X139450625Y-100284137D01*
X139595357Y-100165358D01*
X139714136Y-100020626D01*
X139802396Y-99855502D01*
X139856747Y-99676332D01*
X139875099Y-99490001D01*
X139856747Y-99303670D01*
X139802396Y-99124500D01*
X139802395Y-99124498D01*
X139714137Y-98959377D01*
X139714135Y-98959374D01*
X139595357Y-98814643D01*
X139583608Y-98805001D01*
X147094540Y-98805001D01*
X147114326Y-98993257D01*
X147114327Y-98993260D01*
X147172818Y-99173278D01*
X147172821Y-99173285D01*
X147267467Y-99337217D01*
X147394129Y-99477889D01*
X147547265Y-99589149D01*
X147547270Y-99589152D01*
X147720192Y-99666143D01*
X147720197Y-99666145D01*
X147905354Y-99705501D01*
X147905355Y-99705501D01*
X148094644Y-99705501D01*
X148094646Y-99705501D01*
X148279803Y-99666145D01*
X148452730Y-99589152D01*
X148605871Y-99477889D01*
X148732533Y-99337217D01*
X148827179Y-99173285D01*
X148885674Y-98993257D01*
X148905460Y-98805001D01*
X158094540Y-98805001D01*
X158114326Y-98993257D01*
X158114327Y-98993260D01*
X158172818Y-99173278D01*
X158172821Y-99173285D01*
X158267467Y-99337217D01*
X158394129Y-99477889D01*
X158547265Y-99589149D01*
X158547270Y-99589152D01*
X158720192Y-99666143D01*
X158720197Y-99666145D01*
X158905354Y-99705501D01*
X158905355Y-99705501D01*
X159094644Y-99705501D01*
X159094646Y-99705501D01*
X159279803Y-99666145D01*
X159452730Y-99589152D01*
X159605871Y-99477889D01*
X159732533Y-99337217D01*
X159827179Y-99173285D01*
X159885674Y-98993257D01*
X159905460Y-98805001D01*
X159885674Y-98616745D01*
X159827179Y-98436717D01*
X159732533Y-98272785D01*
X159605871Y-98132113D01*
X159605870Y-98132112D01*
X159452734Y-98020852D01*
X159452729Y-98020849D01*
X159279807Y-97943858D01*
X159279802Y-97943856D01*
X159134001Y-97912866D01*
X159094646Y-97904501D01*
X158905354Y-97904501D01*
X158872897Y-97911399D01*
X158720197Y-97943856D01*
X158720192Y-97943858D01*
X158547270Y-98020849D01*
X158547265Y-98020852D01*
X158394129Y-98132112D01*
X158267466Y-98272786D01*
X158172821Y-98436716D01*
X158172818Y-98436723D01*
X158114327Y-98616741D01*
X158114326Y-98616745D01*
X158094540Y-98805001D01*
X148905460Y-98805001D01*
X148885674Y-98616745D01*
X148827179Y-98436717D01*
X148732533Y-98272785D01*
X148605871Y-98132113D01*
X148605870Y-98132112D01*
X148452734Y-98020852D01*
X148452729Y-98020849D01*
X148279807Y-97943858D01*
X148279802Y-97943856D01*
X148134001Y-97912866D01*
X148094646Y-97904501D01*
X147905354Y-97904501D01*
X147872897Y-97911399D01*
X147720197Y-97943856D01*
X147720192Y-97943858D01*
X147547270Y-98020849D01*
X147547265Y-98020852D01*
X147394129Y-98132112D01*
X147267466Y-98272786D01*
X147172821Y-98436716D01*
X147172818Y-98436723D01*
X147114327Y-98616741D01*
X147114326Y-98616745D01*
X147094540Y-98805001D01*
X139583608Y-98805001D01*
X139450626Y-98695865D01*
X139450623Y-98695863D01*
X139285502Y-98607605D01*
X139106333Y-98553254D01*
X139106331Y-98553253D01*
X138920000Y-98534902D01*
X138733668Y-98553253D01*
X138733666Y-98553254D01*
X138554497Y-98607605D01*
X138389376Y-98695863D01*
X138389373Y-98695865D01*
X138244642Y-98814643D01*
X138125864Y-98959374D01*
X138125862Y-98959377D01*
X138037604Y-99124498D01*
X137983253Y-99303667D01*
X137983252Y-99303669D01*
X137964901Y-99490001D01*
X128675099Y-99490001D01*
X128656747Y-99303670D01*
X128602396Y-99124500D01*
X128602395Y-99124498D01*
X128514137Y-98959377D01*
X128514135Y-98959374D01*
X128395357Y-98814643D01*
X128250626Y-98695865D01*
X128250623Y-98695863D01*
X128085502Y-98607605D01*
X127906333Y-98553254D01*
X127906331Y-98553253D01*
X127720000Y-98534902D01*
X127533668Y-98553253D01*
X127533666Y-98553254D01*
X127354497Y-98607605D01*
X127189376Y-98695863D01*
X127189373Y-98695865D01*
X127044642Y-98814643D01*
X126925864Y-98959374D01*
X126925862Y-98959377D01*
X126837604Y-99124498D01*
X126783253Y-99303667D01*
X126783252Y-99303669D01*
X126764901Y-99490001D01*
X124120500Y-99490001D01*
X124120500Y-96300872D01*
X124140185Y-96233833D01*
X124192989Y-96188078D01*
X124262147Y-96178134D01*
X124313389Y-96197769D01*
X124357872Y-96227491D01*
X124357875Y-96227493D01*
X124389393Y-96240548D01*
X124497004Y-96285122D01*
X124644698Y-96314500D01*
X124644702Y-96314501D01*
X124644703Y-96314501D01*
X124795298Y-96314501D01*
X124795299Y-96314500D01*
X124942996Y-96285122D01*
X125082127Y-96227492D01*
X125207340Y-96143827D01*
X125313826Y-96037341D01*
X125397491Y-95912128D01*
X125455121Y-95772997D01*
X125484500Y-95625298D01*
X125484500Y-95474704D01*
X125455121Y-95327005D01*
X125397491Y-95187874D01*
X125397490Y-95187873D01*
X125397487Y-95187867D01*
X125313826Y-95062661D01*
X125313823Y-95062657D01*
X125207343Y-94956177D01*
X125207339Y-94956174D01*
X125082133Y-94872513D01*
X125082124Y-94872508D01*
X124942996Y-94814880D01*
X124942988Y-94814878D01*
X124795301Y-94785501D01*
X124795297Y-94785501D01*
X124644703Y-94785501D01*
X124644698Y-94785501D01*
X124497011Y-94814878D01*
X124497003Y-94814880D01*
X124357875Y-94872508D01*
X124357861Y-94872516D01*
X124313390Y-94902231D01*
X124246713Y-94923109D01*
X124179333Y-94904624D01*
X124132643Y-94852645D01*
X124120500Y-94799129D01*
X124120500Y-89489999D01*
X124614390Y-89489999D01*
X124614390Y-89490002D01*
X124634804Y-89775434D01*
X124695628Y-90055038D01*
X124795635Y-90323167D01*
X124932770Y-90574310D01*
X124932775Y-90574318D01*
X125104254Y-90803388D01*
X125104270Y-90803406D01*
X125306594Y-91005730D01*
X125306612Y-91005746D01*
X125535682Y-91177225D01*
X125535690Y-91177230D01*
X125786833Y-91314365D01*
X125786832Y-91314365D01*
X125786836Y-91314366D01*
X125786839Y-91314368D01*
X126054954Y-91414370D01*
X126054960Y-91414371D01*
X126054962Y-91414372D01*
X126334566Y-91475196D01*
X126334568Y-91475196D01*
X126334572Y-91475197D01*
X126588220Y-91493338D01*
X126619999Y-91495611D01*
X126620000Y-91495611D01*
X126620001Y-91495611D01*
X126648595Y-91493565D01*
X126905428Y-91475197D01*
X126999606Y-91454710D01*
X127185037Y-91414372D01*
X127185037Y-91414371D01*
X127185046Y-91414370D01*
X127453161Y-91314368D01*
X127704315Y-91177227D01*
X127933395Y-91005740D01*
X128135739Y-90803396D01*
X128307226Y-90574316D01*
X128444367Y-90323162D01*
X128544369Y-90055047D01*
X128586317Y-89862214D01*
X128605195Y-89775434D01*
X128605195Y-89775433D01*
X128605196Y-89775429D01*
X128621816Y-89543049D01*
X128642427Y-89487788D01*
X128626523Y-89463041D01*
X128621816Y-89436952D01*
X128611664Y-89295008D01*
X128605196Y-89204573D01*
X128544369Y-88924955D01*
X128444367Y-88656840D01*
X128436644Y-88642697D01*
X128307229Y-88405691D01*
X128307224Y-88405683D01*
X128135745Y-88176613D01*
X128135729Y-88176595D01*
X127933405Y-87974271D01*
X127933387Y-87974255D01*
X127704317Y-87802776D01*
X127704309Y-87802771D01*
X127453166Y-87665636D01*
X127453167Y-87665636D01*
X127317412Y-87615002D01*
X127185046Y-87565632D01*
X127185043Y-87565631D01*
X127185037Y-87565629D01*
X126905433Y-87504805D01*
X126620001Y-87484391D01*
X126619999Y-87484391D01*
X126334566Y-87504805D01*
X126054962Y-87565629D01*
X125786833Y-87665636D01*
X125535690Y-87802771D01*
X125535682Y-87802776D01*
X125306612Y-87974255D01*
X125306594Y-87974271D01*
X125104270Y-88176595D01*
X125104254Y-88176613D01*
X124932775Y-88405683D01*
X124932770Y-88405691D01*
X124795635Y-88656834D01*
X124695628Y-88924963D01*
X124634804Y-89204567D01*
X124614390Y-89489999D01*
X124120500Y-89489999D01*
X124120500Y-65489999D01*
X124614390Y-65489999D01*
X124614390Y-65490002D01*
X124634804Y-65775434D01*
X124695628Y-66055038D01*
X124695630Y-66055044D01*
X124695631Y-66055047D01*
X124787986Y-66302659D01*
X124795635Y-66323167D01*
X124932770Y-66574310D01*
X124932775Y-66574318D01*
X125104254Y-66803388D01*
X125104270Y-66803406D01*
X125306594Y-67005730D01*
X125306612Y-67005746D01*
X125535682Y-67177225D01*
X125535690Y-67177230D01*
X125786833Y-67314365D01*
X125786832Y-67314365D01*
X125786836Y-67314366D01*
X125786839Y-67314368D01*
X126054954Y-67414370D01*
X126054960Y-67414371D01*
X126054962Y-67414372D01*
X126334566Y-67475196D01*
X126334568Y-67475196D01*
X126334572Y-67475197D01*
X126588220Y-67493338D01*
X126619999Y-67495611D01*
X126620000Y-67495611D01*
X126620001Y-67495611D01*
X126648595Y-67493565D01*
X126905428Y-67475197D01*
X126964003Y-67462455D01*
X127185037Y-67414372D01*
X127185037Y-67414371D01*
X127185046Y-67414370D01*
X127453161Y-67314368D01*
X127704315Y-67177227D01*
X127933395Y-67005740D01*
X128135739Y-66803396D01*
X128307226Y-66574316D01*
X128444367Y-66323162D01*
X128544369Y-66055047D01*
X128605196Y-65775429D01*
X128625610Y-65490001D01*
X128605196Y-65204573D01*
X128590102Y-65135188D01*
X128544371Y-64924963D01*
X128544370Y-64924961D01*
X128544369Y-64924955D01*
X128444367Y-64656840D01*
X128395481Y-64567313D01*
X128307229Y-64405691D01*
X128307224Y-64405683D01*
X128135745Y-64176613D01*
X128135729Y-64176595D01*
X127933405Y-63974271D01*
X127933387Y-63974255D01*
X127704317Y-63802776D01*
X127704309Y-63802771D01*
X127453166Y-63665636D01*
X127453167Y-63665636D01*
X127345915Y-63625633D01*
X127185046Y-63565632D01*
X127185043Y-63565631D01*
X127185037Y-63565629D01*
X126905433Y-63504805D01*
X126620001Y-63484391D01*
X126619999Y-63484391D01*
X126334566Y-63504805D01*
X126054962Y-63565629D01*
X125786833Y-63665636D01*
X125535690Y-63802771D01*
X125535682Y-63802776D01*
X125306612Y-63974255D01*
X125306594Y-63974271D01*
X125104270Y-64176595D01*
X125104254Y-64176613D01*
X124932775Y-64405683D01*
X124932770Y-64405691D01*
X124795635Y-64656834D01*
X124695628Y-64924963D01*
X124634804Y-65204567D01*
X124614390Y-65489999D01*
X124120500Y-65489999D01*
X124120500Y-63114501D01*
X124140185Y-63047462D01*
X124192989Y-63001707D01*
X124244500Y-62990501D01*
X134522369Y-62990501D01*
X134589408Y-63010186D01*
G37*
%TD.AperFunction*%
%TA.AperFunction,Conductor*%
G36*
X145779703Y-67435781D02*
G01*
X145786181Y-67441813D01*
X147501181Y-69156813D01*
X147534666Y-69218136D01*
X147537500Y-69244494D01*
X147537500Y-69359495D01*
X147517815Y-69426534D01*
X147494032Y-69453785D01*
X147417317Y-69519306D01*
X147417311Y-69519312D01*
X147248588Y-69716860D01*
X147112843Y-69938377D01*
X147013427Y-70178390D01*
X146952778Y-70431010D01*
X146932396Y-70690001D01*
X146945024Y-70850474D01*
X146930659Y-70918851D01*
X146881607Y-70968608D01*
X146868861Y-70974762D01*
X146820375Y-70994846D01*
X146820372Y-70994848D01*
X146620788Y-71117152D01*
X146553344Y-71135396D01*
X146491212Y-71117152D01*
X146291628Y-70994848D01*
X146291626Y-70994847D01*
X146251044Y-70978037D01*
X146196641Y-70934195D01*
X146174578Y-70867900D01*
X146174499Y-70863477D01*
X146174499Y-69876990D01*
X146174498Y-69876980D01*
X146168312Y-69798356D01*
X146119320Y-69615513D01*
X146036916Y-69453785D01*
X146033385Y-69446854D01*
X145978532Y-69379117D01*
X145914257Y-69299744D01*
X145767149Y-69180618D01*
X145764572Y-69179305D01*
X145642205Y-69116955D01*
X145591409Y-69068980D01*
X145574500Y-69006470D01*
X145574500Y-67529494D01*
X145594185Y-67462455D01*
X145646989Y-67416700D01*
X145716147Y-67406756D01*
X145779703Y-67435781D01*
G37*
%TD.AperFunction*%
%TD*%
M02*
