M48
; DRILL file {KiCad 8.0.7-8.0.7-0~ubuntu22.04.1} date 2025-01-12T20:07:59+0100
; FORMAT={-:-/ absolute / inch / decimal}
; #@! TF.CreationDate,2025-01-12T20:07:59+01:00
; #@! TF.GenerationSoftware,Kicad,Pcbnew,8.0.7-8.0.7-0~ubuntu22.04.1
; #@! TF.FileFunction,Plated,1,2,PTH
FMAT,2
INCH
; #@! TA.AperFunction,Plated,PTH,ViaDrill
T1C0.0138
; #@! TA.AperFunction,Plated,PTH,ComponentDrill
T2C0.0236
; #@! TA.AperFunction,Plated,PTH,ComponentDrill
T3C0.0315
; #@! TA.AperFunction,Plated,PTH,ComponentDrill
T4C0.0350
; #@! TA.AperFunction,Plated,PTH,ComponentDrill
T5C0.0374
; #@! TA.AperFunction,Plated,PTH,ComponentDrill
T6C0.0394
; #@! TA.AperFunction,Plated,PTH,ComponentDrill
T7C0.0402
; #@! TA.AperFunction,Plated,PTH,ComponentDrill
T8C0.0618
; #@! TA.AperFunction,Plated,PTH,ComponentDrill
T9C0.0748
%
G90
G05
T1
X6.4417Y-3.6728
X6.5205Y-3.6492
X6.5717Y-3.6492
X6.6307Y-3.7197
T3
X5.2433Y-2.7594
X5.2433Y-3.0594
X5.3433Y-2.7594
X5.3433Y-3.0594
T4
X5.56Y-3.0429
X5.6502Y-3.0429
X5.6899Y-2.7831
X5.7299Y-2.8531
X5.7699Y-2.7831
X5.8099Y-2.8531
X5.8499Y-2.7831
X5.8899Y-2.8531
X5.9299Y-2.7831
X5.9699Y-2.8531
X6.01Y-3.0429
X6.1002Y-3.0429
T5
X4.9831Y-3.2467
X5.0815Y-3.2467
X5.1799Y-3.2467
X5.2783Y-3.2467
X5.5126Y-3.2476
X5.611Y-3.2476
X5.7094Y-3.2476
X5.8079Y-3.2476
T6
X5.8268Y-3.89
X6.2598Y-3.89
X6.2961Y-3.1807
X6.5283Y-3.1807
T7
X5.0283Y-3.7988
X5.0283Y-3.9169
X5.1465Y-3.7988
X5.1465Y-3.9169
X5.4693Y-3.7988
X5.4693Y-3.9169
X5.5874Y-3.7988
X5.5874Y-3.9169
T8
X5.51Y-2.8181
X6.1502Y-2.8181
T9
X5.9449Y-3.4963
X6.1417Y-3.4963
T2
G00X6.3661Y-3.7217
M15
G01X6.3661Y-3.765
M16
G05
G00X6.3661Y-3.8929
M15
G01X6.3661Y-3.9244
M16
G05
G00X6.7063Y-3.7217
M15
G01X6.7063Y-3.765
M16
G05
G00X6.7063Y-3.8929
M15
G01X6.7063Y-3.9244
M16
G05
M30
