%TF.GenerationSoftware,KiCad,Pcbnew,8.0.7-8.0.7-0~ubuntu22.04.1*%
%TF.CreationDate,2025-01-12T20:07:59+01:00*%
%TF.ProjectId,debug_can_usb,64656275-675f-4636-916e-5f7573622e6b,rev?*%
%TF.SameCoordinates,Original*%
%TF.FileFunction,Legend,Top*%
%TF.FilePolarity,Positive*%
%FSLAX46Y46*%
G04 Gerber Fmt 4.6, Leading zero omitted, Abs format (unit mm)*
G04 Created by KiCad (PCBNEW 8.0.7-8.0.7-0~ubuntu22.04.1) date 2025-01-12 20:07:59*
%MOMM*%
%LPD*%
G01*
G04 APERTURE LIST*
G04 Aperture macros list*
%AMRoundRect*
0 Rectangle with rounded corners*
0 $1 Rounding radius*
0 $2 $3 $4 $5 $6 $7 $8 $9 X,Y pos of 4 corners*
0 Add a 4 corners polygon primitive as box body*
4,1,4,$2,$3,$4,$5,$6,$7,$8,$9,$2,$3,0*
0 Add four circle primitives for the rounded corners*
1,1,$1+$1,$2,$3*
1,1,$1+$1,$4,$5*
1,1,$1+$1,$6,$7*
1,1,$1+$1,$8,$9*
0 Add four rect primitives between the rounded corners*
20,1,$1+$1,$2,$3,$4,$5,0*
20,1,$1+$1,$4,$5,$6,$7,0*
20,1,$1+$1,$6,$7,$8,$9,0*
20,1,$1+$1,$8,$9,$2,$3,0*%
G04 Aperture macros list end*
%ADD10C,0.100000*%
%ADD11C,0.400000*%
%ADD12C,0.150000*%
%ADD13C,0.000000*%
%ADD14C,0.120000*%
%ADD15RoundRect,0.200000X-0.275000X0.200000X-0.275000X-0.200000X0.275000X-0.200000X0.275000X0.200000X0*%
%ADD16RoundRect,0.218750X0.218750X0.256250X-0.218750X0.256250X-0.218750X-0.256250X0.218750X-0.256250X0*%
%ADD17RoundRect,0.135000X-0.135000X-0.185000X0.135000X-0.185000X0.135000X0.185000X-0.135000X0.185000X0*%
%ADD18RoundRect,0.250000X-0.650000X1.000000X-0.650000X-1.000000X0.650000X-1.000000X0.650000X1.000000X0*%
%ADD19C,1.020000*%
%ADD20RoundRect,0.250001X0.499999X0.499999X-0.499999X0.499999X-0.499999X-0.499999X0.499999X-0.499999X0*%
%ADD21C,1.500000*%
%ADD22RoundRect,0.135000X-0.185000X0.135000X-0.185000X-0.135000X0.185000X-0.135000X0.185000X0.135000X0*%
%ADD23C,0.650000*%
%ADD24R,0.600000X1.240000*%
%ADD25R,0.300000X1.240000*%
%ADD26O,1.000000X2.100000*%
%ADD27O,1.000000X1.800000*%
%ADD28RoundRect,0.135000X0.135000X0.185000X-0.135000X0.185000X-0.135000X-0.185000X0.135000X-0.185000X0*%
%ADD29RoundRect,0.250000X-0.600000X-0.725000X0.600000X-0.725000X0.600000X0.725000X-0.600000X0.725000X0*%
%ADD30O,1.700000X1.950000*%
%ADD31R,1.700000X1.700000*%
%ADD32R,1.600000X1.600000*%
%ADD33O,1.600000X1.600000*%
%ADD34C,1.400000*%
%ADD35RoundRect,0.770000X0.980000X0.980000X-0.980000X0.980000X-0.980000X-0.980000X0.980000X-0.980000X0*%
%ADD36C,3.500000*%
%ADD37C,3.250000*%
%ADD38R,1.500000X1.500000*%
%ADD39C,2.300000*%
G04 APERTURE END LIST*
D10*
X136720000Y-79390001D02*
X136220000Y-78890001D01*
X133970000Y-93390001D02*
X132820000Y-93990001D01*
X133970000Y-91290001D02*
X140270000Y-91290001D01*
D11*
X131120000Y-85340001D02*
X131120000Y-88840001D01*
D10*
X129320000Y-78990001D02*
X136720000Y-79390001D01*
D11*
X143620000Y-90740001D02*
X143620000Y-94490001D01*
D10*
X140920000Y-94090001D02*
X140420000Y-93990001D01*
X136720000Y-79390001D02*
X136020000Y-79590001D01*
X140270000Y-93390001D02*
X140920000Y-94090001D01*
X124020000Y-75990001D02*
X129320000Y-75990001D01*
X129320000Y-78990001D01*
X124020000Y-78990001D01*
X124020000Y-75990001D01*
X132820000Y-93990001D02*
X132920000Y-93490001D01*
X132920000Y-93490001D02*
X132820000Y-93990001D01*
X127920000Y-78990001D02*
X127920000Y-79790001D01*
X127920000Y-75990001D02*
X127920000Y-78990001D01*
X127920000Y-79790001D02*
X127620000Y-79490001D01*
X137120000Y-89190001D02*
X137120000Y-93390001D01*
X133970000Y-89190001D02*
X140270000Y-89190001D01*
X140270000Y-93390001D01*
X133970000Y-93390001D01*
X133970000Y-89190001D01*
X127920000Y-79790001D02*
X128220000Y-79490001D01*
X132820000Y-93990001D02*
X133220000Y-93990001D01*
X126670000Y-78990001D02*
X126670000Y-75990001D01*
X125320000Y-75990001D02*
X125320000Y-78990001D01*
D11*
X131120000Y-90240001D02*
X131095000Y-94390001D01*
D10*
X141020000Y-93590001D02*
X140920000Y-94090001D01*
D11*
X143620000Y-85990001D02*
X143620000Y-89490001D01*
D10*
X138495312Y-90667181D02*
X138447693Y-90714801D01*
X138447693Y-90714801D02*
X138304836Y-90762420D01*
X138304836Y-90762420D02*
X138209598Y-90762420D01*
X138209598Y-90762420D02*
X138066741Y-90714801D01*
X138066741Y-90714801D02*
X137971503Y-90619562D01*
X137971503Y-90619562D02*
X137923884Y-90524324D01*
X137923884Y-90524324D02*
X137876265Y-90333848D01*
X137876265Y-90333848D02*
X137876265Y-90190991D01*
X137876265Y-90190991D02*
X137923884Y-90000515D01*
X137923884Y-90000515D02*
X137971503Y-89905277D01*
X137971503Y-89905277D02*
X138066741Y-89810039D01*
X138066741Y-89810039D02*
X138209598Y-89762420D01*
X138209598Y-89762420D02*
X138304836Y-89762420D01*
X138304836Y-89762420D02*
X138447693Y-89810039D01*
X138447693Y-89810039D02*
X138495312Y-89857658D01*
X138923884Y-90762420D02*
X138923884Y-89762420D01*
X138923884Y-90238610D02*
X139495312Y-90238610D01*
X139495312Y-90762420D02*
X139495312Y-89762420D01*
X137947693Y-91910039D02*
X137852455Y-91862420D01*
X137852455Y-91862420D02*
X137709598Y-91862420D01*
X137709598Y-91862420D02*
X137566741Y-91910039D01*
X137566741Y-91910039D02*
X137471503Y-92005277D01*
X137471503Y-92005277D02*
X137423884Y-92100515D01*
X137423884Y-92100515D02*
X137376265Y-92290991D01*
X137376265Y-92290991D02*
X137376265Y-92433848D01*
X137376265Y-92433848D02*
X137423884Y-92624324D01*
X137423884Y-92624324D02*
X137471503Y-92719562D01*
X137471503Y-92719562D02*
X137566741Y-92814801D01*
X137566741Y-92814801D02*
X137709598Y-92862420D01*
X137709598Y-92862420D02*
X137804836Y-92862420D01*
X137804836Y-92862420D02*
X137947693Y-92814801D01*
X137947693Y-92814801D02*
X137995312Y-92767181D01*
X137995312Y-92767181D02*
X137995312Y-92433848D01*
X137995312Y-92433848D02*
X137804836Y-92433848D01*
X138423884Y-92862420D02*
X138423884Y-91862420D01*
X138423884Y-91862420D02*
X138995312Y-92862420D01*
X138995312Y-92862420D02*
X138995312Y-91862420D01*
X139471503Y-92862420D02*
X139471503Y-91862420D01*
X139471503Y-91862420D02*
X139709598Y-91862420D01*
X139709598Y-91862420D02*
X139852455Y-91910039D01*
X139852455Y-91910039D02*
X139947693Y-92005277D01*
X139947693Y-92005277D02*
X139995312Y-92100515D01*
X139995312Y-92100515D02*
X140042931Y-92290991D01*
X140042931Y-92290991D02*
X140042931Y-92433848D01*
X140042931Y-92433848D02*
X139995312Y-92624324D01*
X139995312Y-92624324D02*
X139947693Y-92719562D01*
X139947693Y-92719562D02*
X139852455Y-92814801D01*
X139852455Y-92814801D02*
X139709598Y-92862420D01*
X139709598Y-92862420D02*
X139471503Y-92862420D01*
X126397180Y-77614688D02*
X126444800Y-77662307D01*
X126444800Y-77662307D02*
X126492419Y-77805164D01*
X126492419Y-77805164D02*
X126492419Y-77900402D01*
X126492419Y-77900402D02*
X126444800Y-78043259D01*
X126444800Y-78043259D02*
X126349561Y-78138497D01*
X126349561Y-78138497D02*
X126254323Y-78186116D01*
X126254323Y-78186116D02*
X126063847Y-78233735D01*
X126063847Y-78233735D02*
X125920990Y-78233735D01*
X125920990Y-78233735D02*
X125730514Y-78186116D01*
X125730514Y-78186116D02*
X125635276Y-78138497D01*
X125635276Y-78138497D02*
X125540038Y-78043259D01*
X125540038Y-78043259D02*
X125492419Y-77900402D01*
X125492419Y-77900402D02*
X125492419Y-77805164D01*
X125492419Y-77805164D02*
X125540038Y-77662307D01*
X125540038Y-77662307D02*
X125587657Y-77614688D01*
X126492419Y-76709926D02*
X126492419Y-77186116D01*
X126492419Y-77186116D02*
X125492419Y-77186116D01*
X124240038Y-78262307D02*
X124192419Y-78357545D01*
X124192419Y-78357545D02*
X124192419Y-78500402D01*
X124192419Y-78500402D02*
X124240038Y-78643259D01*
X124240038Y-78643259D02*
X124335276Y-78738497D01*
X124335276Y-78738497D02*
X124430514Y-78786116D01*
X124430514Y-78786116D02*
X124620990Y-78833735D01*
X124620990Y-78833735D02*
X124763847Y-78833735D01*
X124763847Y-78833735D02*
X124954323Y-78786116D01*
X124954323Y-78786116D02*
X125049561Y-78738497D01*
X125049561Y-78738497D02*
X125144800Y-78643259D01*
X125144800Y-78643259D02*
X125192419Y-78500402D01*
X125192419Y-78500402D02*
X125192419Y-78405164D01*
X125192419Y-78405164D02*
X125144800Y-78262307D01*
X125144800Y-78262307D02*
X125097180Y-78214688D01*
X125097180Y-78214688D02*
X124763847Y-78214688D01*
X124763847Y-78214688D02*
X124763847Y-78405164D01*
X125192419Y-77786116D02*
X124192419Y-77786116D01*
X124192419Y-77786116D02*
X125192419Y-77214688D01*
X125192419Y-77214688D02*
X124192419Y-77214688D01*
X125192419Y-76738497D02*
X124192419Y-76738497D01*
X124192419Y-76738497D02*
X124192419Y-76500402D01*
X124192419Y-76500402D02*
X124240038Y-76357545D01*
X124240038Y-76357545D02*
X124335276Y-76262307D01*
X124335276Y-76262307D02*
X124430514Y-76214688D01*
X124430514Y-76214688D02*
X124620990Y-76167069D01*
X124620990Y-76167069D02*
X124763847Y-76167069D01*
X124763847Y-76167069D02*
X124954323Y-76214688D01*
X124954323Y-76214688D02*
X125049561Y-76262307D01*
X125049561Y-76262307D02*
X125144800Y-76357545D01*
X125144800Y-76357545D02*
X125192419Y-76500402D01*
X125192419Y-76500402D02*
X125192419Y-76738497D01*
G36*
X159277827Y-77753740D02*
G01*
X159358980Y-77834893D01*
X159400517Y-77917967D01*
X159445312Y-78097146D01*
X159445312Y-78227693D01*
X159400517Y-78406871D01*
X159358980Y-78489945D01*
X159277826Y-78571099D01*
X159153866Y-78612420D01*
X158973884Y-78612420D01*
X158973884Y-77712420D01*
X159153866Y-77712420D01*
X159277827Y-77753740D01*
G37*
G36*
X160843094Y-78823531D02*
G01*
X158762773Y-78823531D01*
X158762773Y-77662420D01*
X158873884Y-77662420D01*
X158873884Y-78662420D01*
X158877690Y-78681554D01*
X158904750Y-78708614D01*
X158923884Y-78712420D01*
X159161979Y-78712420D01*
X159169841Y-78710856D01*
X159177790Y-78709854D01*
X159320647Y-78662235D01*
X159322822Y-78660995D01*
X159323971Y-78660995D01*
X159330641Y-78656537D01*
X159337595Y-78652574D01*
X159338107Y-78651548D01*
X159340192Y-78650156D01*
X159435430Y-78554917D01*
X159439883Y-78548251D01*
X159444795Y-78541923D01*
X159492414Y-78446685D01*
X159493860Y-78441403D01*
X159496200Y-78436451D01*
X159539730Y-78262333D01*
X159877690Y-78262333D01*
X159877690Y-78300601D01*
X159904750Y-78327661D01*
X159923884Y-78331467D01*
X160254836Y-78331467D01*
X160254836Y-78662420D01*
X160258642Y-78681554D01*
X160285702Y-78708614D01*
X160323970Y-78708614D01*
X160351030Y-78681554D01*
X160354836Y-78662420D01*
X160354836Y-78331467D01*
X160685789Y-78331467D01*
X160704923Y-78327661D01*
X160731983Y-78300601D01*
X160731983Y-78262333D01*
X160704923Y-78235273D01*
X160685789Y-78231467D01*
X160354836Y-78231467D01*
X160354836Y-77900515D01*
X160351030Y-77881381D01*
X160323970Y-77854321D01*
X160285702Y-77854321D01*
X160258642Y-77881381D01*
X160254836Y-77900515D01*
X160254836Y-78231467D01*
X159923884Y-78231467D01*
X159904750Y-78235273D01*
X159877690Y-78262333D01*
X159539730Y-78262333D01*
X159543819Y-78245975D01*
X159544116Y-78239857D01*
X159545312Y-78233848D01*
X159545312Y-78090991D01*
X159544116Y-78084981D01*
X159543819Y-78078864D01*
X159496200Y-77888388D01*
X159493860Y-77883435D01*
X159492414Y-77878154D01*
X159444795Y-77782916D01*
X159439879Y-77776581D01*
X159435429Y-77769922D01*
X159340191Y-77674684D01*
X159338108Y-77673292D01*
X159337595Y-77672266D01*
X159330634Y-77668298D01*
X159323970Y-77663845D01*
X159322822Y-77663845D01*
X159320647Y-77662605D01*
X159177790Y-77614986D01*
X159169841Y-77613983D01*
X159161979Y-77612420D01*
X158923884Y-77612420D01*
X158904750Y-77616226D01*
X158877690Y-77643286D01*
X158873884Y-77662420D01*
X158762773Y-77662420D01*
X158762773Y-77501309D01*
X160843094Y-77501309D01*
X160843094Y-78823531D01*
G37*
X127697180Y-77614688D02*
X127744800Y-77662307D01*
X127744800Y-77662307D02*
X127792419Y-77805164D01*
X127792419Y-77805164D02*
X127792419Y-77900402D01*
X127792419Y-77900402D02*
X127744800Y-78043259D01*
X127744800Y-78043259D02*
X127649561Y-78138497D01*
X127649561Y-78138497D02*
X127554323Y-78186116D01*
X127554323Y-78186116D02*
X127363847Y-78233735D01*
X127363847Y-78233735D02*
X127220990Y-78233735D01*
X127220990Y-78233735D02*
X127030514Y-78186116D01*
X127030514Y-78186116D02*
X126935276Y-78138497D01*
X126935276Y-78138497D02*
X126840038Y-78043259D01*
X126840038Y-78043259D02*
X126792419Y-77900402D01*
X126792419Y-77900402D02*
X126792419Y-77805164D01*
X126792419Y-77805164D02*
X126840038Y-77662307D01*
X126840038Y-77662307D02*
X126887657Y-77614688D01*
X127792419Y-77186116D02*
X126792419Y-77186116D01*
X127268609Y-77186116D02*
X127268609Y-76614688D01*
X127792419Y-76614688D02*
X126792419Y-76614688D01*
X135395312Y-90617181D02*
X135347693Y-90664801D01*
X135347693Y-90664801D02*
X135204836Y-90712420D01*
X135204836Y-90712420D02*
X135109598Y-90712420D01*
X135109598Y-90712420D02*
X134966741Y-90664801D01*
X134966741Y-90664801D02*
X134871503Y-90569562D01*
X134871503Y-90569562D02*
X134823884Y-90474324D01*
X134823884Y-90474324D02*
X134776265Y-90283848D01*
X134776265Y-90283848D02*
X134776265Y-90140991D01*
X134776265Y-90140991D02*
X134823884Y-89950515D01*
X134823884Y-89950515D02*
X134871503Y-89855277D01*
X134871503Y-89855277D02*
X134966741Y-89760039D01*
X134966741Y-89760039D02*
X135109598Y-89712420D01*
X135109598Y-89712420D02*
X135204836Y-89712420D01*
X135204836Y-89712420D02*
X135347693Y-89760039D01*
X135347693Y-89760039D02*
X135395312Y-89807658D01*
X136300074Y-90712420D02*
X135823884Y-90712420D01*
X135823884Y-90712420D02*
X135823884Y-89712420D01*
X129092419Y-78286116D02*
X128092419Y-78286116D01*
X128092419Y-78286116D02*
X129092419Y-77714688D01*
X129092419Y-77714688D02*
X128092419Y-77714688D01*
X128997180Y-76667069D02*
X129044800Y-76714688D01*
X129044800Y-76714688D02*
X129092419Y-76857545D01*
X129092419Y-76857545D02*
X129092419Y-76952783D01*
X129092419Y-76952783D02*
X129044800Y-77095640D01*
X129044800Y-77095640D02*
X128949561Y-77190878D01*
X128949561Y-77190878D02*
X128854323Y-77238497D01*
X128854323Y-77238497D02*
X128663847Y-77286116D01*
X128663847Y-77286116D02*
X128520990Y-77286116D01*
X128520990Y-77286116D02*
X128330514Y-77238497D01*
X128330514Y-77238497D02*
X128235276Y-77190878D01*
X128235276Y-77190878D02*
X128140038Y-77095640D01*
X128140038Y-77095640D02*
X128092419Y-76952783D01*
X128092419Y-76952783D02*
X128092419Y-76857545D01*
X128092419Y-76857545D02*
X128140038Y-76714688D01*
X128140038Y-76714688D02*
X128187657Y-76667069D01*
G36*
X165277827Y-77753740D02*
G01*
X165358980Y-77834893D01*
X165400517Y-77917967D01*
X165445312Y-78097146D01*
X165445312Y-78227693D01*
X165400517Y-78406871D01*
X165358980Y-78489945D01*
X165277826Y-78571099D01*
X165153866Y-78612420D01*
X164973884Y-78612420D01*
X164973884Y-77712420D01*
X165153866Y-77712420D01*
X165277827Y-77753740D01*
G37*
G36*
X166843094Y-78823531D02*
G01*
X164762773Y-78823531D01*
X164762773Y-77662420D01*
X164873884Y-77662420D01*
X164873884Y-78662420D01*
X164877690Y-78681554D01*
X164904750Y-78708614D01*
X164923884Y-78712420D01*
X165161979Y-78712420D01*
X165169841Y-78710856D01*
X165177790Y-78709854D01*
X165320647Y-78662235D01*
X165322822Y-78660995D01*
X165323971Y-78660995D01*
X165330641Y-78656537D01*
X165337595Y-78652574D01*
X165338107Y-78651548D01*
X165340192Y-78650156D01*
X165435430Y-78554917D01*
X165439883Y-78548251D01*
X165444795Y-78541923D01*
X165492414Y-78446685D01*
X165493860Y-78441403D01*
X165496200Y-78436451D01*
X165539730Y-78262333D01*
X165877690Y-78262333D01*
X165877690Y-78300601D01*
X165904750Y-78327661D01*
X165923884Y-78331467D01*
X166685789Y-78331467D01*
X166704923Y-78327661D01*
X166731983Y-78300601D01*
X166731983Y-78262333D01*
X166704923Y-78235273D01*
X166685789Y-78231467D01*
X165923884Y-78231467D01*
X165904750Y-78235273D01*
X165877690Y-78262333D01*
X165539730Y-78262333D01*
X165543819Y-78245975D01*
X165544116Y-78239857D01*
X165545312Y-78233848D01*
X165545312Y-78090991D01*
X165544116Y-78084981D01*
X165543819Y-78078864D01*
X165496200Y-77888388D01*
X165493860Y-77883435D01*
X165492414Y-77878154D01*
X165444795Y-77782916D01*
X165439879Y-77776581D01*
X165435429Y-77769922D01*
X165340191Y-77674684D01*
X165338108Y-77673292D01*
X165337595Y-77672266D01*
X165330634Y-77668298D01*
X165323970Y-77663845D01*
X165322822Y-77663845D01*
X165320647Y-77662605D01*
X165177790Y-77614986D01*
X165169841Y-77613983D01*
X165161979Y-77612420D01*
X164923884Y-77612420D01*
X164904750Y-77616226D01*
X164877690Y-77643286D01*
X164873884Y-77662420D01*
X164762773Y-77662420D01*
X164762773Y-77501309D01*
X166843094Y-77501309D01*
X166843094Y-78823531D01*
G37*
X134823884Y-92862420D02*
X134823884Y-91862420D01*
X134823884Y-91862420D02*
X135395312Y-92862420D01*
X135395312Y-92862420D02*
X135395312Y-91862420D01*
X136442931Y-92767181D02*
X136395312Y-92814801D01*
X136395312Y-92814801D02*
X136252455Y-92862420D01*
X136252455Y-92862420D02*
X136157217Y-92862420D01*
X136157217Y-92862420D02*
X136014360Y-92814801D01*
X136014360Y-92814801D02*
X135919122Y-92719562D01*
X135919122Y-92719562D02*
X135871503Y-92624324D01*
X135871503Y-92624324D02*
X135823884Y-92433848D01*
X135823884Y-92433848D02*
X135823884Y-92290991D01*
X135823884Y-92290991D02*
X135871503Y-92100515D01*
X135871503Y-92100515D02*
X135919122Y-92005277D01*
X135919122Y-92005277D02*
X136014360Y-91910039D01*
X136014360Y-91910039D02*
X136157217Y-91862420D01*
X136157217Y-91862420D02*
X136252455Y-91862420D01*
X136252455Y-91862420D02*
X136395312Y-91910039D01*
X136395312Y-91910039D02*
X136442931Y-91957658D01*
D12*
X135853333Y-64844820D02*
X135520000Y-64368629D01*
X135281905Y-64844820D02*
X135281905Y-63844820D01*
X135281905Y-63844820D02*
X135662857Y-63844820D01*
X135662857Y-63844820D02*
X135758095Y-63892439D01*
X135758095Y-63892439D02*
X135805714Y-63940058D01*
X135805714Y-63940058D02*
X135853333Y-64035296D01*
X135853333Y-64035296D02*
X135853333Y-64178153D01*
X135853333Y-64178153D02*
X135805714Y-64273391D01*
X135805714Y-64273391D02*
X135758095Y-64321010D01*
X135758095Y-64321010D02*
X135662857Y-64368629D01*
X135662857Y-64368629D02*
X135281905Y-64368629D01*
X136234286Y-63940058D02*
X136281905Y-63892439D01*
X136281905Y-63892439D02*
X136377143Y-63844820D01*
X136377143Y-63844820D02*
X136615238Y-63844820D01*
X136615238Y-63844820D02*
X136710476Y-63892439D01*
X136710476Y-63892439D02*
X136758095Y-63940058D01*
X136758095Y-63940058D02*
X136805714Y-64035296D01*
X136805714Y-64035296D02*
X136805714Y-64130534D01*
X136805714Y-64130534D02*
X136758095Y-64273391D01*
X136758095Y-64273391D02*
X136186667Y-64844820D01*
X136186667Y-64844820D02*
X136805714Y-64844820D01*
X156130835Y-86044820D02*
X155797502Y-85568629D01*
X155559407Y-86044820D02*
X155559407Y-85044820D01*
X155559407Y-85044820D02*
X155940359Y-85044820D01*
X155940359Y-85044820D02*
X156035597Y-85092439D01*
X156035597Y-85092439D02*
X156083216Y-85140058D01*
X156083216Y-85140058D02*
X156130835Y-85235296D01*
X156130835Y-85235296D02*
X156130835Y-85378153D01*
X156130835Y-85378153D02*
X156083216Y-85473391D01*
X156083216Y-85473391D02*
X156035597Y-85521010D01*
X156035597Y-85521010D02*
X155940359Y-85568629D01*
X155940359Y-85568629D02*
X155559407Y-85568629D01*
X157083216Y-86044820D02*
X156511788Y-86044820D01*
X156797502Y-86044820D02*
X156797502Y-85044820D01*
X156797502Y-85044820D02*
X156702264Y-85187677D01*
X156702264Y-85187677D02*
X156607026Y-85282915D01*
X156607026Y-85282915D02*
X156511788Y-85330534D01*
X149381905Y-85244820D02*
X149381905Y-84244820D01*
X149381905Y-84244820D02*
X149620000Y-84244820D01*
X149620000Y-84244820D02*
X149762857Y-84292439D01*
X149762857Y-84292439D02*
X149858095Y-84387677D01*
X149858095Y-84387677D02*
X149905714Y-84482915D01*
X149905714Y-84482915D02*
X149953333Y-84673391D01*
X149953333Y-84673391D02*
X149953333Y-84816248D01*
X149953333Y-84816248D02*
X149905714Y-85006724D01*
X149905714Y-85006724D02*
X149858095Y-85101962D01*
X149858095Y-85101962D02*
X149762857Y-85197201D01*
X149762857Y-85197201D02*
X149620000Y-85244820D01*
X149620000Y-85244820D02*
X149381905Y-85244820D01*
X150286667Y-84244820D02*
X150905714Y-84244820D01*
X150905714Y-84244820D02*
X150572381Y-84625772D01*
X150572381Y-84625772D02*
X150715238Y-84625772D01*
X150715238Y-84625772D02*
X150810476Y-84673391D01*
X150810476Y-84673391D02*
X150858095Y-84721010D01*
X150858095Y-84721010D02*
X150905714Y-84816248D01*
X150905714Y-84816248D02*
X150905714Y-85054343D01*
X150905714Y-85054343D02*
X150858095Y-85149581D01*
X150858095Y-85149581D02*
X150810476Y-85197201D01*
X150810476Y-85197201D02*
X150715238Y-85244820D01*
X150715238Y-85244820D02*
X150429524Y-85244820D01*
X150429524Y-85244820D02*
X150334286Y-85197201D01*
X150334286Y-85197201D02*
X150286667Y-85149581D01*
X139658095Y-102614820D02*
X139658095Y-103424343D01*
X139658095Y-103424343D02*
X139705714Y-103519581D01*
X139705714Y-103519581D02*
X139753333Y-103567201D01*
X139753333Y-103567201D02*
X139848571Y-103614820D01*
X139848571Y-103614820D02*
X140039047Y-103614820D01*
X140039047Y-103614820D02*
X140134285Y-103567201D01*
X140134285Y-103567201D02*
X140181904Y-103519581D01*
X140181904Y-103519581D02*
X140229523Y-103424343D01*
X140229523Y-103424343D02*
X140229523Y-102614820D01*
X140658095Y-102710058D02*
X140705714Y-102662439D01*
X140705714Y-102662439D02*
X140800952Y-102614820D01*
X140800952Y-102614820D02*
X141039047Y-102614820D01*
X141039047Y-102614820D02*
X141134285Y-102662439D01*
X141134285Y-102662439D02*
X141181904Y-102710058D01*
X141181904Y-102710058D02*
X141229523Y-102805296D01*
X141229523Y-102805296D02*
X141229523Y-102900534D01*
X141229523Y-102900534D02*
X141181904Y-103043391D01*
X141181904Y-103043391D02*
X140610476Y-103614820D01*
X140610476Y-103614820D02*
X141229523Y-103614820D01*
X165074819Y-90556666D02*
X164598628Y-90889999D01*
X165074819Y-91128094D02*
X164074819Y-91128094D01*
X164074819Y-91128094D02*
X164074819Y-90747142D01*
X164074819Y-90747142D02*
X164122438Y-90651904D01*
X164122438Y-90651904D02*
X164170057Y-90604285D01*
X164170057Y-90604285D02*
X164265295Y-90556666D01*
X164265295Y-90556666D02*
X164408152Y-90556666D01*
X164408152Y-90556666D02*
X164503390Y-90604285D01*
X164503390Y-90604285D02*
X164551009Y-90651904D01*
X164551009Y-90651904D02*
X164598628Y-90747142D01*
X164598628Y-90747142D02*
X164598628Y-91128094D01*
X164074819Y-89651904D02*
X164074819Y-90128094D01*
X164074819Y-90128094D02*
X164551009Y-90175713D01*
X164551009Y-90175713D02*
X164503390Y-90128094D01*
X164503390Y-90128094D02*
X164455771Y-90032856D01*
X164455771Y-90032856D02*
X164455771Y-89794761D01*
X164455771Y-89794761D02*
X164503390Y-89699523D01*
X164503390Y-89699523D02*
X164551009Y-89651904D01*
X164551009Y-89651904D02*
X164646247Y-89604285D01*
X164646247Y-89604285D02*
X164884342Y-89604285D01*
X164884342Y-89604285D02*
X164979580Y-89651904D01*
X164979580Y-89651904D02*
X165027200Y-89699523D01*
X165027200Y-89699523D02*
X165074819Y-89794761D01*
X165074819Y-89794761D02*
X165074819Y-90032856D01*
X165074819Y-90032856D02*
X165027200Y-90128094D01*
X165027200Y-90128094D02*
X164979580Y-90175713D01*
X133353333Y-64844820D02*
X133020000Y-64368629D01*
X132781905Y-64844820D02*
X132781905Y-63844820D01*
X132781905Y-63844820D02*
X133162857Y-63844820D01*
X133162857Y-63844820D02*
X133258095Y-63892439D01*
X133258095Y-63892439D02*
X133305714Y-63940058D01*
X133305714Y-63940058D02*
X133353333Y-64035296D01*
X133353333Y-64035296D02*
X133353333Y-64178153D01*
X133353333Y-64178153D02*
X133305714Y-64273391D01*
X133305714Y-64273391D02*
X133258095Y-64321010D01*
X133258095Y-64321010D02*
X133162857Y-64368629D01*
X133162857Y-64368629D02*
X132781905Y-64368629D01*
X133686667Y-63844820D02*
X134305714Y-63844820D01*
X134305714Y-63844820D02*
X133972381Y-64225772D01*
X133972381Y-64225772D02*
X134115238Y-64225772D01*
X134115238Y-64225772D02*
X134210476Y-64273391D01*
X134210476Y-64273391D02*
X134258095Y-64321010D01*
X134258095Y-64321010D02*
X134305714Y-64416248D01*
X134305714Y-64416248D02*
X134305714Y-64654343D01*
X134305714Y-64654343D02*
X134258095Y-64749581D01*
X134258095Y-64749581D02*
X134210476Y-64797201D01*
X134210476Y-64797201D02*
X134115238Y-64844820D01*
X134115238Y-64844820D02*
X133829524Y-64844820D01*
X133829524Y-64844820D02*
X133734286Y-64797201D01*
X133734286Y-64797201D02*
X133686667Y-64749581D01*
X170153333Y-93344820D02*
X169820000Y-92868629D01*
X169581905Y-93344820D02*
X169581905Y-92344820D01*
X169581905Y-92344820D02*
X169962857Y-92344820D01*
X169962857Y-92344820D02*
X170058095Y-92392439D01*
X170058095Y-92392439D02*
X170105714Y-92440058D01*
X170105714Y-92440058D02*
X170153333Y-92535296D01*
X170153333Y-92535296D02*
X170153333Y-92678153D01*
X170153333Y-92678153D02*
X170105714Y-92773391D01*
X170105714Y-92773391D02*
X170058095Y-92821010D01*
X170058095Y-92821010D02*
X169962857Y-92868629D01*
X169962857Y-92868629D02*
X169581905Y-92868629D01*
X171010476Y-92678153D02*
X171010476Y-93344820D01*
X170772381Y-92297201D02*
X170534286Y-93011486D01*
X170534286Y-93011486D02*
X171153333Y-93011486D01*
X128458095Y-102614820D02*
X128458095Y-103424343D01*
X128458095Y-103424343D02*
X128505714Y-103519581D01*
X128505714Y-103519581D02*
X128553333Y-103567201D01*
X128553333Y-103567201D02*
X128648571Y-103614820D01*
X128648571Y-103614820D02*
X128839047Y-103614820D01*
X128839047Y-103614820D02*
X128934285Y-103567201D01*
X128934285Y-103567201D02*
X128981904Y-103519581D01*
X128981904Y-103519581D02*
X129029523Y-103424343D01*
X129029523Y-103424343D02*
X129029523Y-102614820D01*
X129410476Y-102614820D02*
X130029523Y-102614820D01*
X130029523Y-102614820D02*
X129696190Y-102995772D01*
X129696190Y-102995772D02*
X129839047Y-102995772D01*
X129839047Y-102995772D02*
X129934285Y-103043391D01*
X129934285Y-103043391D02*
X129981904Y-103091010D01*
X129981904Y-103091010D02*
X130029523Y-103186248D01*
X130029523Y-103186248D02*
X130029523Y-103424343D01*
X130029523Y-103424343D02*
X129981904Y-103519581D01*
X129981904Y-103519581D02*
X129934285Y-103567201D01*
X129934285Y-103567201D02*
X129839047Y-103614820D01*
X129839047Y-103614820D02*
X129553333Y-103614820D01*
X129553333Y-103614820D02*
X129458095Y-103567201D01*
X129458095Y-103567201D02*
X129410476Y-103519581D01*
X156030835Y-84144820D02*
X155697502Y-83668629D01*
X155459407Y-84144820D02*
X155459407Y-83144820D01*
X155459407Y-83144820D02*
X155840359Y-83144820D01*
X155840359Y-83144820D02*
X155935597Y-83192439D01*
X155935597Y-83192439D02*
X155983216Y-83240058D01*
X155983216Y-83240058D02*
X156030835Y-83335296D01*
X156030835Y-83335296D02*
X156030835Y-83478153D01*
X156030835Y-83478153D02*
X155983216Y-83573391D01*
X155983216Y-83573391D02*
X155935597Y-83621010D01*
X155935597Y-83621010D02*
X155840359Y-83668629D01*
X155840359Y-83668629D02*
X155459407Y-83668629D01*
X156887978Y-83144820D02*
X156697502Y-83144820D01*
X156697502Y-83144820D02*
X156602264Y-83192439D01*
X156602264Y-83192439D02*
X156554645Y-83240058D01*
X156554645Y-83240058D02*
X156459407Y-83382915D01*
X156459407Y-83382915D02*
X156411788Y-83573391D01*
X156411788Y-83573391D02*
X156411788Y-83954343D01*
X156411788Y-83954343D02*
X156459407Y-84049581D01*
X156459407Y-84049581D02*
X156507026Y-84097201D01*
X156507026Y-84097201D02*
X156602264Y-84144820D01*
X156602264Y-84144820D02*
X156792740Y-84144820D01*
X156792740Y-84144820D02*
X156887978Y-84097201D01*
X156887978Y-84097201D02*
X156935597Y-84049581D01*
X156935597Y-84049581D02*
X156983216Y-83954343D01*
X156983216Y-83954343D02*
X156983216Y-83716248D01*
X156983216Y-83716248D02*
X156935597Y-83621010D01*
X156935597Y-83621010D02*
X156887978Y-83573391D01*
X156887978Y-83573391D02*
X156792740Y-83525772D01*
X156792740Y-83525772D02*
X156602264Y-83525772D01*
X156602264Y-83525772D02*
X156507026Y-83573391D01*
X156507026Y-83573391D02*
X156459407Y-83621010D01*
X156459407Y-83621010D02*
X156411788Y-83716248D01*
X153166666Y-102759820D02*
X153166666Y-103474105D01*
X153166666Y-103474105D02*
X153119047Y-103616962D01*
X153119047Y-103616962D02*
X153023809Y-103712201D01*
X153023809Y-103712201D02*
X152880952Y-103759820D01*
X152880952Y-103759820D02*
X152785714Y-103759820D01*
X153547619Y-102759820D02*
X154214285Y-102759820D01*
X154214285Y-102759820D02*
X153785714Y-103759820D01*
X158428571Y-88919701D02*
X159571429Y-88919701D01*
X159000000Y-89491129D02*
X159000000Y-88348272D01*
X147428571Y-88919701D02*
X148571429Y-88919701D01*
X147750667Y-60644820D02*
X147750667Y-61359105D01*
X147750667Y-61359105D02*
X147703048Y-61501962D01*
X147703048Y-61501962D02*
X147607810Y-61597201D01*
X147607810Y-61597201D02*
X147464953Y-61644820D01*
X147464953Y-61644820D02*
X147369715Y-61644820D01*
X148179239Y-60740058D02*
X148226858Y-60692439D01*
X148226858Y-60692439D02*
X148322096Y-60644820D01*
X148322096Y-60644820D02*
X148560191Y-60644820D01*
X148560191Y-60644820D02*
X148655429Y-60692439D01*
X148655429Y-60692439D02*
X148703048Y-60740058D01*
X148703048Y-60740058D02*
X148750667Y-60835296D01*
X148750667Y-60835296D02*
X148750667Y-60930534D01*
X148750667Y-60930534D02*
X148703048Y-61073391D01*
X148703048Y-61073391D02*
X148131620Y-61644820D01*
X148131620Y-61644820D02*
X148750667Y-61644820D01*
D13*
%TO.C,kibuzzard-675D9C73*%
G36*
X137740548Y-67163974D02*
G01*
X137270685Y-67070823D01*
X137270685Y-67069452D01*
X137740548Y-66976302D01*
X137740548Y-67163974D01*
G37*
G36*
X138247854Y-66642056D02*
G01*
X138247854Y-67392741D01*
X138247854Y-67685891D01*
X138247854Y-68032467D01*
X138247854Y-68146622D01*
X138244831Y-68208162D01*
X138235790Y-68269110D01*
X138220819Y-68328878D01*
X138200061Y-68386891D01*
X138173718Y-68442590D01*
X138142041Y-68495439D01*
X138105338Y-68544928D01*
X138063960Y-68590582D01*
X138018306Y-68631960D01*
X137968817Y-68668664D01*
X137915968Y-68700340D01*
X137860269Y-68726683D01*
X137802256Y-68747442D01*
X137742488Y-68762412D01*
X137681540Y-68771453D01*
X137620000Y-68774476D01*
X137558460Y-68771453D01*
X137497512Y-68762412D01*
X137437744Y-68747442D01*
X137379731Y-68726683D01*
X137324032Y-68700340D01*
X137271183Y-68668664D01*
X137221694Y-68631960D01*
X137176040Y-68590582D01*
X137134662Y-68544928D01*
X137097959Y-68495439D01*
X137066282Y-68442590D01*
X137039939Y-68386891D01*
X137019181Y-68328878D01*
X137004210Y-68269110D01*
X136995169Y-68208162D01*
X136992146Y-68146622D01*
X136992146Y-68032467D01*
X136992146Y-67690001D01*
X137106301Y-67690001D01*
X137114115Y-67770266D01*
X137137551Y-67839830D01*
X137176614Y-67898691D01*
X137231301Y-67946850D01*
X137301614Y-67984307D01*
X137387551Y-68011063D01*
X137489114Y-68027116D01*
X137606301Y-68032467D01*
X137729910Y-68027052D01*
X137837039Y-68010806D01*
X137927684Y-67983729D01*
X138001849Y-67945824D01*
X138059533Y-67897086D01*
X138100736Y-67837518D01*
X138125458Y-67767120D01*
X138133699Y-67685891D01*
X138125137Y-67594453D01*
X138099452Y-67511919D01*
X137973425Y-67511919D01*
X138005273Y-67590001D01*
X138015890Y-67662604D01*
X138004513Y-67729575D01*
X137970381Y-67784369D01*
X137913493Y-67826987D01*
X137833851Y-67857429D01*
X137731454Y-67875694D01*
X137606301Y-67881782D01*
X137490358Y-67876264D01*
X137395495Y-67859712D01*
X137321712Y-67832124D01*
X137269011Y-67793502D01*
X137237390Y-67743844D01*
X137226849Y-67683152D01*
X137232329Y-67651645D01*
X137446027Y-67651645D01*
X137446027Y-67505069D01*
X137136438Y-67505068D01*
X137113836Y-67592397D01*
X137106301Y-67690001D01*
X136992146Y-67690001D01*
X136992146Y-66979042D01*
X137120000Y-66979042D01*
X137120000Y-67157124D01*
X138120000Y-67392741D01*
X138120000Y-67239316D01*
X137856986Y-67187261D01*
X137856986Y-66953015D01*
X138120000Y-66900959D01*
X138120000Y-66742056D01*
X137120000Y-66979042D01*
X136992146Y-66979042D01*
X136992146Y-66265343D01*
X137120000Y-66265343D01*
X137846027Y-66265343D01*
X137846027Y-66269453D01*
X137120001Y-66483152D01*
X137120001Y-66642056D01*
X138119999Y-66642056D01*
X138120000Y-66491371D01*
X137393973Y-66491371D01*
X137393973Y-66488631D01*
X138120000Y-66274932D01*
X138119999Y-66121508D01*
X137120001Y-66121508D01*
X137120000Y-66265343D01*
X136992146Y-66265343D01*
X136992146Y-65547535D01*
X136992146Y-65547534D01*
X137120000Y-65547534D01*
X137120001Y-65699590D01*
X137259726Y-65939316D01*
X137393973Y-65939316D01*
X137262466Y-65703700D01*
X137263836Y-65700960D01*
X138120000Y-65700960D01*
X138120000Y-65547534D01*
X137120000Y-65547534D01*
X136992146Y-65547534D01*
X136992146Y-65433380D01*
X136995169Y-65371840D01*
X137004210Y-65310892D01*
X137019181Y-65251124D01*
X137039939Y-65193111D01*
X137066282Y-65137412D01*
X137097959Y-65084563D01*
X137134662Y-65035074D01*
X137176040Y-64989420D01*
X137221694Y-64948042D01*
X137271183Y-64911338D01*
X137324032Y-64879662D01*
X137379731Y-64853319D01*
X137437744Y-64832560D01*
X137497512Y-64817590D01*
X137558460Y-64808549D01*
X137620000Y-64805526D01*
X137681540Y-64808549D01*
X137742488Y-64817590D01*
X137802256Y-64832560D01*
X137860269Y-64853319D01*
X137915968Y-64879662D01*
X137968817Y-64911338D01*
X138018306Y-64948042D01*
X138063960Y-64989420D01*
X138105338Y-65035074D01*
X138142041Y-65084563D01*
X138173718Y-65137412D01*
X138200061Y-65193111D01*
X138220819Y-65251124D01*
X138235790Y-65310892D01*
X138244831Y-65371840D01*
X138247854Y-65433380D01*
X138247854Y-65547535D01*
X138247854Y-65700960D01*
X138247854Y-66642056D01*
G37*
D14*
%TO.C,R2*%
X135297500Y-66552743D02*
X135297500Y-67027259D01*
X136342500Y-66552743D02*
X136342500Y-67027259D01*
D13*
%TO.C,kibuzzard-67840A5C*%
G36*
X165456668Y-83171987D02*
G01*
X165516951Y-83180929D01*
X165576067Y-83195737D01*
X165633447Y-83216268D01*
X165688539Y-83242324D01*
X165740811Y-83273655D01*
X165789760Y-83309958D01*
X165834916Y-83350884D01*
X165875842Y-83396040D01*
X165912146Y-83444989D01*
X165943476Y-83497261D01*
X165969532Y-83552353D01*
X165990063Y-83609733D01*
X166004871Y-83668849D01*
X166013813Y-83729132D01*
X166016804Y-83790001D01*
X166013813Y-83850870D01*
X166004871Y-83911153D01*
X165990063Y-83970269D01*
X165969532Y-84027649D01*
X165943476Y-84082741D01*
X165912146Y-84135013D01*
X165875842Y-84183962D01*
X165834916Y-84229118D01*
X165789760Y-84270044D01*
X165740811Y-84306347D01*
X165688539Y-84337678D01*
X165633447Y-84363734D01*
X165576067Y-84384265D01*
X165516951Y-84399073D01*
X165456668Y-84408015D01*
X165395799Y-84411006D01*
X165281644Y-84411006D01*
X165058356Y-84411006D01*
X164532329Y-84411006D01*
X163596712Y-84411006D01*
X163358356Y-84411006D01*
X163244201Y-84411006D01*
X163183332Y-84408015D01*
X163123049Y-84399073D01*
X163063933Y-84384265D01*
X163006553Y-84363734D01*
X162951461Y-84337678D01*
X162899189Y-84306347D01*
X162850240Y-84270044D01*
X162805084Y-84229118D01*
X162764158Y-84183962D01*
X162727854Y-84135013D01*
X162696524Y-84082741D01*
X162670468Y-84027649D01*
X162649937Y-83970269D01*
X162635129Y-83911153D01*
X162626187Y-83850870D01*
X162623196Y-83790001D01*
X162626187Y-83729132D01*
X162635129Y-83668849D01*
X162649937Y-83609733D01*
X162670468Y-83552353D01*
X162696524Y-83497261D01*
X162727854Y-83444989D01*
X162734094Y-83436576D01*
X163358356Y-83436576D01*
X163358356Y-83570823D01*
X163593973Y-83439316D01*
X163596712Y-83440686D01*
X163596712Y-84296850D01*
X163750137Y-84296850D01*
X163750137Y-83354385D01*
X164039178Y-83354385D01*
X164039178Y-83483152D01*
X164116347Y-83438251D01*
X164187123Y-83411310D01*
X164251507Y-83402330D01*
X164341233Y-83439316D01*
X164363322Y-83487261D01*
X164370685Y-83557124D01*
X164363919Y-83632187D01*
X164343623Y-83711779D01*
X164309796Y-83795900D01*
X164262438Y-83884550D01*
X164201549Y-83977728D01*
X164127129Y-84075436D01*
X164039178Y-84177672D01*
X164039178Y-84296850D01*
X164532329Y-84296850D01*
X164532329Y-84177672D01*
X164198082Y-84177672D01*
X164198082Y-84174933D01*
X164278433Y-84079213D01*
X164346884Y-83989316D01*
X164403433Y-83905241D01*
X164448082Y-83826987D01*
X164491081Y-83729270D01*
X164516880Y-83637033D01*
X164525479Y-83550275D01*
X164509897Y-83434693D01*
X164463151Y-83350960D01*
X164386952Y-83300104D01*
X164367001Y-83296850D01*
X164658356Y-83296850D01*
X164880274Y-84296850D01*
X165058356Y-84296850D01*
X165281644Y-83296850D01*
X165129589Y-83296850D01*
X164973425Y-84159864D01*
X164972055Y-84159864D01*
X164815890Y-83296850D01*
X164658356Y-83296850D01*
X164367001Y-83296850D01*
X164283014Y-83283152D01*
X164196256Y-83291066D01*
X164114977Y-83314811D01*
X164039178Y-83354385D01*
X163750137Y-83354385D01*
X163750137Y-83296850D01*
X163598082Y-83296850D01*
X163358356Y-83436576D01*
X162734094Y-83436576D01*
X162764158Y-83396040D01*
X162805084Y-83350884D01*
X162850240Y-83309958D01*
X162899189Y-83273655D01*
X162951461Y-83242324D01*
X163006553Y-83216268D01*
X163063933Y-83195737D01*
X163123049Y-83180929D01*
X163183332Y-83171987D01*
X163244201Y-83168996D01*
X163358356Y-83168996D01*
X165281644Y-83168996D01*
X165395799Y-83168996D01*
X165456668Y-83171987D01*
G37*
D14*
%TO.C,D1*%
X160110001Y-86225001D02*
X162395001Y-86225001D01*
X162395001Y-84755001D02*
X160110001Y-84755001D01*
X162395001Y-86225001D02*
X162395001Y-84755001D01*
%TO.C,R1*%
X158056360Y-85210001D02*
X158363642Y-85210001D01*
X158056360Y-85970001D02*
X158363642Y-85970001D01*
D13*
%TO.C,kibuzzard-67840A66*%
G36*
X165045571Y-85209788D02*
G01*
X165096256Y-85256820D01*
X165113151Y-85335206D01*
X165102192Y-85407296D01*
X165069315Y-85456439D01*
X165013151Y-85484693D01*
X164932329Y-85494111D01*
X164892603Y-85494111D01*
X164892603Y-85205069D01*
X164961096Y-85194111D01*
X165045571Y-85209788D01*
G37*
G36*
X165034384Y-85621850D02*
G01*
X165092603Y-85655754D01*
X165126507Y-85714316D01*
X165137808Y-85799590D01*
X165127363Y-85883665D01*
X165096027Y-85941371D01*
X165043459Y-85974761D01*
X164969315Y-85985891D01*
X164892603Y-85974933D01*
X164892603Y-85610549D01*
X164950137Y-85610549D01*
X165034384Y-85621850D01*
G37*
G36*
X165462819Y-84965170D02*
G01*
X165523767Y-84974211D01*
X165583535Y-84989182D01*
X165641548Y-85009940D01*
X165697247Y-85036283D01*
X165750095Y-85067960D01*
X165799585Y-85104663D01*
X165845238Y-85146041D01*
X165886616Y-85191695D01*
X165923320Y-85241184D01*
X165954996Y-85294033D01*
X165981340Y-85349732D01*
X166002097Y-85407745D01*
X166017068Y-85467513D01*
X166026109Y-85528461D01*
X166029132Y-85590001D01*
X166026109Y-85651541D01*
X166017068Y-85712489D01*
X166002097Y-85772257D01*
X165981340Y-85830270D01*
X165954996Y-85885969D01*
X165923320Y-85938818D01*
X165886616Y-85988307D01*
X165845238Y-86033961D01*
X165799585Y-86075339D01*
X165750095Y-86112042D01*
X165697247Y-86143719D01*
X165641548Y-86170062D01*
X165583535Y-86190820D01*
X165523767Y-86205791D01*
X165462819Y-86214832D01*
X165401279Y-86217855D01*
X165287123Y-86217855D01*
X164969315Y-86217855D01*
X164291233Y-86217855D01*
X163626849Y-86217855D01*
X163352877Y-86217855D01*
X163238721Y-86217855D01*
X163177181Y-86214832D01*
X163116233Y-86205791D01*
X163056465Y-86190820D01*
X162998452Y-86170062D01*
X162942753Y-86143719D01*
X162889905Y-86112042D01*
X162840415Y-86075339D01*
X162794762Y-86033961D01*
X162753384Y-85988307D01*
X162716680Y-85938818D01*
X162685004Y-85885969D01*
X162658660Y-85830270D01*
X162658466Y-85829727D01*
X163352877Y-85829727D01*
X163359954Y-85918920D01*
X163381187Y-85989240D01*
X163416575Y-86040686D01*
X163468250Y-86075694D01*
X163538341Y-86096698D01*
X163626849Y-86103700D01*
X163715358Y-86096698D01*
X163785449Y-86075694D01*
X163837123Y-86040686D01*
X163872511Y-85989240D01*
X163893744Y-85918920D01*
X163900822Y-85829727D01*
X163900822Y-85336576D01*
X164051507Y-85336576D01*
X164065719Y-85433837D01*
X164108356Y-85514659D01*
X164155464Y-85562147D01*
X164220989Y-85607809D01*
X164304932Y-85651645D01*
X164363664Y-85686919D01*
X164402877Y-85726987D01*
X164424966Y-85775617D01*
X164432329Y-85836576D01*
X164422740Y-85900446D01*
X164393973Y-85946850D01*
X164348082Y-85975104D01*
X164287123Y-85984522D01*
X164206910Y-85974628D01*
X164130654Y-85944948D01*
X164058356Y-85895480D01*
X164058356Y-86037946D01*
X164128676Y-86074476D01*
X164206301Y-86096394D01*
X164291233Y-86103700D01*
X164397260Y-86092741D01*
X164479726Y-86059864D01*
X164538630Y-86005069D01*
X164573973Y-85928357D01*
X164585753Y-85829727D01*
X164571027Y-85723905D01*
X164526849Y-85639316D01*
X164476773Y-85590458D01*
X164405084Y-85542512D01*
X164311781Y-85495480D01*
X164250898Y-85454537D01*
X164214368Y-85399286D01*
X164202192Y-85329727D01*
X164211781Y-85273563D01*
X164240548Y-85231097D01*
X164286096Y-85204385D01*
X164346027Y-85195480D01*
X164452534Y-85210206D01*
X164558356Y-85254385D01*
X164558356Y-85117398D01*
X164514157Y-85103700D01*
X164739178Y-85103700D01*
X164739178Y-86076302D01*
X164814673Y-86091523D01*
X164891385Y-86100655D01*
X164969315Y-86103700D01*
X165066423Y-86095328D01*
X165145875Y-86070214D01*
X165207671Y-86028357D01*
X165251811Y-85969757D01*
X165278295Y-85894415D01*
X165287123Y-85802330D01*
X165273938Y-85710549D01*
X165234384Y-85632467D01*
X165174966Y-85575275D01*
X165102192Y-85546165D01*
X165102192Y-85544796D01*
X165166404Y-85516713D01*
X165216575Y-85468083D01*
X165248938Y-85403015D01*
X165259726Y-85325617D01*
X165247781Y-85235864D01*
X165211945Y-85166056D01*
X165152219Y-85116193D01*
X165068603Y-85086275D01*
X164961096Y-85076302D01*
X164848082Y-85083152D01*
X164739178Y-85103700D01*
X164514157Y-85103700D01*
X164484688Y-85094567D01*
X164407976Y-85080869D01*
X164328219Y-85076302D01*
X164246408Y-85083913D01*
X164178143Y-85106744D01*
X164123425Y-85144796D01*
X164069486Y-85226987D01*
X164051507Y-85336576D01*
X163900822Y-85336576D01*
X163900822Y-85090001D01*
X163751507Y-85090001D01*
X163751507Y-85802330D01*
X163744658Y-85891885D01*
X163724110Y-85946850D01*
X163629589Y-85984522D01*
X163572397Y-85974933D01*
X163535068Y-85946165D01*
X163514521Y-85891028D01*
X163507671Y-85802330D01*
X163507671Y-85090001D01*
X163352877Y-85090001D01*
X163352877Y-85829727D01*
X162658466Y-85829727D01*
X162637903Y-85772257D01*
X162622932Y-85712489D01*
X162613891Y-85651541D01*
X162610868Y-85590001D01*
X162613891Y-85528461D01*
X162622932Y-85467513D01*
X162637903Y-85407745D01*
X162658660Y-85349732D01*
X162685004Y-85294033D01*
X162716680Y-85241184D01*
X162753384Y-85191695D01*
X162794762Y-85146041D01*
X162840415Y-85104663D01*
X162889905Y-85067960D01*
X162942753Y-85036283D01*
X162998452Y-85009940D01*
X163056465Y-84989182D01*
X163116233Y-84974211D01*
X163177181Y-84965170D01*
X163238721Y-84962147D01*
X163352877Y-84962147D01*
X165287123Y-84962147D01*
X165401279Y-84962147D01*
X165462819Y-84965170D01*
G37*
D14*
%TO.C,D3*%
X151370000Y-79180001D02*
X151370000Y-84690001D01*
X154670000Y-79180001D02*
X151370000Y-79180001D01*
X154670000Y-79180001D02*
X154670000Y-84690001D01*
D13*
%TO.C,kibuzzard-67840BAA*%
G36*
X169025493Y-78410196D02*
G01*
X169025493Y-78570130D01*
X168978239Y-78755510D01*
X168821939Y-78824574D01*
X168714103Y-78800340D01*
X168648675Y-78738547D01*
X168617173Y-78652521D01*
X168608691Y-78553168D01*
X168611115Y-78479258D01*
X168618384Y-78410195D01*
X169025493Y-78410196D01*
G37*
G36*
X169624039Y-78475623D02*
G01*
X169626462Y-78545898D01*
X169620404Y-78625865D01*
X169596171Y-78693717D01*
X169545283Y-78739760D01*
X169459257Y-78756722D01*
X169322341Y-78698563D01*
X169272666Y-78526512D01*
X169272666Y-78410195D01*
X169616769Y-78410195D01*
X169624039Y-78475623D01*
G37*
G36*
X169625250Y-83305187D02*
G01*
X169626462Y-83346382D01*
X169612527Y-83453612D01*
X169570728Y-83537820D01*
X169499241Y-83592343D01*
X169396252Y-83610518D01*
X169227835Y-83542667D01*
X169183308Y-83453612D01*
X169168465Y-83322150D01*
X169168465Y-83256722D01*
X169619192Y-83256722D01*
X169625250Y-83305187D01*
G37*
G36*
X169625250Y-76030550D02*
G01*
X169626462Y-76074169D01*
X169584055Y-76236528D01*
X169471373Y-76335881D01*
X169309015Y-76386770D01*
X169120000Y-76401310D01*
X169013074Y-76396766D01*
X168915234Y-76383135D01*
X168754086Y-76322554D01*
X168647465Y-76211083D01*
X168608691Y-76040243D01*
X168608691Y-76013587D01*
X168611115Y-75986931D01*
X169619192Y-75986931D01*
X169625250Y-76030550D01*
G37*
G36*
X169256100Y-69385177D02*
G01*
X169390889Y-69405171D01*
X169523069Y-69438280D01*
X169651367Y-69484186D01*
X169774548Y-69542446D01*
X169891426Y-69612500D01*
X170000874Y-69693673D01*
X170101839Y-69785181D01*
X170193348Y-69886146D01*
X170274520Y-69995594D01*
X170344574Y-70112471D01*
X170402835Y-70235653D01*
X170448740Y-70363950D01*
X170481850Y-70496132D01*
X170501844Y-70630921D01*
X170508530Y-70767020D01*
X170508530Y-70767222D01*
X170508530Y-84012780D01*
X170508530Y-84012982D01*
X170501844Y-84149081D01*
X170481850Y-84283870D01*
X170448740Y-84416052D01*
X170402835Y-84544349D01*
X170344574Y-84667531D01*
X170274520Y-84784408D01*
X170193348Y-84893856D01*
X170101839Y-84994821D01*
X170000874Y-85086329D01*
X169891426Y-85167502D01*
X169774548Y-85237556D01*
X169651367Y-85295816D01*
X169523069Y-85341722D01*
X169390889Y-85374831D01*
X169256100Y-85394825D01*
X169120000Y-85401512D01*
X168983900Y-85394825D01*
X168849111Y-85374831D01*
X168716931Y-85341722D01*
X168588633Y-85295816D01*
X168465452Y-85237556D01*
X168348574Y-85167502D01*
X168239126Y-85086329D01*
X168138161Y-84994821D01*
X168046652Y-84893856D01*
X167965480Y-84784408D01*
X167895426Y-84667531D01*
X167837165Y-84544349D01*
X167791260Y-84416052D01*
X167758150Y-84283870D01*
X167738156Y-84149081D01*
X167731470Y-84012982D01*
X167731470Y-84012780D01*
X167731470Y-82958660D01*
X168368787Y-82958660D01*
X168368788Y-83256722D01*
X168921292Y-83256722D01*
X168921292Y-83411810D01*
X168784075Y-83493898D01*
X168648675Y-83570534D01*
X168511458Y-83639900D01*
X168368788Y-83700179D01*
X168368788Y-84012780D01*
X168527512Y-83943717D01*
X168694717Y-83860114D01*
X168854653Y-83770453D01*
X168993989Y-83683216D01*
X169062447Y-83789234D01*
X169156349Y-83860114D01*
X169269031Y-83900098D01*
X169393829Y-83913426D01*
X169511660Y-83903430D01*
X169613133Y-83873442D01*
X169767010Y-83758337D01*
X169819717Y-83675946D01*
X169856672Y-83579016D01*
X169878481Y-83468758D01*
X169885751Y-83346382D01*
X169883328Y-83261568D01*
X169877270Y-83159791D01*
X169865153Y-83054379D01*
X169846979Y-82958660D01*
X168368787Y-82958660D01*
X167731470Y-82958660D01*
X167731470Y-82730873D01*
X168368788Y-82730873D01*
X168615961Y-82730873D01*
X168615961Y-82066899D01*
X169037609Y-82066899D01*
X169037609Y-82597594D01*
X169284782Y-82597594D01*
X169284782Y-82066899D01*
X169621616Y-82066899D01*
X169621616Y-82677562D01*
X169868788Y-82677562D01*
X169868788Y-81768838D01*
X168368788Y-81768838D01*
X168368788Y-82730873D01*
X167731470Y-82730873D01*
X167731470Y-81768838D01*
X167731470Y-81083054D01*
X168337286Y-81083054D01*
X168343344Y-81231176D01*
X168361519Y-81355671D01*
X168405137Y-81521665D01*
X169153926Y-81521665D01*
X169153926Y-81223604D01*
X168606268Y-81223604D01*
X168598998Y-81165445D01*
X168596575Y-81107288D01*
X168628380Y-80962497D01*
X168723796Y-80857692D01*
X168824361Y-80810572D01*
X168956430Y-80782300D01*
X169120000Y-80772878D01*
X169231166Y-80778026D01*
X169332036Y-80793474D01*
X169496816Y-80861326D01*
X169604653Y-80981277D01*
X169643425Y-81160599D01*
X169616769Y-81320534D01*
X169556187Y-81451390D01*
X169793667Y-81528935D01*
X169822746Y-81479258D01*
X169859095Y-81395655D01*
X169889386Y-81275704D01*
X169902714Y-81119403D01*
X169890295Y-80987941D01*
X169853037Y-80864961D01*
X169790941Y-80754095D01*
X169704006Y-80658983D01*
X169592839Y-80580833D01*
X169458044Y-80520857D01*
X169300230Y-80482691D01*
X169120000Y-80469969D01*
X168937952Y-80480873D01*
X168779532Y-80513587D01*
X168645040Y-80566293D01*
X168534781Y-80637174D01*
X168448756Y-80725320D01*
X168386963Y-80829823D01*
X168349705Y-80949472D01*
X168337286Y-81083054D01*
X167731470Y-81083054D01*
X167731470Y-79793878D01*
X168337286Y-79793878D01*
X168347282Y-79929581D01*
X168377270Y-80041051D01*
X168426038Y-80130712D01*
X168492376Y-80200986D01*
X168575372Y-80252481D01*
X168674120Y-80285801D01*
X168786801Y-80303975D01*
X168911599Y-80310033D01*
X169868789Y-80310033D01*
X169868789Y-80011972D01*
X168933409Y-80011972D01*
X168774685Y-80002279D01*
X168670485Y-79968353D01*
X168613538Y-79902925D01*
X168596576Y-79798725D01*
X168613538Y-79694524D01*
X168669273Y-79630308D01*
X168772262Y-79597594D01*
X168930985Y-79587901D01*
X169868788Y-79587901D01*
X169868788Y-79287416D01*
X168911599Y-79287416D01*
X168786801Y-79293474D01*
X168674120Y-79311649D01*
X168575372Y-79344363D01*
X168492376Y-79394040D01*
X168377270Y-79550340D01*
X168347282Y-79660296D01*
X168337286Y-79793878D01*
X167731470Y-79793878D01*
X167731470Y-78528935D01*
X168349402Y-78528935D01*
X168355158Y-78648583D01*
X168372423Y-78760356D01*
X168403320Y-78860922D01*
X168449968Y-78946948D01*
X168595363Y-79071746D01*
X168697443Y-79106276D01*
X168821939Y-79117788D01*
X168923716Y-79104157D01*
X169020646Y-79063265D01*
X169105460Y-78984205D01*
X169170889Y-78856075D01*
X169301745Y-78995413D01*
X169390194Y-79034488D01*
X169490759Y-79047513D01*
X169631309Y-79025704D01*
X169758529Y-78943313D01*
X169850614Y-78776108D01*
X169876967Y-78653733D01*
X169885751Y-78499856D01*
X169874847Y-78298724D01*
X169849403Y-78112133D01*
X168393021Y-78112133D01*
X168373938Y-78216940D01*
X168360306Y-78322957D01*
X168352128Y-78427764D01*
X168349402Y-78528935D01*
X167731470Y-78528935D01*
X167731470Y-77884347D01*
X168368787Y-77884347D01*
X168615961Y-77884347D01*
X168615961Y-77220372D01*
X169037609Y-77220373D01*
X169037609Y-77751067D01*
X169284782Y-77751067D01*
X169284782Y-77220372D01*
X169621616Y-77220373D01*
X169621616Y-77831035D01*
X169868788Y-77831035D01*
X169868788Y-76922311D01*
X168368788Y-76922311D01*
X168368787Y-77884347D01*
X167731470Y-77884347D01*
X167731470Y-76922311D01*
X167731470Y-76008741D01*
X168349402Y-76008741D01*
X168360004Y-76155045D01*
X168391809Y-76288628D01*
X168446636Y-76407065D01*
X168526300Y-76507933D01*
X168632015Y-76590021D01*
X168764992Y-76652117D01*
X168927048Y-76691192D01*
X169120000Y-76704216D01*
X169308712Y-76692404D01*
X169467737Y-76656964D01*
X169599200Y-76600320D01*
X169705218Y-76524896D01*
X169786095Y-76430692D01*
X169842132Y-76317707D01*
X169874847Y-76188971D01*
X169885751Y-76047513D01*
X169878481Y-75880308D01*
X169849402Y-75688870D01*
X168385751Y-75688870D01*
X168357884Y-75852440D01*
X168349402Y-76008741D01*
X167731470Y-76008741D01*
X167731470Y-75284185D01*
X167731470Y-74620211D01*
X168843748Y-74620211D01*
X168843748Y-75284185D01*
X169136963Y-75284185D01*
X169136963Y-74620211D01*
X168843748Y-74620211D01*
X167731470Y-74620211D01*
X167731470Y-73696948D01*
X168337286Y-73696948D01*
X168350075Y-73866980D01*
X168388444Y-74005510D01*
X168452391Y-74112537D01*
X168591426Y-74215223D01*
X168778320Y-74249452D01*
X168891305Y-74239153D01*
X168983086Y-74208256D01*
X169118788Y-74102844D01*
X169206026Y-73962295D01*
X169265396Y-73815689D01*
X169301745Y-73722392D01*
X169346575Y-73637578D01*
X169404734Y-73575785D01*
X169481066Y-73551552D01*
X169576651Y-73577939D01*
X169634002Y-73657098D01*
X169653118Y-73789032D01*
X169628886Y-73959872D01*
X169570727Y-74094363D01*
X169800937Y-74181600D01*
X169871213Y-74008337D01*
X169894838Y-73896564D01*
X169902714Y-73767222D01*
X169889521Y-73618730D01*
X169849941Y-73493124D01*
X169783974Y-73390405D01*
X169642213Y-73287719D01*
X169454411Y-73253490D01*
X169276300Y-73292263D01*
X169156349Y-73390405D01*
X169076381Y-73522473D01*
X169020646Y-73663022D01*
X168978239Y-73764799D01*
X168927351Y-73856883D01*
X168863134Y-73924734D01*
X168780743Y-73951390D01*
X168709257Y-73940486D01*
X168646252Y-73900502D01*
X168602633Y-73821746D01*
X168586882Y-73696948D01*
X168595363Y-73576087D01*
X168620808Y-73475219D01*
X168693506Y-73318919D01*
X168451179Y-73231681D01*
X168377270Y-73398886D01*
X168347282Y-73529137D01*
X168337286Y-73696948D01*
X167731470Y-73696948D01*
X167731470Y-73079016D01*
X167731470Y-71978854D01*
X168368788Y-71978854D01*
X168368788Y-72252684D01*
X169534378Y-72240566D01*
X168899483Y-72417465D01*
X168899483Y-72635558D01*
X169534378Y-72819726D01*
X168368788Y-72805187D01*
X168368788Y-73079016D01*
X168560529Y-73073563D01*
X168748029Y-73066899D01*
X168932803Y-73058721D01*
X169116365Y-73048725D01*
X169300230Y-73036608D01*
X169485913Y-73022069D01*
X169674927Y-73006015D01*
X169868788Y-72989354D01*
X169868788Y-72742182D01*
X169740355Y-72698563D01*
X169574362Y-72645252D01*
X169390194Y-72584670D01*
X169204814Y-72524087D01*
X169379289Y-72468353D01*
X169565880Y-72410195D01*
X169737932Y-72355671D01*
X169868788Y-72313264D01*
X169868788Y-72066091D01*
X169704612Y-72050037D01*
X169527108Y-72035801D01*
X169339911Y-72023381D01*
X169146656Y-72012780D01*
X168949766Y-72003390D01*
X168751664Y-71994605D01*
X168556591Y-71986427D01*
X168368788Y-71978854D01*
X167731470Y-71978854D01*
X167731470Y-71867384D01*
X167731470Y-71041051D01*
X168368787Y-71041051D01*
X169534378Y-71028936D01*
X168899483Y-71205833D01*
X168899483Y-71423928D01*
X169534378Y-71608096D01*
X168368788Y-71593555D01*
X168368788Y-71867384D01*
X168560529Y-71861932D01*
X168748029Y-71855268D01*
X168932803Y-71847089D01*
X169116365Y-71837093D01*
X169300230Y-71824977D01*
X169485913Y-71810437D01*
X169674927Y-71794383D01*
X169868788Y-71777723D01*
X169868789Y-71530550D01*
X169740355Y-71486932D01*
X169574362Y-71433620D01*
X169390194Y-71373038D01*
X169204814Y-71312457D01*
X169379289Y-71256722D01*
X169565880Y-71198563D01*
X169737932Y-71144041D01*
X169868788Y-71101633D01*
X169868788Y-70854461D01*
X169704612Y-70838406D01*
X169527108Y-70824169D01*
X169339911Y-70811751D01*
X169146656Y-70801148D01*
X168949766Y-70791758D01*
X168751665Y-70782974D01*
X168556591Y-70774795D01*
X168368788Y-70767222D01*
X168368787Y-71041051D01*
X167731470Y-71041051D01*
X167731470Y-70767222D01*
X167731470Y-70767020D01*
X167738156Y-70630921D01*
X167758150Y-70496132D01*
X167791260Y-70363950D01*
X167837165Y-70235653D01*
X167895426Y-70112471D01*
X167965480Y-69995594D01*
X168046652Y-69886146D01*
X168138161Y-69785181D01*
X168239126Y-69693673D01*
X168348574Y-69612500D01*
X168465452Y-69542446D01*
X168588633Y-69484186D01*
X168716931Y-69438280D01*
X168849111Y-69405171D01*
X168983900Y-69385177D01*
X169120000Y-69378490D01*
X169256100Y-69385177D01*
G37*
D14*
%TO.C,U2*%
X135235000Y-94480001D02*
X135235000Y-94780001D01*
X135235000Y-102070001D02*
X135235000Y-96320001D01*
X136655000Y-101570001D02*
X136655000Y-102070001D01*
X136655000Y-102070001D02*
X135235000Y-102070001D01*
X144184999Y-102070001D02*
X144185000Y-101570001D01*
X144185000Y-101570001D02*
X136655000Y-101570001D01*
X145605000Y-94480002D02*
X135235000Y-94480001D01*
X145605000Y-94780002D02*
X145605000Y-94480002D01*
X145605000Y-96320001D02*
X145605000Y-102070001D01*
X145605000Y-102070001D02*
X144184999Y-102070001D01*
D13*
%TO.C,kibuzzard-675D9CCD*%
G36*
X138854932Y-75951645D02*
G01*
X138958356Y-75963974D01*
X139030274Y-75984522D01*
X139093459Y-76032809D01*
X139114521Y-76103700D01*
X139093459Y-76174590D01*
X139030274Y-76222878D01*
X138958356Y-76243426D01*
X138854932Y-76255754D01*
X138720000Y-76259864D01*
X138585068Y-76255754D01*
X138481644Y-76243426D01*
X138409726Y-76222878D01*
X138346541Y-76174590D01*
X138325479Y-76103700D01*
X138346541Y-76032809D01*
X138409726Y-75984522D01*
X138481644Y-75963974D01*
X138585068Y-75951645D01*
X138720000Y-75947535D01*
X138854932Y-75951645D01*
G37*
G36*
X139347854Y-74939316D02*
G01*
X139347854Y-75679042D01*
X139347854Y-76103700D01*
X139347854Y-76405069D01*
X139347854Y-76519225D01*
X139344831Y-76580765D01*
X139335790Y-76641713D01*
X139320819Y-76701481D01*
X139300061Y-76759494D01*
X139273718Y-76815193D01*
X139242041Y-76868042D01*
X139205338Y-76917531D01*
X139163960Y-76963184D01*
X139118306Y-77004562D01*
X139068817Y-77041266D01*
X139015968Y-77072942D01*
X138960269Y-77099286D01*
X138902256Y-77120043D01*
X138842488Y-77135015D01*
X138781540Y-77144055D01*
X138720000Y-77147079D01*
X138658460Y-77144055D01*
X138597512Y-77135015D01*
X138537744Y-77120043D01*
X138479731Y-77099286D01*
X138424032Y-77072942D01*
X138371183Y-77041266D01*
X138321694Y-77004562D01*
X138276040Y-76963184D01*
X138234662Y-76917531D01*
X138197959Y-76868042D01*
X138166282Y-76815193D01*
X138139939Y-76759494D01*
X138119181Y-76701481D01*
X138104210Y-76641713D01*
X138095169Y-76580765D01*
X138092146Y-76519225D01*
X138092146Y-76405069D01*
X138092146Y-76103700D01*
X138206301Y-76103700D01*
X138217945Y-76198905D01*
X138252877Y-76273563D01*
X138316233Y-76330241D01*
X138413151Y-76371508D01*
X138497778Y-76390153D01*
X138600061Y-76401340D01*
X138720000Y-76405069D01*
X138839939Y-76401340D01*
X138942222Y-76390153D01*
X139026849Y-76371508D01*
X139123767Y-76330241D01*
X139187123Y-76273563D01*
X139222055Y-76198905D01*
X139233699Y-76103700D01*
X139222055Y-76008494D01*
X139187123Y-75933837D01*
X139123767Y-75877159D01*
X139026849Y-75835891D01*
X138942222Y-75817246D01*
X138839939Y-75806059D01*
X138720000Y-75802330D01*
X138600061Y-75806059D01*
X138497778Y-75817246D01*
X138413151Y-75835891D01*
X138316233Y-75877159D01*
X138252877Y-75933837D01*
X138217945Y-76008494D01*
X138206301Y-76103700D01*
X138092146Y-76103700D01*
X138092146Y-75158494D01*
X138220000Y-75158494D01*
X138220000Y-75302330D01*
X138946027Y-75302330D01*
X138946027Y-75306439D01*
X138220000Y-75520138D01*
X138220000Y-75679042D01*
X139220000Y-75679042D01*
X139220000Y-75528357D01*
X138493973Y-75528357D01*
X138493973Y-75525617D01*
X139220000Y-75311919D01*
X139220000Y-75158494D01*
X138220000Y-75158494D01*
X138092146Y-75158494D01*
X138092146Y-74528357D01*
X138758356Y-74528357D01*
X138758356Y-74939316D01*
X138872055Y-74939316D01*
X138872055Y-74528357D01*
X138758356Y-74528357D01*
X138092146Y-74528357D01*
X138092146Y-74309179D01*
X138411781Y-74309179D01*
X138548767Y-74309179D01*
X138807671Y-73863974D01*
X138810411Y-73863974D01*
X139069315Y-74309179D01*
X139206301Y-74309179D01*
X138884384Y-73774932D01*
X138733699Y-73774932D01*
X138411781Y-74309179D01*
X138092146Y-74309179D01*
X138092146Y-73774932D01*
X138092146Y-73660777D01*
X138095169Y-73599237D01*
X138104210Y-73538289D01*
X138119181Y-73478521D01*
X138139939Y-73420508D01*
X138166282Y-73364809D01*
X138197959Y-73311960D01*
X138234662Y-73262471D01*
X138276040Y-73216818D01*
X138321694Y-73175440D01*
X138371183Y-73138736D01*
X138424032Y-73107060D01*
X138479731Y-73080716D01*
X138537744Y-73059959D01*
X138597512Y-73044987D01*
X138658460Y-73035947D01*
X138720000Y-73032923D01*
X138781540Y-73035947D01*
X138842488Y-73044987D01*
X138902256Y-73059959D01*
X138960269Y-73080716D01*
X139015968Y-73107060D01*
X139068817Y-73138736D01*
X139118306Y-73175440D01*
X139163960Y-73216818D01*
X139205338Y-73262471D01*
X139242041Y-73311960D01*
X139273718Y-73364809D01*
X139300061Y-73420508D01*
X139320819Y-73478521D01*
X139335790Y-73538289D01*
X139344831Y-73599237D01*
X139347854Y-73660777D01*
X139347854Y-73774932D01*
X139347854Y-74309179D01*
X139347854Y-74939316D01*
G37*
D14*
%TO.C,R5*%
X164240000Y-92236360D02*
X164240000Y-92543642D01*
X165000000Y-92236360D02*
X165000000Y-92543642D01*
%TO.C,R3*%
X132797500Y-66452743D02*
X132797500Y-66927259D01*
X133842500Y-66452743D02*
X133842500Y-66927259D01*
D13*
%TO.C,kibuzzard-675D9C7D*%
G36*
X131840548Y-67112604D02*
G01*
X131370685Y-67019453D01*
X131370685Y-67018083D01*
X131840548Y-66924932D01*
X131840548Y-67112604D01*
G37*
G36*
X132347854Y-66590686D02*
G01*
X132347854Y-67341371D01*
X132347854Y-67634522D01*
X132347854Y-67981097D01*
X132347854Y-68095252D01*
X132344831Y-68156793D01*
X132335790Y-68217740D01*
X132320819Y-68277508D01*
X132300061Y-68335521D01*
X132273718Y-68391220D01*
X132242041Y-68444069D01*
X132205338Y-68493558D01*
X132163960Y-68539213D01*
X132118306Y-68580590D01*
X132068817Y-68617294D01*
X132015968Y-68648970D01*
X131960269Y-68675313D01*
X131902256Y-68696071D01*
X131842488Y-68711042D01*
X131781540Y-68720083D01*
X131720000Y-68723106D01*
X131658460Y-68720083D01*
X131597512Y-68711042D01*
X131537744Y-68696071D01*
X131479731Y-68675313D01*
X131424032Y-68648970D01*
X131371183Y-68617294D01*
X131321694Y-68580590D01*
X131276040Y-68539213D01*
X131234662Y-68493558D01*
X131197959Y-68444069D01*
X131166282Y-68391220D01*
X131139939Y-68335521D01*
X131119181Y-68277508D01*
X131104210Y-68217740D01*
X131095169Y-68156793D01*
X131092146Y-68095252D01*
X131092146Y-67981097D01*
X131092146Y-67638631D01*
X131206301Y-67638631D01*
X131214114Y-67718897D01*
X131237551Y-67788460D01*
X131276614Y-67847321D01*
X131331301Y-67895480D01*
X131401614Y-67932938D01*
X131487551Y-67959693D01*
X131589115Y-67975746D01*
X131706301Y-67981097D01*
X131829910Y-67975682D01*
X131937038Y-67959436D01*
X132027684Y-67932360D01*
X132101849Y-67894453D01*
X132159533Y-67845716D01*
X132200736Y-67786148D01*
X132225458Y-67715750D01*
X132233699Y-67634522D01*
X132225137Y-67543083D01*
X132199452Y-67460549D01*
X132073425Y-67460549D01*
X132105274Y-67538631D01*
X132115890Y-67611235D01*
X132104513Y-67678205D01*
X132070381Y-67732999D01*
X132013492Y-67775617D01*
X131933851Y-67806059D01*
X131831453Y-67824324D01*
X131706301Y-67830412D01*
X131590358Y-67824894D01*
X131495494Y-67808342D01*
X131421712Y-67780754D01*
X131369011Y-67742132D01*
X131337389Y-67692474D01*
X131326849Y-67631782D01*
X131332329Y-67600275D01*
X131546027Y-67600274D01*
X131546027Y-67453700D01*
X131236438Y-67453700D01*
X131213836Y-67541028D01*
X131206301Y-67638631D01*
X131092146Y-67638631D01*
X131092146Y-66927672D01*
X131220000Y-66927672D01*
X131220000Y-67105754D01*
X132220000Y-67341372D01*
X132220000Y-67187946D01*
X131956986Y-67135891D01*
X131956986Y-66901644D01*
X132220000Y-66849590D01*
X132220000Y-66690686D01*
X131220000Y-66927672D01*
X131092146Y-66927672D01*
X131092146Y-66070138D01*
X131220000Y-66070138D01*
X131220001Y-66213974D01*
X131946027Y-66213974D01*
X131946027Y-66218083D01*
X131220000Y-66431782D01*
X131220000Y-66590686D01*
X132220000Y-66590686D01*
X132220000Y-66440001D01*
X131493973Y-66440001D01*
X131493973Y-66437261D01*
X132220000Y-66223563D01*
X132220000Y-66070138D01*
X131220000Y-66070138D01*
X131092146Y-66070138D01*
X131092146Y-65648221D01*
X131206301Y-65648221D01*
X131214216Y-65734978D01*
X131237960Y-65816257D01*
X131277534Y-65892056D01*
X131406301Y-65892056D01*
X131361400Y-65814886D01*
X131334460Y-65744111D01*
X131325479Y-65679727D01*
X131362466Y-65590001D01*
X131410411Y-65567912D01*
X131480274Y-65560549D01*
X131555337Y-65567314D01*
X131634929Y-65587611D01*
X131719049Y-65621437D01*
X131807700Y-65668796D01*
X131900878Y-65729685D01*
X131998585Y-65804105D01*
X132100822Y-65892056D01*
X132220000Y-65892056D01*
X132220000Y-65398905D01*
X132100822Y-65398905D01*
X132100822Y-65733152D01*
X132098082Y-65733152D01*
X132002363Y-65652801D01*
X131912466Y-65584350D01*
X131828390Y-65527801D01*
X131750137Y-65483152D01*
X131652420Y-65440153D01*
X131560183Y-65414354D01*
X131473425Y-65405754D01*
X131357843Y-65421337D01*
X131274110Y-65468083D01*
X131223253Y-65544282D01*
X131206301Y-65648221D01*
X131092146Y-65648221D01*
X131092146Y-65398905D01*
X131092146Y-65284750D01*
X131095169Y-65223209D01*
X131104210Y-65162262D01*
X131119181Y-65102493D01*
X131139939Y-65044481D01*
X131166282Y-64988782D01*
X131197959Y-64935933D01*
X131234662Y-64886444D01*
X131276040Y-64840789D01*
X131321694Y-64799412D01*
X131371183Y-64762708D01*
X131424032Y-64731032D01*
X131479731Y-64704689D01*
X131537744Y-64683931D01*
X131597512Y-64668960D01*
X131658460Y-64659919D01*
X131720000Y-64656896D01*
X131781540Y-64659919D01*
X131842488Y-64668960D01*
X131902256Y-64683931D01*
X131960269Y-64704689D01*
X132015968Y-64731032D01*
X132068817Y-64762708D01*
X132118306Y-64799412D01*
X132163960Y-64840789D01*
X132205338Y-64886444D01*
X132242041Y-64935933D01*
X132273718Y-64988782D01*
X132300061Y-65044481D01*
X132320819Y-65102493D01*
X132335790Y-65162262D01*
X132344831Y-65223209D01*
X132347854Y-65284750D01*
X132347854Y-65398905D01*
X132347854Y-66590686D01*
G37*
D14*
%TO.C,J5*%
X161440000Y-96355001D02*
X161440000Y-98275001D01*
X161440000Y-101990001D02*
X161440000Y-100285001D01*
X170600000Y-98275001D02*
X170600000Y-96355001D01*
X170600000Y-100285001D02*
X170600000Y-101990001D01*
X170600000Y-101990001D02*
X161440000Y-101990001D01*
%TO.C,D2*%
X160097502Y-84425001D02*
X162382502Y-84425001D01*
X162382502Y-82955001D02*
X160097502Y-82955001D01*
X162382502Y-84425001D02*
X162382502Y-82955001D01*
D13*
%TO.C,kibuzzard-675D9C7D*%
G36*
X143385069Y-90110549D02*
G01*
X143197397Y-90110549D01*
X143290548Y-89640686D01*
X143291918Y-89640686D01*
X143385069Y-90110549D01*
G37*
G36*
X145086792Y-89365170D02*
G01*
X145147739Y-89374211D01*
X145207508Y-89389182D01*
X145265520Y-89409940D01*
X145321219Y-89436283D01*
X145374068Y-89467960D01*
X145423557Y-89504663D01*
X145469211Y-89546041D01*
X145510589Y-89591695D01*
X145547293Y-89641184D01*
X145578969Y-89694033D01*
X145605312Y-89749732D01*
X145626070Y-89807745D01*
X145641041Y-89867513D01*
X145650082Y-89928461D01*
X145653105Y-89990001D01*
X145650082Y-90051541D01*
X145641041Y-90112489D01*
X145626070Y-90172257D01*
X145605312Y-90230270D01*
X145578969Y-90285969D01*
X145547293Y-90338818D01*
X145510589Y-90388307D01*
X145469211Y-90433961D01*
X145423557Y-90475339D01*
X145374068Y-90512042D01*
X145321219Y-90543719D01*
X145265520Y-90570062D01*
X145207508Y-90590820D01*
X145147739Y-90605791D01*
X145086792Y-90614832D01*
X145025251Y-90617855D01*
X144911096Y-90617855D01*
X143719315Y-90617855D01*
X142968630Y-90617855D01*
X142675479Y-90617855D01*
X142328904Y-90617855D01*
X142214749Y-90617855D01*
X142153208Y-90614832D01*
X142092261Y-90605791D01*
X142032493Y-90590820D01*
X141974480Y-90570062D01*
X141918781Y-90543719D01*
X141865932Y-90512042D01*
X141816443Y-90475339D01*
X141770789Y-90433961D01*
X141729411Y-90388307D01*
X141692707Y-90338818D01*
X141661031Y-90285969D01*
X141634688Y-90230270D01*
X141613930Y-90172257D01*
X141598959Y-90112489D01*
X141589918Y-90051541D01*
X141586895Y-89990001D01*
X141587568Y-89976302D01*
X142328904Y-89976302D01*
X142334319Y-90099911D01*
X142350565Y-90207039D01*
X142377641Y-90297685D01*
X142415548Y-90371850D01*
X142464285Y-90429534D01*
X142523853Y-90470737D01*
X142594251Y-90495459D01*
X142675479Y-90503700D01*
X142766918Y-90495138D01*
X142783425Y-90490001D01*
X142968630Y-90490001D01*
X143122055Y-90490001D01*
X143174110Y-90226987D01*
X143408356Y-90226987D01*
X143460411Y-90490001D01*
X143619315Y-90490001D01*
X143719315Y-90490001D01*
X143870000Y-90490001D01*
X143870000Y-89763974D01*
X143872740Y-89763974D01*
X144086438Y-90490001D01*
X144239863Y-90490001D01*
X144239863Y-89547535D01*
X144417945Y-89547535D01*
X144417945Y-89676302D01*
X144495114Y-89631401D01*
X144565890Y-89604461D01*
X144630274Y-89595480D01*
X144720000Y-89632467D01*
X144742089Y-89680412D01*
X144749452Y-89750275D01*
X144742687Y-89825338D01*
X144722390Y-89904930D01*
X144688563Y-89989050D01*
X144641205Y-90077700D01*
X144580316Y-90170879D01*
X144505896Y-90268586D01*
X144417945Y-90370823D01*
X144417945Y-90490001D01*
X144911096Y-90490001D01*
X144911096Y-90370823D01*
X144576849Y-90370823D01*
X144576849Y-90368083D01*
X144657200Y-90272364D01*
X144725651Y-90182467D01*
X144782200Y-90098391D01*
X144826849Y-90020138D01*
X144869848Y-89922421D01*
X144895647Y-89830184D01*
X144904247Y-89743426D01*
X144888664Y-89627843D01*
X144841918Y-89544111D01*
X144765719Y-89493254D01*
X144661781Y-89476302D01*
X144575023Y-89484217D01*
X144493744Y-89507961D01*
X144417945Y-89547535D01*
X144239863Y-89547535D01*
X144239863Y-89490001D01*
X144096027Y-89490001D01*
X144096027Y-90216028D01*
X144091918Y-90216028D01*
X143878219Y-89490001D01*
X143719315Y-89490001D01*
X143719315Y-90490001D01*
X143619315Y-90490001D01*
X143382329Y-89490001D01*
X143204247Y-89490001D01*
X142968630Y-90490001D01*
X142783425Y-90490001D01*
X142849452Y-90469453D01*
X142849452Y-90343426D01*
X142771370Y-90375275D01*
X142698767Y-90385891D01*
X142631796Y-90374514D01*
X142577002Y-90340382D01*
X142534384Y-90283494D01*
X142503942Y-90203852D01*
X142485677Y-90101455D01*
X142479589Y-89976302D01*
X142485107Y-89860359D01*
X142501659Y-89765496D01*
X142529247Y-89691713D01*
X142567869Y-89639012D01*
X142617527Y-89607391D01*
X142678219Y-89596850D01*
X142709726Y-89602330D01*
X142709726Y-89816028D01*
X142856301Y-89816028D01*
X142856301Y-89506439D01*
X142768973Y-89483837D01*
X142671370Y-89476302D01*
X142591104Y-89484115D01*
X142521541Y-89507552D01*
X142462680Y-89546615D01*
X142414521Y-89601302D01*
X142377063Y-89671615D01*
X142350308Y-89757552D01*
X142334255Y-89859115D01*
X142328904Y-89976302D01*
X141587568Y-89976302D01*
X141589918Y-89928461D01*
X141598959Y-89867513D01*
X141613930Y-89807745D01*
X141634688Y-89749732D01*
X141661031Y-89694033D01*
X141692707Y-89641184D01*
X141729411Y-89591695D01*
X141770789Y-89546041D01*
X141816443Y-89504663D01*
X141865932Y-89467960D01*
X141918781Y-89436283D01*
X141974480Y-89409940D01*
X142032493Y-89389182D01*
X142092261Y-89374211D01*
X142153208Y-89365170D01*
X142214749Y-89362147D01*
X142328904Y-89362147D01*
X144911096Y-89362147D01*
X145025251Y-89362147D01*
X145086792Y-89365170D01*
G37*
D14*
%TO.C,R4*%
X168573641Y-92410001D02*
X168266359Y-92410001D01*
X168573641Y-93170001D02*
X168266359Y-93170001D01*
%TO.C,J3*%
X137170000Y-79740001D02*
X137170000Y-80990001D01*
X137460000Y-80030001D02*
X137460000Y-86000001D01*
X137460000Y-86000001D02*
X150080000Y-86000001D01*
X137470000Y-80040001D02*
X137470000Y-80790001D01*
X137470000Y-80790001D02*
X139270000Y-80790001D01*
X137470000Y-82290001D02*
X138220000Y-82290001D01*
X138220000Y-82290001D02*
X138220000Y-85240001D01*
X138220000Y-85240001D02*
X143770000Y-85240001D01*
X138420000Y-79740001D02*
X137170000Y-79740001D01*
X139270000Y-80040001D02*
X137470000Y-80040001D01*
X139270000Y-80790001D02*
X139270000Y-80040001D01*
X140770000Y-80040001D02*
X140770000Y-80790001D01*
X140770000Y-80790001D02*
X146770000Y-80790001D01*
X146770000Y-80040001D02*
X140770000Y-80040001D01*
X146770000Y-80790001D02*
X146770000Y-80040001D01*
X148270000Y-80040001D02*
X148270000Y-80790001D01*
X148270000Y-80790001D02*
X150070000Y-80790001D01*
X149320000Y-82290001D02*
X149320000Y-85240001D01*
X149320000Y-85240001D02*
X143770000Y-85240001D01*
X150070000Y-80040001D02*
X148270000Y-80040001D01*
X150070000Y-80790001D02*
X150070000Y-80040001D01*
X150070000Y-82290001D02*
X149320000Y-82290001D01*
X150080000Y-80030001D02*
X137460000Y-80030001D01*
X150080000Y-86000001D02*
X150080000Y-80030001D01*
%TO.C,J4*%
X164490000Y-79460001D02*
X165820000Y-79460001D01*
X164490000Y-80790001D02*
X164490000Y-79460001D01*
X164490000Y-82060001D02*
X164490000Y-82120001D01*
X164490000Y-82060001D02*
X167150000Y-82060001D01*
X164490000Y-82120001D02*
X167150000Y-82120001D01*
X167150000Y-82060001D02*
X167150000Y-82120001D01*
%TO.C,U3*%
X124035000Y-94480001D02*
X124035000Y-94780001D01*
X124035000Y-102070001D02*
X124035000Y-96320001D01*
X125455000Y-101570001D02*
X125455000Y-102070001D01*
X125455000Y-102070001D02*
X124035000Y-102070001D01*
X132984999Y-102070001D02*
X132985000Y-101570001D01*
X132985000Y-101570001D02*
X125455000Y-101570001D01*
X134405000Y-94480002D02*
X124035000Y-94480001D01*
X134405000Y-94780002D02*
X134405000Y-94480002D01*
X134405000Y-96320001D02*
X134405000Y-102070001D01*
X134405000Y-102070001D02*
X132984999Y-102070001D01*
%TO.C,R6*%
X158363642Y-83310001D02*
X158056360Y-83310001D01*
X158363642Y-84070001D02*
X158056360Y-84070001D01*
D13*
%TO.C,kibuzzard-675D9C73*%
G36*
X130933699Y-89610549D02*
G01*
X130746027Y-89610549D01*
X130839178Y-89140686D01*
X130840548Y-89140686D01*
X130933699Y-89610549D01*
G37*
G36*
X132538161Y-88865170D02*
G01*
X132599109Y-88874211D01*
X132658877Y-88889182D01*
X132716890Y-88909940D01*
X132772589Y-88936283D01*
X132825438Y-88967960D01*
X132874927Y-89004663D01*
X132920581Y-89046041D01*
X132961959Y-89091695D01*
X132998662Y-89141184D01*
X133030339Y-89194033D01*
X133056682Y-89249732D01*
X133077440Y-89307745D01*
X133092411Y-89367513D01*
X133101452Y-89428461D01*
X133104475Y-89490001D01*
X133101452Y-89551541D01*
X133092411Y-89612489D01*
X133077440Y-89672257D01*
X133056682Y-89730270D01*
X133030339Y-89785969D01*
X132998662Y-89838818D01*
X132961959Y-89888307D01*
X132920581Y-89933961D01*
X132874927Y-89975339D01*
X132825438Y-90012042D01*
X132772589Y-90043719D01*
X132716890Y-90070062D01*
X132658877Y-90090820D01*
X132599109Y-90105791D01*
X132538161Y-90114832D01*
X132476621Y-90117855D01*
X132362466Y-90117855D01*
X132209041Y-90117855D01*
X131267945Y-90117855D01*
X130517260Y-90117855D01*
X130224110Y-90117855D01*
X129877534Y-90117855D01*
X129763379Y-90117855D01*
X129701839Y-90114832D01*
X129640891Y-90105791D01*
X129581123Y-90090820D01*
X129523110Y-90070062D01*
X129467411Y-90043719D01*
X129414562Y-90012042D01*
X129365073Y-89975339D01*
X129319419Y-89933961D01*
X129278041Y-89888307D01*
X129241338Y-89838818D01*
X129209661Y-89785969D01*
X129183318Y-89730270D01*
X129162560Y-89672257D01*
X129147589Y-89612489D01*
X129138548Y-89551541D01*
X129135525Y-89490001D01*
X129136198Y-89476302D01*
X129877534Y-89476302D01*
X129882949Y-89599911D01*
X129899195Y-89707039D01*
X129926271Y-89797685D01*
X129964178Y-89871850D01*
X130012915Y-89929534D01*
X130072483Y-89970737D01*
X130142881Y-89995459D01*
X130224110Y-90003700D01*
X130315548Y-89995138D01*
X130332055Y-89990001D01*
X130517260Y-89990001D01*
X130670685Y-89990001D01*
X130722740Y-89726987D01*
X130956986Y-89726987D01*
X131009041Y-89990001D01*
X131167945Y-89990001D01*
X131267945Y-89990001D01*
X131418630Y-89990001D01*
X131418630Y-89263974D01*
X131421370Y-89263974D01*
X131635069Y-89990001D01*
X131788493Y-89990001D01*
X131788493Y-89129727D01*
X131970685Y-89129727D01*
X131970685Y-89263974D01*
X132206301Y-89132467D01*
X132209041Y-89133837D01*
X132209041Y-89990001D01*
X132362466Y-89990001D01*
X132362466Y-88990001D01*
X132210411Y-88990001D01*
X131970685Y-89129727D01*
X131788493Y-89129727D01*
X131788493Y-88990001D01*
X131644658Y-88990001D01*
X131644658Y-89716028D01*
X131640548Y-89716028D01*
X131426849Y-88990001D01*
X131267945Y-88990001D01*
X131267945Y-89990001D01*
X131167945Y-89990001D01*
X130930959Y-88990001D01*
X130752877Y-88990001D01*
X130517260Y-89990001D01*
X130332055Y-89990001D01*
X130398082Y-89969453D01*
X130398082Y-89843426D01*
X130320000Y-89875275D01*
X130247397Y-89885891D01*
X130180426Y-89874514D01*
X130125632Y-89840382D01*
X130083014Y-89783494D01*
X130052572Y-89703852D01*
X130034307Y-89601455D01*
X130028219Y-89476302D01*
X130033737Y-89360359D01*
X130050289Y-89265496D01*
X130077877Y-89191713D01*
X130116499Y-89139012D01*
X130166157Y-89107391D01*
X130226849Y-89096850D01*
X130258356Y-89102330D01*
X130258356Y-89316028D01*
X130404932Y-89316028D01*
X130404932Y-89006439D01*
X130317603Y-88983837D01*
X130220000Y-88976302D01*
X130139735Y-88984115D01*
X130070171Y-89007552D01*
X130011310Y-89046615D01*
X129963151Y-89101302D01*
X129925694Y-89171615D01*
X129898938Y-89257552D01*
X129882885Y-89359115D01*
X129877534Y-89476302D01*
X129136198Y-89476302D01*
X129138548Y-89428461D01*
X129147589Y-89367513D01*
X129162560Y-89307745D01*
X129183318Y-89249732D01*
X129209661Y-89194033D01*
X129241338Y-89141184D01*
X129278041Y-89091695D01*
X129319419Y-89046041D01*
X129365073Y-89004663D01*
X129414562Y-88967960D01*
X129467411Y-88936283D01*
X129523110Y-88909940D01*
X129581123Y-88889182D01*
X129640891Y-88874211D01*
X129701839Y-88865170D01*
X129763379Y-88862147D01*
X129877534Y-88862147D01*
X132362466Y-88862147D01*
X132476621Y-88862147D01*
X132538161Y-88865170D01*
G37*
D14*
%TO.C,SW1*%
X131070000Y-70490001D02*
X131070000Y-77311002D01*
X132190000Y-70490001D02*
X131070000Y-70490001D01*
X132190000Y-77311001D02*
X131070000Y-77311002D01*
X132545000Y-72090002D02*
X132545000Y-75710001D01*
X132545000Y-75710001D02*
X133815000Y-75710002D01*
X132615000Y-72090001D02*
X132614999Y-73296668D01*
X132735000Y-72090001D02*
X132735000Y-73296668D01*
X132855001Y-72090001D02*
X132855000Y-73296668D01*
X132974999Y-72090001D02*
X132975000Y-73296668D01*
X133095000Y-72090001D02*
X133095000Y-73296668D01*
X133215000Y-72090001D02*
X133215000Y-73296667D01*
X133335000Y-72090001D02*
X133335000Y-73296668D01*
X133455001Y-72090001D02*
X133455000Y-73296668D01*
X133575000Y-72090002D02*
X133575000Y-73296668D01*
X133695000Y-72090001D02*
X133695000Y-73296668D01*
X133815000Y-72090001D02*
X132545000Y-72090002D01*
X133815000Y-75710002D02*
X133815000Y-72090001D01*
X133815001Y-73296668D02*
X132545000Y-73296668D01*
X134680000Y-70490001D02*
X134169000Y-70490001D01*
X134730000Y-77311001D02*
X134168999Y-77311001D01*
X135085000Y-72090001D02*
X135085000Y-75710001D01*
X135085000Y-75710001D02*
X136355000Y-75710001D01*
X135155000Y-72090001D02*
X135155000Y-73296668D01*
X135275000Y-72090001D02*
X135275000Y-73296667D01*
X135395000Y-72090001D02*
X135395000Y-73296668D01*
X135515001Y-72090001D02*
X135515000Y-73296668D01*
X135634999Y-72090001D02*
X135635000Y-73296668D01*
X135755000Y-72090001D02*
X135755000Y-73296668D01*
X135875000Y-72090001D02*
X135875001Y-73296668D01*
X135995000Y-72090001D02*
X135994999Y-73296668D01*
X136115000Y-72090001D02*
X136115000Y-73296668D01*
X136235000Y-72090002D02*
X136235000Y-73296668D01*
X136355000Y-72090001D02*
X135085000Y-72090001D01*
X136355000Y-73296668D02*
X135085000Y-73296668D01*
X136355000Y-75710001D02*
X136355000Y-72090001D01*
X137830000Y-70490001D02*
X136760000Y-70490001D01*
X137830000Y-70490001D02*
X137830000Y-77311001D01*
X137830000Y-77311001D02*
X136710000Y-77311001D01*
X138070000Y-70250001D02*
X136760000Y-70250001D01*
X138070000Y-70250001D02*
X138070000Y-71633001D01*
%TO.C,J1*%
X123720000Y-79715001D02*
X123720000Y-80965001D01*
X124010000Y-80005001D02*
X124010000Y-85975001D01*
X124010000Y-85975001D02*
X136630000Y-85975001D01*
X124020000Y-80015001D02*
X124020000Y-80765001D01*
X124020000Y-80765001D02*
X125820000Y-80765001D01*
X124020000Y-82265001D02*
X124770000Y-82265001D01*
X124770000Y-82265001D02*
X124770000Y-85215001D01*
X124770000Y-85215001D02*
X130320000Y-85215001D01*
X124970000Y-79715001D02*
X123720000Y-79715001D01*
X125820000Y-80015001D02*
X124020000Y-80015001D01*
X125820000Y-80765001D02*
X125820000Y-80015001D01*
X127320000Y-80015001D02*
X127320000Y-80765001D01*
X127320000Y-80765001D02*
X133320000Y-80765001D01*
X133320000Y-80015001D02*
X127320000Y-80015001D01*
X133320000Y-80765001D02*
X133320000Y-80015001D01*
X134820000Y-80015001D02*
X134820000Y-80765001D01*
X134820000Y-80765001D02*
X136620000Y-80765001D01*
X135870000Y-82265001D02*
X135870000Y-85215001D01*
X135870000Y-85215001D02*
X130320000Y-85215001D01*
X136620000Y-80015001D02*
X134820000Y-80015001D01*
X136620000Y-80765001D02*
X136620000Y-80015001D01*
X136620000Y-82265001D02*
X135870000Y-82265001D01*
X136630000Y-80005001D02*
X124010000Y-80005001D01*
X136630000Y-85975001D02*
X136630000Y-80005001D01*
%TO.C,J7*%
X148440000Y-97695001D02*
X147850000Y-97695001D01*
X148440000Y-97695001D02*
X148440001Y-92795001D01*
X148440000Y-99915001D02*
X147850000Y-99915001D01*
X148440000Y-102015001D02*
X148440000Y-99915001D01*
X158560000Y-92795001D02*
X148440001Y-92795001D01*
X158560000Y-97695001D02*
X158560000Y-92795001D01*
X158560000Y-102015001D02*
X148440000Y-102015001D01*
X158560000Y-102015001D02*
X158560000Y-99915001D01*
X159150000Y-97695001D02*
X158560000Y-97695001D01*
X159150000Y-99915001D02*
X158560000Y-99915001D01*
X147850000Y-99915001D02*
G75*
G02*
X147850000Y-97695001I0J1110000D01*
G01*
X159150000Y-97695001D02*
G75*
G02*
X159150000Y-99915001I0J-1110000D01*
G01*
%TO.C,J2*%
X139024000Y-69490001D02*
X139524000Y-69990001D01*
X139024000Y-70490001D02*
X139024000Y-69490001D01*
X139524000Y-69990001D02*
X139024000Y-70490001D01*
X139719000Y-62580001D02*
X139719000Y-70190002D01*
X139719000Y-62580001D02*
X156448999Y-62580001D01*
X139719000Y-78550001D02*
X139719000Y-72990002D01*
X139719000Y-78550001D02*
X156449000Y-78550001D01*
X156448999Y-62580001D02*
X156449000Y-70190001D01*
X156449000Y-78550001D02*
X156449000Y-72990001D01*
%TO.C,J6*%
X158590000Y-79460001D02*
X159920000Y-79460001D01*
X158590000Y-80790001D02*
X158590000Y-79460001D01*
X158590000Y-82060001D02*
X158590000Y-82120001D01*
X158590000Y-82060001D02*
X161250000Y-82060001D01*
X158590000Y-82120001D02*
X161250000Y-82120001D01*
X161250000Y-82060001D02*
X161250000Y-82120001D01*
D13*
%TO.C,kibuzzard-6784102F*%
G36*
X129704840Y-73008357D02*
G01*
X129375936Y-72943152D01*
X129375936Y-72942193D01*
X129704840Y-72876987D01*
X129704840Y-73008357D01*
G37*
G36*
X130503927Y-72049453D02*
G01*
X130175023Y-71984248D01*
X130175023Y-71983289D01*
X130503928Y-71918083D01*
X130503927Y-72049453D01*
G37*
G36*
X130327968Y-70456713D02*
G01*
X130366804Y-70479727D01*
X130388379Y-70520960D01*
X130395571Y-70583289D01*
X130395571Y-70620686D01*
X130151050Y-70620686D01*
X130143379Y-70565069D01*
X130150930Y-70514008D01*
X130173584Y-70477809D01*
X130212540Y-70456234D01*
X130268995Y-70449042D01*
X130327968Y-70456713D01*
G37*
G36*
X130327968Y-73812878D02*
G01*
X130366804Y-73835891D01*
X130388379Y-73877124D01*
X130395571Y-73939453D01*
X130395571Y-73976850D01*
X130151050Y-73976850D01*
X130143379Y-73921234D01*
X130150930Y-73870171D01*
X130173584Y-73833974D01*
X130212540Y-73812398D01*
X130268995Y-73805206D01*
X130327968Y-73812878D01*
G37*
G36*
X130513995Y-70916028D02*
G01*
X130586393Y-70924659D01*
X130636735Y-70939043D01*
X130680965Y-70972843D01*
X130695708Y-71022467D01*
X130680965Y-71072090D01*
X130636735Y-71105892D01*
X130586393Y-71120275D01*
X130513995Y-71128905D01*
X130419543Y-71131782D01*
X130325090Y-71128905D01*
X130252694Y-71120276D01*
X130202352Y-71105891D01*
X130158122Y-71072090D01*
X130143380Y-71022467D01*
X130158122Y-70972843D01*
X130202352Y-70939042D01*
X130252694Y-70924659D01*
X130325091Y-70916028D01*
X130419544Y-70913152D01*
X130513995Y-70916028D01*
G37*
G36*
X130859041Y-71022467D02*
G01*
X130859041Y-71448220D01*
X130859041Y-72209591D01*
X130859041Y-72643014D01*
X130859041Y-72777262D01*
X130859041Y-73168494D01*
X130859041Y-73544385D01*
X130859041Y-73681508D01*
X130859041Y-74208905D01*
X130859041Y-74804385D01*
X130859041Y-75054659D01*
X130859041Y-75134567D01*
X130858030Y-75175737D01*
X130855001Y-75216807D01*
X130849960Y-75257680D01*
X130842919Y-75298256D01*
X130833896Y-75338438D01*
X130822912Y-75378128D01*
X130809995Y-75417232D01*
X130795173Y-75455654D01*
X130778484Y-75493304D01*
X130759968Y-75530088D01*
X130739670Y-75565921D01*
X130717637Y-75600713D01*
X130693924Y-75634383D01*
X130668588Y-75666848D01*
X130641688Y-75698033D01*
X130613292Y-75727859D01*
X130583466Y-75756256D01*
X130552282Y-75783155D01*
X130519816Y-75808491D01*
X130486146Y-75832204D01*
X130451353Y-75854237D01*
X130415521Y-75874535D01*
X130378736Y-75893051D01*
X130341087Y-75909740D01*
X130302664Y-75924561D01*
X130263561Y-75937479D01*
X130223869Y-75948463D01*
X130183689Y-75957486D01*
X130143113Y-75964528D01*
X130102240Y-75969569D01*
X130061170Y-75972598D01*
X130020000Y-75973608D01*
X129978830Y-75972598D01*
X129937760Y-75969569D01*
X129896887Y-75964528D01*
X129856311Y-75957486D01*
X129816131Y-75948463D01*
X129776439Y-75937479D01*
X129737336Y-75924561D01*
X129698913Y-75909740D01*
X129661264Y-75893051D01*
X129624479Y-75874535D01*
X129588647Y-75854237D01*
X129553854Y-75832204D01*
X129520184Y-75808491D01*
X129487718Y-75783155D01*
X129456534Y-75756256D01*
X129426708Y-75727859D01*
X129398312Y-75698033D01*
X129371412Y-75666848D01*
X129346076Y-75634383D01*
X129322363Y-75600713D01*
X129300330Y-75565921D01*
X129280032Y-75530088D01*
X129261516Y-75493304D01*
X129244827Y-75455654D01*
X129230005Y-75417232D01*
X129217088Y-75378128D01*
X129206104Y-75338438D01*
X129197081Y-75298256D01*
X129190040Y-75257680D01*
X129184999Y-75216807D01*
X129181970Y-75175737D01*
X129180959Y-75134567D01*
X129180959Y-75054659D01*
X129180959Y-74661508D01*
X130069543Y-74661508D01*
X130069543Y-75054659D01*
X130152968Y-75054659D01*
X130152968Y-74911782D01*
X130769543Y-74911781D01*
X130769543Y-74804385D01*
X130152968Y-74804385D01*
X130152969Y-74661508D01*
X130069543Y-74661508D01*
X129180959Y-74661508D01*
X129180959Y-74208905D01*
X130069543Y-74208905D01*
X130069543Y-74544522D01*
X130769543Y-74544521D01*
X130769543Y-74208905D01*
X130686119Y-74208905D01*
X130686119Y-74437124D01*
X130433927Y-74437124D01*
X130433927Y-74218494D01*
X130352420Y-74218494D01*
X130352420Y-74437124D01*
X130152968Y-74437124D01*
X130152968Y-74208905D01*
X130069543Y-74208905D01*
X129180959Y-74208905D01*
X129180959Y-73921234D01*
X130059954Y-73921234D01*
X130062085Y-73976424D01*
X130068478Y-74030762D01*
X130079132Y-74084248D01*
X130769542Y-74084248D01*
X130769543Y-73976850D01*
X130478995Y-73976850D01*
X130478994Y-73939453D01*
X130497694Y-73881439D01*
X130524663Y-73863100D01*
X130568174Y-73847398D01*
X130769543Y-73791782D01*
X130769543Y-73681508D01*
X130573927Y-73740960D01*
X130498653Y-73771645D01*
X130451187Y-73808083D01*
X130449269Y-73808082D01*
X130421821Y-73761097D01*
X130382626Y-73727535D01*
X130331684Y-73707398D01*
X130268995Y-73700686D01*
X130203204Y-73706599D01*
X130150304Y-73724339D01*
X130110297Y-73753905D01*
X130082329Y-73796150D01*
X130065548Y-73851926D01*
X130059954Y-73921234D01*
X129180959Y-73921234D01*
X129180959Y-73376576D01*
X129260868Y-73376576D01*
X129266336Y-73432762D01*
X129282743Y-73481456D01*
X129310086Y-73522659D01*
X129348368Y-73556372D01*
X129397586Y-73582591D01*
X129457743Y-73601319D01*
X129528836Y-73612557D01*
X129610868Y-73616302D01*
X129697394Y-73612512D01*
X129772383Y-73601140D01*
X129835835Y-73582186D01*
X129887751Y-73555652D01*
X129928130Y-73521536D01*
X129956972Y-73479839D01*
X129958214Y-73476302D01*
X130069543Y-73476302D01*
X130069543Y-73601919D01*
X130769543Y-73638357D01*
X130769543Y-73544385D01*
X130175023Y-73528083D01*
X130175023Y-73525206D01*
X130606530Y-73470549D01*
X130606530Y-73379453D01*
X130175023Y-73320001D01*
X130175023Y-73319042D01*
X130769543Y-73304659D01*
X130769543Y-73202057D01*
X130069543Y-73237535D01*
X130069543Y-73358357D01*
X130188447Y-73373700D01*
X130515434Y-73415891D01*
X130515434Y-73417809D01*
X130069543Y-73476302D01*
X129958214Y-73476302D01*
X129974277Y-73430560D01*
X129980046Y-73373700D01*
X129974053Y-73309693D01*
X129956073Y-73251919D01*
X129867855Y-73251919D01*
X129890148Y-73306576D01*
X129897580Y-73357398D01*
X129889616Y-73404279D01*
X129865723Y-73442634D01*
X129825902Y-73472467D01*
X129770152Y-73493776D01*
X129698474Y-73506561D01*
X129610868Y-73510823D01*
X129529707Y-73506960D01*
X129463303Y-73495374D01*
X129411655Y-73476063D01*
X129374764Y-73449027D01*
X129352629Y-73414267D01*
X129345250Y-73371782D01*
X129349087Y-73349727D01*
X129498676Y-73349727D01*
X129498676Y-73247124D01*
X129281963Y-73247123D01*
X129266142Y-73308254D01*
X129260868Y-73376576D01*
X129180959Y-73376576D01*
X129180959Y-72878905D01*
X129270457Y-72878905D01*
X129270457Y-73003563D01*
X129970457Y-73168494D01*
X129970457Y-73061097D01*
X129786346Y-73024659D01*
X129786347Y-72860686D01*
X129970457Y-72824248D01*
X129970457Y-72777261D01*
X130069543Y-72777261D01*
X130069543Y-73103289D01*
X130152968Y-73103289D01*
X130152968Y-72995890D01*
X130686119Y-72995891D01*
X130686119Y-73103289D01*
X130769543Y-73103289D01*
X130769543Y-72777261D01*
X130686119Y-72777261D01*
X130686119Y-72884659D01*
X130152969Y-72884659D01*
X130152968Y-72777262D01*
X130069543Y-72777261D01*
X129970457Y-72777261D01*
X129970457Y-72713015D01*
X129270457Y-72878905D01*
X129180959Y-72878905D01*
X129180959Y-72531782D01*
X129270457Y-72531782D01*
X129270457Y-72643015D01*
X129970457Y-72643015D01*
X129970457Y-72537535D01*
X129462237Y-72537535D01*
X129462237Y-72535617D01*
X129970457Y-72386028D01*
X129970457Y-72379316D01*
X130069543Y-72379316D01*
X130577763Y-72379317D01*
X130577763Y-72382193D01*
X130069543Y-72531782D01*
X130069543Y-72643014D01*
X130069543Y-72643015D01*
X130769543Y-72643015D01*
X130769543Y-72643014D01*
X130069543Y-72643014D01*
X130769543Y-72643014D01*
X130769543Y-72537535D01*
X130261324Y-72537535D01*
X130261324Y-72535617D01*
X130769543Y-72386029D01*
X130769542Y-72278631D01*
X130069543Y-72278631D01*
X130069543Y-72379316D01*
X129970457Y-72379316D01*
X129970457Y-72278631D01*
X129270458Y-72278631D01*
X129270458Y-72379316D01*
X129778676Y-72379316D01*
X129778676Y-72382193D01*
X129270457Y-72531782D01*
X129180959Y-72531782D01*
X129180959Y-71920001D01*
X130069543Y-71920001D01*
X130069543Y-72044659D01*
X130769543Y-72209590D01*
X130769543Y-72102193D01*
X130585434Y-72065754D01*
X130585434Y-71901782D01*
X130769543Y-71865343D01*
X130769543Y-71754111D01*
X130069543Y-71920001D01*
X129180959Y-71920001D01*
X129180959Y-71305343D01*
X130069543Y-71305343D01*
X130069543Y-71698494D01*
X130152968Y-71698494D01*
X130152968Y-71555617D01*
X130769543Y-71555616D01*
X130769543Y-71448220D01*
X130152968Y-71448220D01*
X130152969Y-71305343D01*
X130069543Y-71305343D01*
X129180959Y-71305343D01*
X129180959Y-71022467D01*
X130059954Y-71022467D01*
X130068105Y-71089111D01*
X130092557Y-71141371D01*
X130136906Y-71181046D01*
X130204749Y-71209933D01*
X130263988Y-71222984D01*
X130335586Y-71230815D01*
X130419544Y-71233426D01*
X130503501Y-71230815D01*
X130575099Y-71222984D01*
X130634338Y-71209932D01*
X130702180Y-71181046D01*
X130746530Y-71141371D01*
X130770982Y-71089111D01*
X130779132Y-71022467D01*
X130770981Y-70955823D01*
X130746530Y-70903563D01*
X130702180Y-70863888D01*
X130634338Y-70835000D01*
X130575099Y-70821949D01*
X130503501Y-70814118D01*
X130419543Y-70811507D01*
X130335586Y-70814117D01*
X130263988Y-70821949D01*
X130204749Y-70835001D01*
X130136906Y-70863888D01*
X130092557Y-70903563D01*
X130068104Y-70955823D01*
X130059954Y-71022467D01*
X129180959Y-71022467D01*
X129180959Y-70565069D01*
X130059954Y-70565069D01*
X130062085Y-70620261D01*
X130068478Y-70674598D01*
X130079132Y-70728083D01*
X130769542Y-70728083D01*
X130769543Y-70620686D01*
X130478995Y-70620686D01*
X130478995Y-70583289D01*
X130497694Y-70525275D01*
X130524664Y-70506936D01*
X130568174Y-70491233D01*
X130769543Y-70435617D01*
X130769543Y-70325343D01*
X130573927Y-70384795D01*
X130498653Y-70415480D01*
X130451187Y-70451919D01*
X130449269Y-70451919D01*
X130421820Y-70404933D01*
X130382626Y-70371371D01*
X130331684Y-70351234D01*
X130268995Y-70344522D01*
X130203204Y-70350435D01*
X130150304Y-70368175D01*
X130110297Y-70397741D01*
X130082329Y-70439986D01*
X130065548Y-70495762D01*
X130059954Y-70565069D01*
X129180959Y-70565069D01*
X129180959Y-70325343D01*
X129180959Y-70245435D01*
X129181970Y-70204265D01*
X129184999Y-70163195D01*
X129190040Y-70122322D01*
X129197081Y-70081746D01*
X129206104Y-70041564D01*
X129217088Y-70001874D01*
X129230005Y-69962770D01*
X129244827Y-69924348D01*
X129261516Y-69886698D01*
X129280032Y-69849914D01*
X129300330Y-69814081D01*
X129322363Y-69779289D01*
X129346076Y-69745619D01*
X129371412Y-69713154D01*
X129398312Y-69681969D01*
X129426708Y-69652143D01*
X129456534Y-69623746D01*
X129487718Y-69596847D01*
X129520184Y-69571511D01*
X129553854Y-69547798D01*
X129588647Y-69525765D01*
X129624479Y-69505467D01*
X129661264Y-69486951D01*
X129698913Y-69470262D01*
X129737336Y-69455441D01*
X129776439Y-69442523D01*
X129816131Y-69431539D01*
X129856311Y-69422516D01*
X129896887Y-69415474D01*
X129937760Y-69410433D01*
X129978830Y-69407404D01*
X130020000Y-69406394D01*
X130061170Y-69407404D01*
X130102240Y-69410433D01*
X130143113Y-69415474D01*
X130183689Y-69422516D01*
X130223869Y-69431539D01*
X130263561Y-69442523D01*
X130302664Y-69455441D01*
X130341087Y-69470262D01*
X130378736Y-69486951D01*
X130415521Y-69505467D01*
X130451353Y-69525765D01*
X130486146Y-69547798D01*
X130519816Y-69571511D01*
X130552282Y-69596847D01*
X130583466Y-69623746D01*
X130613292Y-69652143D01*
X130641688Y-69681969D01*
X130668588Y-69713154D01*
X130693924Y-69745619D01*
X130717637Y-69779289D01*
X130739670Y-69814081D01*
X130759968Y-69849914D01*
X130778484Y-69886698D01*
X130795173Y-69924348D01*
X130809995Y-69962770D01*
X130822912Y-70001874D01*
X130833896Y-70041564D01*
X130842919Y-70081746D01*
X130849960Y-70122322D01*
X130855001Y-70163195D01*
X130858030Y-70204265D01*
X130859041Y-70245435D01*
X130859041Y-70325343D01*
X130859041Y-71022467D01*
G37*
%TD*%
%LPC*%
D15*
%TO.C,R2*%
X135820000Y-65965001D03*
X135820000Y-67615001D03*
%TD*%
D16*
%TO.C,D1*%
X161697502Y-85490001D03*
X160122500Y-85490001D03*
%TD*%
D17*
%TO.C,R1*%
X157700001Y-85590001D03*
X158720001Y-85590001D03*
%TD*%
D18*
%TO.C,D3*%
X153020000Y-80690000D03*
X153020000Y-84690002D03*
%TD*%
D19*
%TO.C,U2*%
X144920000Y-95550001D03*
X135920000Y-95550001D03*
D20*
X141920000Y-99490001D03*
D21*
X138920000Y-99490001D03*
X141920000Y-96490001D03*
X138920000Y-96490001D03*
%TD*%
D22*
%TO.C,R5*%
X164620000Y-91880002D03*
X164620000Y-92900000D03*
%TD*%
D15*
%TO.C,R3*%
X133320000Y-65865001D03*
X133320000Y-67515001D03*
%TD*%
D23*
%TO.C,J5*%
X163130000Y-95600001D03*
X168910000Y-95600001D03*
D24*
X162820000Y-94480001D03*
X163620000Y-94480001D03*
D25*
X164770000Y-94480001D03*
X165770000Y-94480001D03*
X166270000Y-94480001D03*
X167270000Y-94480001D03*
D24*
X168420000Y-94480001D03*
X169220000Y-94480001D03*
X169220000Y-94480001D03*
X168420000Y-94480001D03*
D25*
X167770000Y-94480001D03*
X166770000Y-94480001D03*
X165270000Y-94480001D03*
X164270000Y-94480001D03*
D24*
X163620000Y-94480001D03*
X162820000Y-94480001D03*
D26*
X161700000Y-95080001D03*
D27*
X161700000Y-99280001D03*
D26*
X170340000Y-95080001D03*
D27*
X170340000Y-99280001D03*
%TD*%
D16*
%TO.C,D2*%
X161685003Y-83690001D03*
X160110001Y-83690001D03*
%TD*%
D28*
%TO.C,R4*%
X168929999Y-92790001D03*
X167910001Y-92790001D03*
%TD*%
D29*
%TO.C,J3*%
X140020000Y-82490001D03*
D30*
X142520000Y-82490001D03*
X145020000Y-82490001D03*
X147520000Y-82490001D03*
%TD*%
D31*
%TO.C,J4*%
X165820000Y-80790001D03*
%TD*%
D19*
%TO.C,U3*%
X133720000Y-95550001D03*
X124720000Y-95550001D03*
D20*
X130720000Y-99490001D03*
D21*
X127720000Y-99490001D03*
X130720000Y-96490001D03*
X127720000Y-96490001D03*
%TD*%
D28*
%TO.C,R6*%
X158720000Y-83690001D03*
X157700002Y-83690001D03*
%TD*%
D32*
%TO.C,SW1*%
X135720000Y-70090001D03*
D33*
X133180000Y-70090001D03*
X133180000Y-77710001D03*
X135720000Y-77710001D03*
%TD*%
D29*
%TO.C,J1*%
X126570000Y-82465001D03*
D30*
X129070000Y-82465001D03*
X131570000Y-82465001D03*
X134070000Y-82465001D03*
%TD*%
D34*
%TO.C,J7*%
X159000000Y-98805001D03*
X148000000Y-98805001D03*
D35*
X151000000Y-88805001D03*
D36*
X156000000Y-88805001D03*
%TD*%
D37*
%TO.C,J2*%
X141734000Y-68150001D03*
X154434000Y-68150001D03*
D38*
X144524000Y-70690001D03*
D21*
X145540000Y-72470002D03*
X146556000Y-70690001D03*
X147572000Y-72470002D03*
X148588000Y-70690001D03*
X149604000Y-72470002D03*
X150620000Y-70690001D03*
X151635999Y-72470001D03*
X141224000Y-77290001D03*
X143514000Y-77290001D03*
X152654000Y-77290001D03*
X154944000Y-77290001D03*
D39*
X139954000Y-71580001D03*
X156214000Y-71580001D03*
%TD*%
D31*
%TO.C,J6*%
X159920000Y-80790001D03*
%TD*%
%LPD*%
M02*
